<svg version="1" xmlns="http://www.w3.org/2000/svg" width="1418.667" height="1418.667" viewBox="0 0 1064.000000 1064.000000"><path d="M138.1 393.7c-23.7 23.5-33.5 47.5-33.4 81.8 0 12.4 1.9 28.1 4 33.5.8 2 .8 2 1.8 5.4 1.5 5.3 9.2 20 14.3 27.2 5 7.1 17.8 20.6 23.1 24.3 3.2 2.3 2.7 2.6 11.1-6.5 2.5-2.7 6.9-7.4 9.7-10.5l5.3-5.5-4.3-4.5c-10.8-11.1-19.5-24.4-23.2-35.2-3.6-10.7-4.4-17.7-4-32.2.3-11.4.6-14.9 1.9-19 .2-.6.7-2.5 1.1-4.3.4-1.8 1.2-3.5 1.6-3.8.5-.3.9-1.1.9-1.9 0-1.6 7.2-14.2 9.7-17 1-1.1 2.9-3.4 4.1-5 1.3-1.7 4.4-5.1 6.9-7.8 2.4-2.6 4.3-5.1 4.1-5.6-.2-.5-4.1-5-8.8-10.1-4.7-5.1-9.5-10.3-10.7-11.6-1.2-1.3-2.7-2.4-3.3-2.4-.6 0-6 4.8-11.9 10.7zM837.5 391.6c-9.7 10.5-14.1 15.5-13.8 16.1.1.3 2.9 3.5 6.2 7.2 10.9 12.1 17.2 22.1 21.3 34 2.6 7.7 3.3 13.7 3.3 28.1-.1 23.8-6.3 38.6-24.8 59.3-3.3 3.6-5.9 6.9-5.8 7.4.1.9 7.1 8.8 16.3 18.5l5.8 6.1 2.7-1.8c2.7-1.8 16.3-15.2 19.3-19.1 11.5-14.5 17.7-27.2 21.5-43.9 2.4-10.2 2.6-11.8 2.9-24.6 1-35.7-11.6-65.6-37.7-89.3-4-3.6-7.6-6.6-8.2-6.6-.5 0-4.6 3.9-9 8.6zM219.9 398.1c-.8.5-1.3 75.5-.9 145.9v8.5l76.3-.2c41.9 0 76.7-.2 77.3-.2.7-.1 1.1-5.3 1.1-16.5 0-14.2-.2-16.5-1.6-16.8-.9-.2-26.2-.4-56.3-.3-54.2 0-54.8 0-54.9-2 0-1.1-.1-28.2-.1-60.3 0-32-.3-58.3-.7-58.3-2.4-.5-39.5-.3-40.2.2zM465.1 398c-.5.3-5.9 10.4-12.1 22.5-6.2 12.1-11.7 22.1-12.2 22.3-.4.2-.8 1.1-.8 2.1 0 .9-.4 2.1-.9 2.7-.5.5-4.3 7.6-8.6 15.9-4.3 8.2-9.4 18.1-11.5 22-2.1 3.8-6.3 11.9-9.5 18-14.1 27.1-20 38.4-22.6 43.2-1.8 3.4-2.4 5.3-1.6 5.5.7.2 11.1.4 23.2.3h22l7.4-14.8 7.4-14.7h86.2l7.2 14.7 7.3 14.7 23 .1c12.6 0 23-.2 23-.5 0-.7-6-12.3-25-48.5-2.6-5-7.7-14.8-11.4-21.8-6.8-13.2-14.6-28.1-22.1-42.2-2.3-4.4-8-15.2-12.5-24-4.6-8.8-8.7-16.4-9.1-17-.9-.9-45.4-1.5-46.8-.5zm50.9 94.2c0 .5-12.6.8-27.9.8h-27.9l14.1-28.5 14.2-28.5 13.7 27.8c7.6 15.2 13.7 28 13.8 28.4zM618 413.7V552.5h41.5l.1-23.7c0-13.1.3-24.1.7-24.4.3-.4 19.4-.7 42.4-.8 23-.1 42.3-.4 42.8-.8.6-.3 2.6-.9 4.5-1.2 6.8-1.1 8-1.5 15.2-4.9 4-2 9-5 11-6.7 6.4-5.5 11.9-15.2 14.5-25.5.2-1.1.6-6.7.7-12.4.4-13.6-2.3-24.9-7.9-33-2.5-3.6-9.8-10.2-13.8-12.6-5.5-3.1-14.1-6.3-19.4-7-2.1-.2-4.9-.7-6.3-1.1-1.4-.3-30.3-.7-64.2-.8l-61.8-.1v16.2zm113.2 17.6c7.2.9 13.1 4.2 15.6 8.6 2.6 4.7 3.3 12.1 1.6 18-3.3 11.3-7.6 12.3-52.7 12.5-19.2 0-35.1-.3-35.4-.8-.5-.7-.8-33.9-.4-38.1.1-1.1 62.9-1.2 71.3-.2zM944 439.7c0 .4-4.3.7-9.5.5l-9.5-.3v40.7h21.3l21.2-.1.1-20.1.1-20.1H957c-5.9 0-11.2-.3-11.8-.7-.7-.4-1.2-.4-1.2.1zM924.9 512.5c0 .5-.2 1.7-.4 2.5-.4 1.8-1.6 9.5-2.1 13.3-.4 3.3-1.4 10.2-1.9 13.7-1.2 7.8-1.8 12.4-3 21.5-.4 3.3-1.1 6.7-1.6 7.6-1.8 3.5.2 4 17.6 3.7l16.9-.3 1.2-4.3c.7-2.3 1.5-5.7 1.8-7.6.3-1.8 1-4.5 1.6-6 .5-1.5 1.2-3.7 1.4-4.9.2-1.2 2.5-10.4 5.1-20.5 2.6-10.1 4.4-18.6 4.1-19-1.1-1.1-40.6-.8-40.7.3zM176.2 572.9c-.6.5-1 74-.3 77.3 0 .4 17.7.7 39.1.7l39.1.1-.3-8.8-.3-8.7h-28.2c-27.7.1-28.3 0-28.4-2 0-1.1-.1-14.7-.1-30.3 0-15.5-.3-28.3-.7-28.3-2.2-.5-19.2-.5-19.9 0zM299.6 574c-.7.8-3.2 5.3-5.6 10-2.3 4.7-5 9.3-5.8 10.2-.8 1-1.2 1.8-.8 1.8.5 0-.3 1.9-1.7 4.2-2.2 3.9-7.4 13.7-20.1 38.3-2.6 4.9-5.1 9.4-5.7 9.9-2.1 2.2-.4 2.6 11 2.6h11.9l3.6-7.4 3.7-7.4 21.9-.1h21.8l3.6 7.4 3.6 7.5h11.5c12.1 0 13-.4 10.1-4.5-.7-1.1-5.2-9.7-10.1-19-4.8-9.4-10.7-20.6-13-25-2.4-4.4-6.6-12.5-9.4-18-2.9-5.5-5.6-10.4-6.1-10.9-.6-.6-5.9-1-12-1.1-8.8-.1-11.3.2-12.4 1.5zm19.7 32.6c3.7 7.4 6.7 13.6 6.7 13.8 0 .1-6.3.2-14 .2s-14-.1-14-.3c0-.9 13.6-27.3 14.1-27.3.3 0 3.6 6.1 7.2 13.6zM373 611.7v39.4l10.7-.3 10.7-.3v-12.2l-.1-12.3h19.6c22.3 0 26.7-.4 33.3-3.2 11.3-4.8 16-17.4 12.6-33.9-1.2-5.8-10-13.2-18.3-15.4-1.6-.5-17.7-.9-35.7-1l-32.8-.1v39.3zm60.5-21.2c3.8 1.5 5.3 3.3 6 7.2.7 4.5-.9 7.9-4.6 9.9-2.7 1.3-6.3 1.6-20.3 1.6-9.4 0-17.8 0-18.7-.1-1.3-.1-1.6-1.7-1.6-10.1v-10.1l18.1.2c11.5.1 19.2.6 21.1 1.4zM478.9 575.9c-.3 10.7-.3 70.9 0 72.8.3 2.1.8 2.2 10.6 2.2h10.3l-.2-39.2-.1-39.2-10.2-.1-10.3-.1-.1 3.6zM524.7 572.8c-.3.6-.2 75.7.2 77.3 0 .3 4.7.5 10.4.5l10.2-.1.1-15.3c0-8.3.3-15.5.6-15.8.5-.4 19.3 12.8 29.9 21 1.5 1.2 5.2 3.9 8.3 6.1l5.7 4 15.4.1 15.4.1-2.8-2.1c-1.5-1.2-3.9-2.9-5.2-3.9-1.3-1-12.1-8.7-23.9-17.3-11.8-8.5-22.1-16.1-22.7-16.7-1-1-.3-1.9 3.5-4.5 2.6-1.7 6.4-4.4 8.5-5.9 2.1-1.6 6.3-4.6 9.5-6.8 9.6-6.8 27.7-19.7 28.5-20.5 1.2-1-26.3-.6-28.8.5-1.1.5-2.5 1.4-3.1 1.9-.6.6-6.4 4.7-13 9.1-6.5 4.4-12.1 8.3-12.4 8.6-.3.3-3.3 2.4-6.7 4.8-6 4-6.3 4.1-6.4 1.9 0-1.3-.1-7.9-.2-14.8l-.2-12.5-10.2-.2c-5.6-.2-10.4 0-10.6.5zM632.9 575.5c-.1 1.6-.2 14-.3 27.5-.1 20.5.2 25.2 1.5 29 5 13.5 22.9 21.3 47.4 20.5 14.9-.5 18.9-1.3 28.1-5.5 7.1-3.4 13.7-10.3 15.2-16 .5-2 .8-16 .8-31l-.1-27.5h-10.2c-5.7-.1-10.3.1-10.4.4 0 .4-.2 11.6-.3 25.1-.2 26.9-.7 29.5-6.4 33.7-6.6 4.9-25 5.8-34.6 1.8-4.4-1.9-8.4-6.7-9.2-11.2-.4-2-.7-13.3-.6-25.2 0-11.9-.2-22.3-.4-23.1-.3-1.2-2.3-1.5-10.4-1.5l-10-.1-.1 3.1zM745.5 573.1c-.3.3-.4 18-.4 39.3v38.8l31.7-.5c17.4-.2 32.6-.6 33.7-.9 1.1-.4 3.4-.9 5-1.3 11-2.8 20.9-12.4 23.9-23.4 1.8-6.5 2.3-16.8 1.1-23.1-.9-5.2-4.8-13.1-8.5-17.3-3.8-4.4-13.1-9-21.5-10.7-6.3-1.4-64.3-2.2-65-.9zm57.5 17.3c7.8 1.3 14.3 6.2 15.7 11.9 1.1 4.5 1.1 13.3.1 17.5-1.4 5.6-6.4 10.5-12.5 12.3-3.2.9-10.8 1.3-22.3 1.4h-17.5l-.1-21.5c0-11.8.1-21.7.2-22 .4-.8 31.1-.4 36.4.4zM231 673.4c0 1.9.5 2.4 2 2.3 1.1-.1 2-.4 2.1-.7 0-.3.2-1.3.4-2.3.2-1.2-.3-1.7-2.1-1.7-1.9 0-2.4.5-2.4 2.4zM237.7 672.4c-.7 1.6 1.1 3.3 3.3 3.2 1.4-.1 1.6-.7 1.2-3.6-.3-1.5-3.9-1.2-4.5.4zM176.9 678c-1.3.3-2.5 1.3-2.5 2.2-.2 1.8 2.1 2.3 6.9 1.9 1.5-.2 1.7.8 1.7 7.7 0 7.7.1 8 2.5 8.4 2.8.6 2.8.8 3-8.7l.1-7 3.9-.2c2.2-.1 4.3-.2 4.6-.2.3-.1.4-1.1.2-2.4-.4-2.1-.9-2.2-9.2-2.2-4.8 0-9.8.2-11.2.5zM199.7 677.8c-1.9.4-2.3 2.7-.5 3.8.6.4 2.6.7 4.5.6l3.3-.1v7.9c0 4.3.3 8.1.8 8.3.4.3 1.6.1 2.7-.3 1.7-.6 2-1.6 2-8.1v-7.4l4-.1c3.5 0 4-.3 4.3-2.5l.3-2.4h-9.9c-5.4 0-10.6.1-11.5.3zM227 677.9c-2.4.6-2.5 1-2.4 7.1.1 11.1 1.6 12.9 10.7 13.5 5.9.4 11-1.4 12.6-4.3.6-1.2 1.1-5.2 1.1-9 0-6.1-.2-7-2-7.5-2.6-.7-3.4.8-3.6 6.5-.3 8.1-1 9.5-4.9 10-3.4.4-6.4-.6-7.6-2.5-.4-.5-.7-3.9-.7-7.4 0-3.5-.1-6.5-.3-6.7-.2-.1-1.5 0-2.9.3zM264.2 678c-2.8 2.1 1.5 5.4 5.7 4.3 2.3-.6 2.2-.9 2.4 10.3 0 6 0 6 2.8 5.6l2.8-.4-.1-7.7-.1-7.6 3.7-.2c4.3-.1 6.2-1.5 5-3.5-.7-.9-3.7-1.3-11.2-1.3-5.7 0-10.7.2-11 .5zM296.6 678.5c-.7.8-3.1 4.9-5.2 9.2-2.2 4.3-4.2 7.9-4.6 8.1-2 .9-.4 2.2 2.6 2.2 2.4 0 3.5-.5 3.8-1.8.7-2.6 11.1-2.5 13.1.1.8 1.2 2.2 1.8 4 1.5l2.7-.3-4.6-9c-2.6-5-5-9.3-5.3-9.8-1.4-1.4-5.1-1.6-6.5-.2zm4.9 7.7c1.5 4.3 1.2 4.5-4.5 3.9-1.2-.1 1.6-6.1 2.9-6.1.5 0 1.2 1 1.6 2.2zM320 678l-3.5.5v9c.1 10 .6 11.6 3.5 10.8 1.8-.5 2.5-2.5 2.1-5.9-.1-.7 1.1-1.4 2.5-1.7 2.7-.5 5.8 1.6 8 5.5.8 1.4 3.7 2.2 7.2 1.9.8-.1 0-1.4-1.7-3.4-3.1-3.2-4-5.7-2.1-5.7.6 0 1.5-1.1 2-2.5 1.2-3.3-.2-7.1-3.1-8-2.8-.9-10.4-1.1-14.9-.5zm12.7 5.8c.8 2-1.1 2.9-6 2.7-4-.1-5.2-1.3-4-3.8.7-1.3 9.5-.5 10 1.1zM346.1 678c-1.7 1-1.8 19 0 20 2.5 1.6 4.6-.1 4.4-3.6-.3-4.4.5-4.9 3.8-1.8 1.4 1.3 2.9 2.4 3.2 2.4.4 0 1.3.7 2.1 1.5.9.8 2.9 1.5 4.5 1.5s3.2 0 3.6.1c.4 0 .9-.5 1.2-1.3.2-.7 0-1-.3-.6-.4.3-1.5 0-2.4-.7-1-.8-3.6-2.8-5.9-4.5-4.4-3.1-5.5-5-2.8-5 .8 0 1.5-.3 1.5-.8 0-.4 2-2 4.5-3.6 5-3.1 5.1-3.4 1.4-3.9-2.2-.4-8.2 2.8-11.7 6.1-1.9 1.7-3.3.5-2.8-2.4.5-2.7-2.1-4.8-4.3-3.4zM371.8 677.8c-1.5.3-1 1.8 3.4 10.3 5.1 10 5.1 10 8.5 9.7 3.3-.3 3.8-.8 8.4-9.8 2.7-5.2 4.9-9.8 4.9-10.1 0-.3-1.4-.3-3.1-.1-2.7.4-3.5 1.4-6.7 7.9l-3.5 7.4-3.6-7.5c-3.5-7.3-4.8-8.6-8.3-7.8zM407.3 677.9c-.9.7-3 5.1-3.1 6.5 0 .5-.4 1.2-.9 1.5-.8.6-6.3 10.7-6.3 11.6 0 1.4 6 .3 6.9-1.3 1.4-2.5 11.8-2.5 13.2.1.6 1 2.2 1.7 3.9 1.7 3 0 3.7-.8 2.1-2.6-.5-.5-2.8-4.6-5.1-9.2-2.3-4.5-4.5-8.2-4.8-8.3-3.9-.5-5.3-.5-5.9 0zm5.2 9.1c.9 1.6 1.1 3 .6 3-.5 0-1.5.2-2.3.5-2.6 1-3.9-.9-2.5-3.8 1.6-3.4 2.3-3.4 4.2.3zM428.9 677.8c-1.2.2-1.5 2.3-1.6 10.2l-.1 10h2.9c2.5 0 2.8-.4 3.1-3.7.3-3.3.6-3.8 2.8-3.8 2.3 0 7 3.7 7 5.5 0 1.2 5.6 2.9 6.8 2.1.8-.5.1-1.9-1.9-4.3-2.9-3.6-2.9-3.7-.9-4.8 3.1-1.7 2.8-8.2-.5-10-2.2-1.2-13.7-2-17.6-1.2zm14.5 5.8c.9 2.3.4 2.6-5.1 2.8-4.2.1-4.8-.2-5.1-2-.3-1.8.2-2.1 4.6-2.3 3.8-.1 5.1.3 5.6 1.5zM465 677.8c-2 .3-3.4 2.2-7 9.4-2.5 4.9-4.6 9.4-4.8 9.9-.6 1.7 5.1.9 6.4-.9 1.8-2.5 12.1-2.7 12.9-.2.7 2.2 5.4 3.3 6.2 1.4.5-1.4-8.9-19.7-10.3-20-.5 0-2 .1-3.4.4zm4 11.2c0 1.1-3.6 1.9-4.9 1.1-.8-.5-.7-1.7.5-4l1.6-3.2 1.4 2.6c.8 1.5 1.4 3.1 1.4 3.5zM491 679c-1.1 1.1-2.8 3.8-3.7 6-1 2.2-2.1 4-2.5 4-.3 0-.9 1.3-1.3 3-.4 1.6-1.1 3.2-1.6 3.5-1.6 1.1-1 2.3 1.6 2.7 1.8.4 2.9-.1 3.9-1.7 2-3 11.1-3.3 12.9-.4.8 1.2 2.3 1.9 4.4 1.9h3.2l-4.7-9.2c-2.6-5.1-5.1-9.7-5.7-10.3-1.8-1.8-4.4-1.6-6.5.5zm5 7.7c.8 1.6 1.5 3.1 1.7 3.4.3.6-5.7.2-6.4-.5-.6-.6 1.6-5.6 2.5-5.6.5 0 1.5 1.2 2.2 2.7zM513.3 677.8c-2.2.3-2.3.7-2.3 10.2 0 9.6 0 9.8 2.4 10.2 2.8.6 3.4-.3 3.1-4.5-.2-2.4.1-2.7 3-2.7 2.4 0 4 .9 6.7 3.9 2.8 3.1 4 3.8 6.1 3.4l2.6-.5-3.1-3.9-3.2-3.9 2.2-1.6c2.6-1.8 2.8-5.4.5-8.3-1.5-1.6-3.2-2.1-8.8-2.3-3.8-.2-8-.2-9.2 0zm13.7 5.7c2 2.4-1.5 3.4-8.7 2.6-.7 0-1.3-1-1.3-2 0-1.6.7-1.9 4.4-1.9 2.5 0 5 .5 5.6 1.3zM540.7 677.8c-1.5.3-1.7 1.8-1.7 10.3 0 8.1.3 9.9 1.5 10 .8 0 5.5.1 10.4.2 8.9.2 9 .2 8.9-2.3-.1-2.5-.2-2.5-7.4-2.2-6.9.3-7.4.2-7.4-1.7s.6-2.1 7-2.1c6.7 0 7-.1 7-2.4 0-2.2-.3-2.3-5.7-2.1-6.6.3-8.3-.2-8.3-2 0-.9 2.1-1.3 7.2-1.4 7.9-.1 8.7-.4 7.2-2.8-.8-1.3-2.8-1.7-9-1.7-4.4-.1-8.8 0-9.7.2zM566.8 677.8c-1.6.3-1.8 1.6-1.8 10.3v9.9h6.1l-.3-6.5c-.2-3.6 0-6.5.3-6.5s3.4 2.9 6.8 6.5c5.2 5.3 6.9 6.5 9.5 6.5h3.1l-.1-9.8c-.1-5.3-.2-10-.3-10.3 0-.3-1.2-.4-2.6-.1-2.4.4-2.5.8-2.5 6.8 0 3.5-.2 6.4-.5 6.4-.2 0-3.2-2.9-6.6-6.4-6.2-6.5-7.9-7.5-11.1-6.8zM597.5 678c-.4.7-.8 10.8-.6 16.5l.1 4 5.7-.2c12.8-.4 13.4-.6 16.2-3.3 5.1-5.1 2.6-15.1-4.1-16.5-3.9-.9-16.9-1.2-17.3-.5zm16.8 5.8c1.8 1.6 2.2 5.8.8 8.1-.6.8-3 1.4-6.7 1.5l-5.9.1-.1-5c0-2.8.1-5.3.3-5.6.6-1.3 9.8-.6 11.6.9zM629 677.9c-2.4.6-2.5.9-2.4 7.6 0 3.8.6 8 1.2 9.2 1.4 2.5 6.2 4.2 10.7 3.8 1.7-.2 4-.3 5.3-.4 1.3-.1 3.4-1.2 4.7-2.6 2.2-2.1 2.5-3.3 2.5-9.8 0-4-.2-7.6-.5-7.9-.3-.3-1.6-.3-2.9-.1-2.2.5-2.4.9-2.4 7 0 7.8-1.4 9.7-6.9 9.5-5.1-.2-6.3-2.1-6.1-9.8.1-3.5 0-6.5-.3-6.7-.2-.2-1.5-.1-2.9.2zM661 677.8c-2.5.8-5 3.4-5 5.3 0 2.9 3.9 5.7 9.6 6.9 4.9 1 7.3 2.4 6.2 3.6-.8.7-5.2.7-10.5 0-4.9-.7-5.3-.6-5.3 1.2 0 1.5.9 2.2 3.3 2.8 12.1 2.8 20.7-1 17.3-7.7-1.1-2.1-6.6-4.7-11.4-5.3-2.7-.4-3.6-1.1-2.8-2.4.6-1.1 5.1-.9 10.4.2 2.8.7 3.2.5 3.2-1.3 0-1.1-.5-2.3-1.1-2.6-1.3-.9-11.9-1.4-13.9-.7zM683 679.5c-.1 1.1-.2 5.7-.3 10.3l-.2 8.2 4.3.1c14 .3 17 0 16.8-1.6-.4-2.5-1.4-2.8-8.3-2.9-5.5-.1-6.6-.4-6.9-1.9-.2-1.5.7-1.7 6.6-1.7 5.9 0 6.8-.2 7.3-2 .7-2.7.1-2.9-7-2.6-4.3.3-6.3 0-6.7-.9-.8-2.1.4-2.5 7.9-2.5 6.4 0 7.1-.2 7.1-2 0-1.1-.5-2-1.1-2.1-.5 0-5.2-.1-10.3-.2-8.6-.2-9.2-.1-9.2 1.8zM720.9 677.4c-.1 0-.2 4.5-.3 9.9-.1 8 .1 10 1.4 10.6 2.7 1.4 4 .1 4-4v-4l6.3 4.4c5.7 3.9 8.2 4.6 12.6 3.8.3-.1-1.1-1.2-3-2.6-3.1-2.3-5-3.6-9.5-6.9-1.4-1.1-.7-1.8 4.9-5.6 3.6-2.4 6.4-4.7 6.1-5.1-.9-1.5-6.8.3-11.7 3.6l-5.2 3.5-.3-3.4c-.2-2.7-.8-3.5-2.8-3.9-1.3-.2-2.5-.4-2.5-.3zM751 677.9c-2.5.6-2.5.8-2.5 10.4 0 7.9.3 9.7 1.5 9.8 2.3.1 13.2.1 16.3 0 2.1-.1 2.7-.6 2.7-2.4 0-2.1-.4-2.2-7.2-2.2h-7.3l-.1-7.8c-.1-4.2-.3-7.9-.5-8-.2-.2-1.5-.1-2.9.2zM773.9 677.6c-.9 2.2-.3 15.3.7 16.8 3.9 5.8 20.1 5.4 22.3-.6.6-1.8.8-13.3.2-15.9 0-.3-1.1-.5-2.3-.4-2.1.1-2.3.7-2.6 7-.1 3.8-.8 7.5-1.4 8.2-1.3 1.6-9 1.7-10.6.1-.7-.7-1.2-4-1.2-7.9 0-6.3-.1-6.7-2.5-7.1-1.4-.3-2.6-.4-2.6-.2zM804.9 678.1c-.8.5-1.3 8.1-1 17.2l.1 2.9 10.5-.4c8-.2 10.8-.7 11.5-1.8 1.6-2.4 1.1-5.8-.9-7.2-1.6-1.1-1.7-1.6-.6-3.1 1.5-2.1.8-5.8-1.4-7.1-1.7-1-16.7-1.5-18.2-.5zm14.9 6c.2 1.3-.7 1.7-5.2 1.8-4.7.1-5.4-.2-5.1-1.7.2-.9.4-1.7.4-1.8h4.8c3.6.1 4.9.5 5.1 1.7zm1.2 7.9c0 1.1-.6 2-1.2 2.1-8.8.8-11.5.1-10.5-2.5.5-1.2 2-1.6 6.2-1.6 4.8 0 5.5.2 5.5 2zM831.7 678.4c-.2.6 0 2.3.4 3.8.4 1.6.5 2.8.1 2.8-.6 0-.6 5.6 0 11.7.2 1.6 3.6 2.4 4.5 1 .4-.7.8-5.3.9-10.4l.1-9.1-2.8-.4c-1.6-.3-3 0-3.2.6z"/></svg>