<svg version="1" xmlns="http://www.w3.org/2000/svg" width="1322.667" height="1322.667" viewBox="0 0 992.000000 992.000000"><path d="M181.4 110.8c-1.7 1.5-4.4 3.8-6 5.2-17.1 14.5-24.5 21.2-40.8 37.5-15.9 15.9-23.9 24.3-32.1 34-2.7 3.2-5.8 6.7-6.7 7.7-1 1-1.8 2.2-1.8 2.7s-.3 1.1-.8 1.3c-2.6 1.1-33.2 45-33.2 47.6 0 .7-.4 1.2-.9 1.2s-1.1.8-1.4 1.7c-.8 2.4-4 7.6-5.2 8.5-.7.5-.7.8 0 .8s.7.3 0 .8c-.5.4-1.8 2.3-2.7 4.2C41 281.9 36 292.8 36 294.1c0 .8-.4 1.9-.9 2.5-1 1.1-5.5 12.8-10.6 27.5-3.3 9.6-11.7 40.5-12.9 47.3-.3 1.6-1 5.2-1.5 8-.6 2.8-1.3 6.4-1.6 8.1-.2 1.6-.7 4.1-1 5.5-.3 1.4-.7 4.1-.9 6-.2 1.9-.7 5.1-1 7-.7 3.7-1.3 8.2-2.1 16.5-.3 2.7-.7 6.8-1 9-2 16.4-2.7 69.9-1.2 88 1.3 15.9 1.9 22 2.3 24.5.3 1.4.6 4.3.8 6.5.2 2.2.6 5.3.9 7 .4 1.6.9 5 1.2 7.5.5 5.1.7 5.9 4.1 22.9 2.3 11.3 7.7 33.4 9.2 37.1.3.8.6 1.7.7 2 3.5 11.5 9.6 28.3 13.1 35.8 1.3 2.9 2.4 5.5 2.4 5.8 0 .9 3.9 9.3 10.2 21.9 5.1 10.1 9.3 17.4 24.1 42 .7 1.1 1.4 2.2 1.7 2.5.4.3 2.8 3.8 5.4 7.8 2.6 4 5.3 7.8 5.9 8.5.7.6 3.7 4.6 6.8 8.7 5 6.8 7.3 9.6 17.1 21 10.4 12.2 34.9 37.1 46.8 47.6 3 2.7 6.4 5.8 7.5 6.9 1.2 1.1 4.6 4 7.5 6.5 6 4.9 9.7 8.1 14.4 12.1l2.9 2.6 5.1-5.5c2.8-3 6.5-7 8.1-8.7 1.7-1.8 6.8-7.4 11.5-12.4 4.7-5.1 10.3-11.1 12.5-13.5 4.2-4.5 21.9-23.5 27-29.1 1.7-1.8 7.7-8.3 13.5-14.5 11.6-12.4 15.6-17 15.3-17.7-.1-.3-6.1-6.6-13.5-14.2-7.3-7.6-15.8-16.6-18.8-20-3-3.4-6.4-7.2-7.5-8.4-1.1-1.2-4-4.7-6.5-7.7s-5.1-6.1-5.9-6.9c-.7-.8-3.9-4.9-7-9-3.1-4.2-5.9-7.8-6.2-8.1-.9-.7-16.9-24.8-16.9-25.4 0-.3-1.5-2.9-3.4-5.8-2.9-4.6-12.9-23.4-13.2-24.8 0-.3-1.1-2.7-2.3-5.5-5.8-13-7-16.1-11.6-30-3.3-10.3-4.2-13.4-5.9-20.5-2.1-8.9-2.7-11.8-3.1-14-.2-1.4-.9-5.2-1.5-8.5s-1.3-8.2-1.5-10.9c-.3-2.6-.7-5.6-.9-6.5-.3-.9-.8-5.4-1.2-10.1-.3-4.7-.7-10.1-.9-12-.5-5-.5-50.3 0-57.5.8-11.9 2.3-24.9 3.5-31.4.5-2.9.9-5.5.9-5.9-.1-.4 0-.9.1-1.2.1-.3.4-1.9.6-3.5.3-1.7 1.2-5.7 2.1-9 .8-3.3 1.6-6.7 1.8-7.5.2-.8 1.1-4.2 2.1-7.5s1.9-6.5 2-7c.5-2.2 5.9-17 6.4-17.5.3-.3.6-1.2.8-2 .2-.8 1-2.8 1.8-4.4.8-1.6 1.4-3.3 1.4-3.9 0-2 13.6-27.9 21.2-40.2 6.8-11.2 13.6-21.4 16.5-25 .4-.6 2.1-2.8 3.8-5 1.6-2.2 3.4-4.5 4-5.1.5-.6 2.1-2.6 3.5-4.4 1.4-1.8 3.2-4.1 4-5 .8-1 3.1-3.7 5.2-6.1 9.8-11.8 21.7-24.8 34.6-37.6 5.6-5.7 10.2-10.8 10.2-11.3s-1-2-2.2-3.2c-1.3-1.3-7-7.5-12.8-13.7-5.8-6.3-11.8-12.8-13.5-14.5-1.6-1.8-7.5-8.1-13-14.1-5.5-5.9-11.3-12.2-13-14-1.6-1.7-7.5-8-13-14-5.5-5.9-13.6-14.6-18-19.2l-8-8.3-3.1 2.8zM487.4 125.8c-8.8 9.1-17.1 17.8-18.6 19.4-1.6 1.5-2.8 3-2.8 3.3 0 .4-2 2.7-4.4 5.3-2.4 2.6-5.7 6-7.1 7.7-1.5 1.6-7.3 7.9-12.9 13.9-5.5 6-13.2 14.3-17.1 18.5-3.8 4.1-8.7 9.3-10.7 11.5-2.1 2.2-3.8 4.3-3.8 4.7 0 .4 4.6 5.4 10.3 11.1 16.7 17 30.5 32.2 39.7 43.8 1.4 1.7 3.4 4.1 4.4 5.3 3.2 3.8 18.6 24.5 18.6 25.2 0 .3 1.7 2.9 3.9 5.8 2.1 2.9 4.2 6.2 4.6 7.4.3 1.3 1.1 2.3 1.6 2.3s.9.9.9 2 .4 2 .9 2c1.1 0 11.2 19.2 16.9 32 5.5 12.4 13.9 36.2 15.6 44 .3 1.4 1 4.3 1.6 6.5 2.1 7.8 5.3 25.2 6.5 35.5.4 3 .8 6.6 1 8 2.5 19.3 2.4 64.3-.1 85.5-.9 7.4-1.2 10-1.4 10.5-.1.3-.2.9-.1 1.4.1.5-.3 3.2-.8 6-.6 2.8-1.3 6.8-1.7 9-.8 5.7-.9 6.1-4.2 19.1-1.7 6.6-3.8 13.9-4.6 16.2-.8 2.4-1.3 4.3-.9 4.3.3 0 .1.6-.4 1.2-.6.7-1.6 3.1-2.3 5.3-1.2 3.9-4.5 12.3-7.6 19.5-3.4 7.7-14.8 29.8-17.5 33.8-1.6 2.4-2.9 4.6-2.9 5.1 0 .8-17.5 26.7-19 28.1-.3.3-2.7 3.2-5.2 6.5s-5.6 7.1-6.8 8.5c-1.2 1.4-3.4 4-4.8 5.9-1.5 1.9-3.8 4.6-5.1 6-1.3 1.4-4.9 5.5-8 9-6.1 7-28.2 30.2-31.8 33.4l-2.3 2.1 6.3 6.5c6.5 7 22.5 24.2 32.4 35 3.2 3.5 7.8 8.5 10.3 11.1 2.5 2.5 6.2 6.7 8.3 9.3 2.1 2.5 8.2 9.3 13.6 14.9 5.5 5.7 12.8 13.4 16.4 17.2l6.4 6.9 5.9-4.3c6.1-4.6 8.7-6.7 14-11.5 1.8-1.7 5.9-5.2 9.1-8 7.9-6.8 42.8-41.8 48.3-48.4 2.5-3 5.2-6.2 6-7.1 5.2-5.5 26.9-34 29.1-38.2.7-1.3 1.5-2.5 1.8-2.8 1.3-1.1 5.1-7 5.1-8 0-.5.4-1 .8-1 .5 0 1.5-1.2 2.3-2.7.8-1.5 3.8-6.8 6.8-11.7 6-10.1 18.9-35.5 22.1-43.7 1.2-3 2.7-6.8 3.5-8.4 1.3-3 2.5-6.1 3.1-8 .4-1 4.7-12.8 5.7-15.5.3-.8 1.5-4.9 2.7-9 1.2-4.1 2.6-8.6 3-10 .5-1.4 1.2-3.6 1.4-5 .3-1.4 1.6-6.8 3-12 1.3-5.2 2.7-10.9 3-12.5.3-1.7.7-4.1 1.1-5.5.3-1.4.8-4.1 1.1-6 .3-1.9.7-4.2.9-5 .5-1.5 1.2-6.2 1.9-11.5 1.3-10 3.4-28.2 3.5-29.5 0-.8.4-5.3.8-10s.7-23.1.7-41c0-33-.4-40.5-3-61-.4-3-.7-6.7-.8-8.3 0-1.5-.4-2.7-.8-2.7s-.5-.6-.2-1.4c.3-.8.1-3.1-.5-5.2-.5-2.2-1.2-5.7-1.6-7.9-.6-4.4-1.6-10-2.1-12.8-1.1-5.1-1.4-6.6-2.5-11.2-.6-2.8-2.5-10-4.1-16-1.7-6.1-3.1-11.5-3.3-12-.1-.6-.5-1.7-.8-2.5-.3-.8-1.3-4-2.2-7-1-3-2-6.2-2.3-7-.3-.8-.6-1.7-.7-2-.1-.3-.7-1.8-1.3-3.3-.7-1.6-1.2-3.2-1.2-3.7 0-3.5-18.2-43-26.2-56.9-2.6-4.6-4.8-8.5-4.8-8.6 0-.5-8.3-14-8.9-14.5-.3-.3-1.2-1.7-2-3.3-.8-1.5-1.8-2.7-2.3-2.7-.4 0-.8-.9-.8-2s-.4-2-1-2c-.5 0-1.7-1.4-2.6-3.2-.9-1.8-2.3-3.8-3.1-4.6-.8-.8-2.2-2.7-3.1-4.1-.9-1.4-2-3.1-2.5-3.6-.4-.6-4.2-5.5-8.4-11s-8.1-10.5-8.7-11.1c-.6-.7-2.7-3.1-4.6-5.5-6.2-7.7-14.1-16.1-30-31.9-16.7-16.7-22.7-22.1-39.2-35.3l-10.6-8.6-15.8 16.7zM820.5 342c-.2.3-.2 6.7-.1 14.3 0 7.7-.2 14.1-.6 14.3-.4.3-.4 1.5 0 2.7.6 1.9.8 13.8.3 24.2-.1 1.6 0 4.1.2 5.5.2 1.4 0 3.3-.5 4.2-.4.9-.5 1.9-.1 2.1.7.4.9 25 .4 36.2-.1 1.6 0 4.1.2 5.5.2 1.4 0 3.2-.5 4.1-.4.9-.4 1.9-.1 2.3.8.8 1 31.2.2 35.3-.4 1.8-.4 3.1 0 2.8.4-.2.6 1.8.5 4.5l-.3 5H992V341.5h-85.6c-47.1 0-85.7.2-85.9.5zM820.9 630.1c-1 .6-2.4 7.5-3.4 16.4-.3 3.3-.8 6.7-1.1 7.5-.2.8-.6 3.3-.9 5.5-.3 2.2-.7 5.1-1 6.4-.2 1.3-.7 4.9-1.1 8-.3 3.1-.8 5.8-.9 6.1-.2.3-.6 3.4-1 7s-.9 7.4-1.1 8.5c-.6 2.8-1.3 7.2-1.9 12.5-.3 2.5-.7 5.6-1 7-.3 1.4-.8 4.5-1.1 7-.6 4.6-1.1 8-1.9 12.7-.2 1.6-.7 4.8-1 7.3-.4 2.5-.8 5.6-1 7-.2 1.4-.6 4.3-.9 6.5-.3 2.2-.8 5.6-1.1 7.5-.2 1.9-.7 5.1-1 7-.3 1.9-.7 5.1-1 7-.3 1.9-.8 5.5-1.2 8-.6 5.1-1.1 7.5-1.3 7.5-.1 0-.3 2-.4 4.5-.2 2.5-.6 5.8-.9 7.5-.9 4.2-1.8 9.5-2.2 13-.2 1.6-.5 4.3-.8 6-.3 1.6-.8 5-1.1 7.5-.3 2.5-.8 5.4-1 6.5-.2 1.1-.7 4.2-1 7-.4 2.7-.9 6.1-1.1 7.5-.2 1.4-.6 4.5-1 7-.9 6.1-1.4 9.5-2 12.7-.2 1.6-.7 5.2-1 8l-.6 5.3h69.6c38.2 0 69.5-.2 69.5-.5s1-4.2 5.6-22.5c.2-.8 1.1-4.2 1.9-7.5.9-3.3 1.7-6.7 2-7.5.2-.8 1.7-6.9 3.5-13.5 1.7-6.6 3.3-12.8 3.5-13.8.2-1 1.8-7.3 3.5-14 1.8-6.7 3.4-13 3.6-14 .2-.9.6-2.5.9-3.5.2-.9 2-7.9 3.9-15.5 1.9-7.5 3.7-14.1 4-14.5.2-.4.7-2.3 1-4.2.3-1.9 1-5.1 1.6-7 .6-1.9 1.3-4.4 1.5-5.5.3-1.1 1.3-5.4 2.4-9.5 1.1-4.1 3.6-13.8 5.6-21.5 3.5-13.5 4-15.4 4.9-19.3.2-.9 3.8-15 8-31.1 4.1-16.2 7.3-29.7 7.1-30-.7-.6-164.5-.7-165.6 0z"/></svg>