<?xml version="1.0" encoding="UTF-8" standalone="no"?>
<!-- Created with Inkscape (http://www.inkscape.org/) -->

<svg
   xmlns:dc="http://purl.org/dc/elements/1.1/"
   xmlns:cc="http://creativecommons.org/ns#"
   xmlns:rdf="http://www.w3.org/1999/02/22-rdf-syntax-ns#"
   xmlns:svg="http://www.w3.org/2000/svg"
   xmlns="http://www.w3.org/2000/svg"
   xmlns:sodipodi="http://sodipodi.sourceforge.net/DTD/sodipodi-0.dtd"
   xmlns:inkscape="http://www.inkscape.org/namespaces/inkscape"
   width="74.998787mm"
   height="37.499393mm"
   viewBox="0 0 74.998787 37.499393"
   version="1.1"
   id="svg4583"
   inkscape:version="0.92.2 2405546, 2018-03-11"
   sodipodi:docname="lap_logo.svg">
  <defs
     id="defs4577" />
  <sodipodi:namedview
     id="base"
     pagecolor="#ffffff"
     bordercolor="#666666"
     borderopacity="1.0"
     inkscape:pageopacity="0.0"
     inkscape:pageshadow="2"
     inkscape:zoom="0.35"
     inkscape:cx="172.99649"
     inkscape:cy="660.68024"
     inkscape:document-units="mm"
     inkscape:current-layer="layer1"
     showgrid="false"
     inkscape:window-width="1366"
     inkscape:window-height="741"
     inkscape:window-x="0"
     inkscape:window-y="27"
     inkscape:window-maximized="1"
     fit-margin-top="0"
     fit-margin-left="0"
     fit-margin-right="0"
     fit-margin-bottom="0" />
  <metadata
     id="metadata4580">
    <rdf:RDF>
      <cc:Work
         rdf:about="">
        <dc:format>image/svg+xml</dc:format>
        <dc:type
           rdf:resource="http://purl.org/dc/dcmitype/StillImage" />
        <dc:title></dc:title>
      </cc:Work>
    </rdf:RDF>
  </metadata>
  <g
     inkscape:label="Layer 1"
     inkscape:groupmode="layer"
     id="layer1"
     transform="translate(0,-259.50061)">
    <rect
       class="cls-3"
       x="0"
       y="259.50061"
       width="74.998787"
       height="37.499393"
       id="rect390"
       style="fill:none;stroke-width:0.26458332" />
    <path
       inkscape:connector-curvature="0"
       class="cls-4"
       d="m 12.369268,286.62569 v -5.52979 h 1.49225 v 4.318 h 4.037542 v 1.21179 z"
       id="path392"
       style="fill:#1a181b;fill-opacity:1;stroke-width:0.26458332" />
    <path
       inkscape:connector-curvature="0"
       class="cls-4"
       d="m 23.534685,285.58059 h -3.07975 l -0.529167,1.05833 h -1.666875 l 2.894542,-5.52979 h 1.666875 l 2.891896,5.52979 h -1.666875 z m -2.547938,-1.0795 h 2.018771 l -1.005416,-2.03729 z"
       id="path394"
       style="fill:#1a181b;fill-opacity:1;stroke-width:0.26458332" />
    <path
       inkscape:connector-curvature="0"
       class="cls-4"
       d="m 32.509351,282.98502 a 2.3124583,2.3124583 0 0 1 -0.121709,0.762 1.4737292,1.4737292 0 0 1 -0.388937,0.60061 1.8362083,1.8362083 0 0 1 -0.693209,0.39158 3.3311042,3.3311042 0 0 1 -1.037166,0.14023 h -2.479146 v 1.74625 h -1.492249 v -5.52979 h 3.968749 a 3.3787292,3.3787292 0 0 1 1.037167,0.13758 1.8176875,1.8176875 0 0 1 0.693208,0.39159 1.476375,1.476375 0 0 1 0.388937,0.59795 2.2965833,2.2965833 0 0 1 0.124355,0.762 z m -1.508125,0.0238 a 0.9128125,0.9128125 0 0 0 -0.05556,-0.33073 0.49741667,0.49741667 0 0 0 -0.179917,-0.22754 0.87047917,0.87047917 0 0 0 -0.325437,-0.12964 2.4579792,2.4579792 0 0 0 -0.494771,-0.0423 h -2.156354 v 1.42346 h 2.148417 a 3.0136042,3.0136042 0 0 0 0.49477,-0.0344 0.84402083,0.84402083 0 0 0 0.325438,-0.11642 0.46566667,0.46566667 0 0 0 0.179917,-0.21431 0.86254167,0.86254167 0 0 0 0.05821,-0.32809 z"
       id="path396"
       style="fill:#1a181b;fill-opacity:1;stroke-width:0.26458332" />
    <path
       inkscape:connector-curvature="0"
       class="cls-4"
       d="m 33.744955,286.62569 v -5.52979 h 1.484312 v 5.52979 z"
       id="path398"
       style="fill:#1a181b;fill-opacity:1;stroke-width:0.26458332" />
    <path
       inkscape:connector-curvature="0"
       class="cls-4"
       d="m 38.470413,283.20727 3.058583,-2.11666 h 2.00025 l -3.722687,2.64583 3.96875,2.87602 h -2.177521 l -3.130021,-2.29658 v 2.29658 H 36.96758 v -5.52979 h 1.500187 z"
       id="path400"
       style="fill:#1a181b;fill-opacity:1;stroke-width:0.26458332" />
    <path
       inkscape:connector-curvature="0"
       class="cls-4"
       d="m 50.961392,285.54355 a 1.8811875,1.8811875 0 0 1 -0.616479,0.64029 3.3575625,3.3575625 0 0 1 -1.023937,0.43127 6.57225,6.57225 0 0 1 -2.873375,0 3.349625,3.349625 0 0 1 -1.02923,-0.43127 1.8838333,1.8838333 0 0 1 -0.616479,-0.64029 1.571625,1.571625 0 0 1 -0.206375,-0.79375 v -3.65125 h 1.481667 v 3.13002 a 1.9102917,1.9102917 0 0 0 0.07144,0.52916 0.9445625,0.9445625 0 0 0 0.264584,0.43392 1.3678958,1.3678958 0 0 0 0.547687,0.29369 3.175,3.175 0 0 0 0.915459,0.10848 3.1406042,3.1406042 0 0 0 0.910166,-0.10848 1.3705417,1.3705417 0 0 0 0.545042,-0.29369 0.93133333,0.93133333 0 0 0 0.264583,-0.43392 1.9605625,1.9605625 0 0 0 0.06879,-0.52916 v -3.13002 h 1.49225 v 3.66447 a 1.571625,1.571625 0 0 1 -0.195792,0.78053 z"
       id="path402"
       style="fill:#1a181b;fill-opacity:1;stroke-width:0.26458332" />
    <path
       inkscape:connector-curvature="0"
       class="cls-4"
       d="m 59.306351,283.85815 a 3.4739792,3.4739792 0 0 1 -0.116417,0.94456 2.4050625,2.4050625 0 0 1 -0.328083,0.71702 2.1166667,2.1166667 0 0 1 -0.508,0.52917 2.6114375,2.6114375 0 0 1 -0.658813,0.34131 3.937,3.937 0 0 1 -0.79375,0.18786 6.302375,6.302375 0 0 1 -0.873125,0.0582 H 52.52508 v -5.5298 h 3.500437 a 6.3235417,6.3235417 0 0 1 0.873125,0.0582 4.0031458,4.0031458 0 0 1 0.79375,0.18786 2.6908125,2.6908125 0 0 1 0.661459,0.34131 2.0584583,2.0584583 0 0 1 0.508,0.52917 2.4368125,2.4368125 0 0 1 0.328083,0.71702 3.4395833,3.4395833 0 0 1 0.116417,0.9181 z m -1.50548,0 a 2.1007917,2.1007917 0 0 0 -0.103187,-0.69321 1.0927292,1.0927292 0 0 0 -0.330729,-0.48419 1.4869583,1.4869583 0 0 0 -0.592667,-0.28575 3.6247917,3.6247917 0 0 0 -0.894292,-0.0952 h -1.852083 v 3.12209 h 1.852083 a 3.6168542,3.6168542 0 0 0 0.894292,-0.0953 1.4552083,1.4552083 0 0 0 0.592667,-0.2884 1.1191875,1.1191875 0 0 0 0.330729,-0.48948 2.1007917,2.1007917 0 0 0 0.09525,-0.69056 z"
       id="path404"
       style="fill:#1a181b;fill-opacity:1;stroke-width:0.26458332" />
    <path
       inkscape:connector-curvature="0"
       class="cls-4"
       d="m 13.29531,288.83761 v 1.12448 h -0.388938 v -1.12448 h -0.608541 v -0.31221 h 1.608666 v 0.31221 z"
       id="path406"
       style="fill:#1a181b;fill-opacity:1;stroke-width:0.26458332" />
    <path
       inkscape:connector-curvature="0"
       class="cls-4"
       d="m 14.967477,288.83761 v 1.12448 h -0.375709 v -1.12448 h -0.608541 v -0.31221 h 1.608666 v 0.31221 z"
       id="path408"
       style="fill:#1a181b;fill-opacity:1;stroke-width:0.26458332" />
    <path
       inkscape:connector-curvature="0"
       class="cls-4"
       d="m 17.478372,289.68163 a 0.48947917,0.48947917 0 0 1 -0.15875,0.16669 0.87047917,0.87047917 0 0 1 -0.264583,0.11112 1.7118542,1.7118542 0 0 1 -0.746125,0 0.86783333,0.86783333 0 0 1 -0.264583,-0.11112 0.48947917,0.48947917 0 0 1 -0.15875,-0.16669 0.41010417,0.41010417 0 0 1 -0.05292,-0.20373 v -0.9525 h 0.386292 v 0.81492 a 0.49741667,0.49741667 0 0 0 0.01852,0.13758 0.24341667,0.24341667 0 0 0 0.06879,0.11113 0.3571875,0.3571875 0 0 0 0.142875,0.0767 0.8255,0.8255 0 0 0 0.238125,0.0291 0.81491667,0.81491667 0 0 0 0.235479,-0.0291 0.3571875,0.3571875 0 0 0 0.142875,-0.0767 0.24341667,0.24341667 0 0 0 0.06879,-0.11113 0.508,0.508 0 0 0 0.01852,-0.13758 v -0.81492 h 0.388937 v 0.96573 a 0.41010417,0.41010417 0 0 1 -0.0635,0.1905 z m -1.203854,-1.30969 v -0.32544 h 0.325438 v 0.32544 z m 0.484188,0 v -0.32544 h 0.325437 v 0.32544 z"
       id="path410"
       style="fill:#1a181b;fill-opacity:1;stroke-width:0.26458332" />
    <path
       inkscape:connector-curvature="0"
       class="cls-4"
       d="m 19.579164,288.83761 v 1.12448 h -0.388937 v -1.12448 h -0.608542 v -0.31221 h 1.608667 v 0.31221 z"
       id="path412"
       style="fill:#1a181b;fill-opacity:1;stroke-width:0.26458332" />
    <path
       inkscape:connector-curvature="0"
       class="cls-4"
       d="m 21.521206,289.69221 h -0.79375 l -0.134938,0.26459 h -0.4445 l 0.751417,-1.43669 h 0.433917 l 0.751416,1.43669 h -0.428625 z m -0.661459,-0.28046 h 0.529167 l -0.264583,-0.52916 z"
       id="path414"
       style="fill:#1a181b;fill-opacity:1;stroke-width:0.26458332" />
    <path
       inkscape:connector-curvature="0"
       class="cls-4"
       d="m 22.711831,289.96209 h -0.388938 v -1.43669 h 0.973667 a 0.94720833,0.94720833 0 0 1 0.264583,0.0318 0.47095833,0.47095833 0 0 1 0.177271,0.0926 0.34395833,0.34395833 0 0 1 0.100542,0.14288 0.54239583,0.54239583 0 0 1 0.03175,0.18785 0.44979167,0.44979167 0 0 1 -0.02646,0.15875 0.37041667,0.37041667 0 0 1 -0.06879,0.11642 0.41010417,0.41010417 0 0 1 -0.100542,0.082 0.68791667,0.68791667 0 0 1 -0.121708,0.0556 l 0.470958,0.56885 h -0.455083 l -0.433917,-0.52917 h -0.423333 z m 0.767291,-0.98425 a 0.20372917,0.20372917 0 0 0 0,-0.0714 0.09789583,0.09789583 0 0 0 -0.03704,-0.0476 0.19314583,0.19314583 0 0 0 -0.07144,-0.0265 0.64558333,0.64558333 0 0 0 -0.113771,0 h -0.529166 v 0.30691 h 0.529166 a 0.63235417,0.63235417 0 0 0 0.113771,0 0.19314583,0.19314583 0 0 0 0.07144,-0.0265 0.09789583,0.09789583 0 0 0 0.03704,-0.0476 0.206375,0.206375 0 0 0 0,-0.0847 z"
       id="path416"
       style="fill:#1a181b;fill-opacity:1;stroke-width:0.26458332" />
    <path
       inkscape:connector-curvature="0"
       class="cls-4"
       d="m 24.690914,289.07309 0.79375,-0.54769 h 0.529167 l -0.968375,0.68792 1.031875,0.74877 h -0.566209 l -0.81227,-0.59796 v 0.59796 h -0.396875 v -1.43669 h 0.388937 z"
       id="path418"
       style="fill:#1a181b;fill-opacity:1;stroke-width:0.26458332" />
    <path
       inkscape:connector-curvature="0"
       class="cls-4"
       d="M 27.260017,289.96209 H 26.80758 l -0.727603,-1.43669 h 0.433915 l 0.529167,1.08215 0.529167,-1.08215 h 0.433916 z"
       id="path420"
       style="fill:#1a181b;fill-opacity:1;stroke-width:0.26458332" />
    <path
       inkscape:connector-curvature="0"
       class="cls-4"
       d="m 29.321121,289.69221 h -0.79375 l -0.134937,0.26459 h -0.439208 l 0.751416,-1.43669 h 0.439209 l 0.751416,1.43669 h -0.433916 z m -0.661458,-0.28046 h 0.529167 l -0.264584,-0.52916 z"
       id="path422"
       style="fill:#1a181b;fill-opacity:1;stroke-width:0.26458332" />
    <path
       inkscape:connector-curvature="0"
       class="cls-4"
       d="m 30.514392,289.96209 h -0.388937 v -1.43669 h 0.973666 a 0.94720833,0.94720833 0 0 1 0.264584,0.0318 0.47095833,0.47095833 0 0 1 0.177271,0.0926 0.34395833,0.34395833 0 0 1 0.100541,0.14288 0.54239583,0.54239583 0 0 1 0.03175,0.18785 0.44979167,0.44979167 0 0 1 -0.02646,0.15875 0.37041667,0.37041667 0 0 1 -0.06879,0.11642 0.41010417,0.41010417 0 0 1 -0.100541,0.082 0.68791667,0.68791667 0 0 1 -0.121709,0.0556 l 0.470959,0.56885 h -0.455084 l -0.433916,-0.52917 h -0.423334 z m 0.767292,-0.98425 a 0.20372917,0.20372917 0 0 0 0,-0.0714 0.09789583,0.09789583 0 0 0 -0.03704,-0.0476 0.19314583,0.19314583 0 0 0 -0.07144,-0.0265 0.64558333,0.64558333 0 0 0 -0.113771,0 h -0.529167 v 0.30691 h 0.529167 a 0.63235417,0.63235417 0 0 0 0.113771,0 0.19314583,0.19314583 0 0 0 0.07144,-0.0265 0.09789583,0.09789583 0 0 0 0.03704,-0.0476 0.206375,0.206375 0 0 0 -0.0026,-0.0847 z"
       id="path424"
       style="fill:#1a181b;fill-opacity:1;stroke-width:0.26458332" />
    <path
       inkscape:connector-curvature="0"
       class="cls-4"
       d="m 33.258121,289.69221 h -0.79375 l -0.134937,0.26459 h -0.433917 l 0.751417,-1.43669 h 0.433917 l 0.751416,1.43669 h -0.433916 z m -0.674687,-0.28046 h 0.529167 l -0.264584,-0.52916 z"
       id="path426"
       style="fill:#1a181b;fill-opacity:1;stroke-width:0.26458332" />
    <path
       inkscape:connector-curvature="0"
       class="cls-4"
       d="m 35.229267,289.69221 h -0.79375 l -0.134937,0.26459 h -0.433917 l 0.751417,-1.43669 h 0.433916 l 0.751417,1.43669 h -0.433917 z m -0.661458,-0.28046 h 0.529167 l -0.264584,-0.52916 z"
       id="path428"
       style="fill:#1a181b;fill-opacity:1;stroke-width:0.26458332" />
    <path
       inkscape:connector-curvature="0"
       class="cls-4"
       d="m 36.406663,289.96209 h -0.383646 v -1.43669 h 0.973667 a 0.94720833,0.94720833 0 0 1 0.264583,0.0318 0.47095833,0.47095833 0 0 1 0.177271,0.0926 0.34395833,0.34395833 0 0 1 0.100542,0.14288 0.54239583,0.54239583 0 0 1 0.03175,0.18785 0.44979167,0.44979167 0 0 1 -0.02646,0.15875 0.37041667,0.37041667 0 0 1 -0.06879,0.11642 0.41010417,0.41010417 0 0 1 -0.100542,0.082 0.68791667,0.68791667 0 0 1 -0.121708,0.0556 l 0.470958,0.56885 h -0.457729 l -0.433917,-0.52916 h -0.423333 z m 0.767292,-0.98425 a 0.20372917,0.20372917 0 0 0 0,-0.0714 0.09789583,0.09789583 0 0 0 -0.03704,-0.0476 0.19314583,0.19314583 0 0 0 -0.07144,-0.0265 0.64558333,0.64558333 0 0 0 -0.113771,0 h -0.529167 v 0.30691 h 0.529167 a 0.63235417,0.63235417 0 0 0 0.113771,0 0.19314583,0.19314583 0 0 0 0.07144,-0.0265 0.09789583,0.09789583 0 0 0 0.03704,-0.0476 0.206375,0.206375 0 0 0 0,-0.0847 z"
       id="path430"
       style="fill:#1a181b;fill-opacity:1;stroke-width:0.26458332" />
    <path
       inkscape:connector-curvature="0"
       class="cls-4"
       d="m 37.996809,289.96209 v -1.43669 h 1.465792 v 0.30692 h -1.058334 v 0.23812 h 1.002771 v 0.30692 h -1.002771 v 0.28046 h 1.058334 v 0.30691 z"
       id="path432"
       style="fill:#1a181b;fill-opacity:1;stroke-width:0.26458332" />
    <path
       inkscape:connector-curvature="0"
       class="cls-4"
       d="m 41.198267,289.96209 -0.968375,-0.9869 v 0.9869 h -0.388937 v -1.43669 h 0.415396 l 0.97102,0.99219 v -0.99219 h 0.386292 v 1.43669 z"
       id="path434"
       style="fill:#1a181b;fill-opacity:1;stroke-width:0.26458332" />
    <path
       inkscape:connector-curvature="0"
       class="cls-4"
       d="m 43.828226,289.24242 a 0.904875,0.904875 0 0 1 -0.02911,0.24606 0.6270625,0.6270625 0 0 1 -0.08467,0.18786 0.55033333,0.55033333 0 0 1 -0.132292,0.13494 0.67997917,0.67997917 0 0 1 -0.171979,0.09 1.0345208,1.0345208 0 0 1 -0.203729,0.0476 1.6483542,1.6483542 0 0 1 -0.227542,0.0159 h -0.912812 v -1.43669 h 0.910166 a 1.6271875,1.6271875 0 0 1 0.227542,0.0159 1.0345208,1.0345208 0 0 1 0.203729,0.0476 0.6985,0.6985 0 0 1 0.171979,0.0873 0.52916667,0.52916667 0 0 1 0.132292,0.13493 0.63764583,0.63764583 0 0 1 0.08467,0.18786 0.89429167,0.89429167 0 0 1 0.03175,0.24077 z m -0.391584,0 a 0.5476875,0.5476875 0 0 0 -0.02646,-0.17992 0.28310417,0.28310417 0 0 0 -0.08467,-0.127 0.38629167,0.38629167 0 0 0 -0.153458,-0.0741 0.93927083,0.93927083 0 0 0 -0.232833,-0.0238 h -0.481542 v 0.81228 h 0.481542 a 0.94720833,0.94720833 0 0 0 0.232833,-0.0238 0.37835417,0.37835417 0 0 0 0.153458,-0.0741 0.29104167,0.29104167 0 0 0 0.08467,-0.127 0.5476875,0.5476875 0 0 0 0.02117,-0.18257 z"
       id="path436"
       style="fill:#1a181b;fill-opacity:1;stroke-width:0.26458332" />
    <path
       inkscape:connector-curvature="0"
       class="cls-4"
       d="m 45.812601,289.68163 a 0.48947917,0.48947917 0 0 1 -0.15875,0.16669 0.87047917,0.87047917 0 0 1 -0.264584,0.11112 1.7118542,1.7118542 0 0 1 -0.746125,0 0.86783333,0.86783333 0 0 1 -0.264583,-0.11112 0.48947917,0.48947917 0 0 1 -0.15875,-0.16669 0.41010417,0.41010417 0 0 1 -0.05292,-0.20373 v -0.9525 h 0.386292 v 0.81492 a 0.49741667,0.49741667 0 0 0 0.01852,0.13758 0.24341667,0.24341667 0 0 0 0.06879,0.11113 0.3571875,0.3571875 0 0 0 0.142875,0.0767 0.8255,0.8255 0 0 0 0.238125,0.0291 0.81491667,0.81491667 0 0 0 0.23548,-0.0291 0.3571875,0.3571875 0 0 0 0.142875,-0.0767 0.24341667,0.24341667 0 0 0 0.06879,-0.11113 0.508,0.508 0 0 0 0.01852,-0.13758 v -0.81492 h 0.388938 v 0.96573 a 0.41010417,0.41010417 0 0 1 -0.0635,0.1905 z"
       id="path438"
       style="fill:#1a181b;fill-opacity:1;stroke-width:0.26458332" />
    <path
       inkscape:connector-curvature="0"
       class="cls-4"
       d="m 47.640871,288.93021 -0.108479,-0.045 a 1.5875,1.5875 0 0 0 -0.150812,-0.0476 1.7409583,1.7409583 0 0 0 -0.185209,-0.037 1.3546667,1.3546667 0 0 0 -0.203729,-0.0159 h -0.142875 l -0.100541,0.0132 -0.0635,0.0185 -0.03704,0.0212 a 0.0555625,0.0555625 0 0 0 -0.01588,0.0238 0.06879167,0.06879167 0 0 0 0,0.0212 0.06879167,0.06879167 0 0 0 0.03175,0.0556 0.3095625,0.3095625 0 0 0 0.08467,0.0423 l 0.127,0.0344 0.153458,0.0344 0.166687,0.037 c 0.05821,0.0132 0.113771,0.0291 0.166688,0.0476 a 1.1879792,1.1879792 0 0 1 0.153458,0.0635 0.59002083,0.59002083 0 0 1 0.127,0.0847 0.365125,0.365125 0 0 1 0.08467,0.11113 0.31485417,0.31485417 0 0 1 0.03175,0.14287 0.396875,0.396875 0 0 1 -0.03704,0.17727 0.381,0.381 0 0 1 -0.0979,0.12436 0.492125,0.492125 0 0 1 -0.142875,0.082 0.98160417,0.98160417 0 0 1 -0.169333,0.0476 1.3996458,1.3996458 0 0 1 -0.179917,0.0212 h -0.171979 a 2.0822708,2.0822708 0 0 1 -0.394229,-0.0344 1.9737917,1.9737917 0 0 1 -0.320146,-0.0873 v -0.34396 a 1.3229167,1.3229167 0 0 0 0.328084,0.12435 1.6457083,1.6457083 0 0 0 0.391583,0.045 1.2647083,1.2647083 0 0 0 0.201083,0 0.49477083,0.49477083 0 0 0 0.121709,-0.0344 0.14022917,0.14022917 0 0 0 0.06085,-0.045 0.08466667,0.08466667 0 0 0 0.01588,-0.045 0.07672917,0.07672917 0 0 0 -0.03175,-0.0609 0.29104167,0.29104167 0 0 0 -0.08467,-0.045 1.0795,1.0795 0 0 0 -0.127,-0.0344 l -0.153458,-0.0318 -0.166688,-0.0344 q -0.08467,-0.0185 -0.166687,-0.045 a 1.23825,1.23825 0 0 1 -0.153459,-0.0609 0.55827083,0.55827083 0 0 1 -0.127,-0.0794 0.35189583,0.35189583 0 0 1 -0.08467,-0.10848 0.30691667,0.30691667 0 0 1 -0.03175,-0.14287 0.3730625,0.3730625 0 0 1 0.0344,-0.16404 0.3571875,0.3571875 0 0 1 0.08996,-0.11642 0.47625,0.47625 0 0 1 0.132292,-0.0794 0.87577083,0.87577083 0 0 1 0.15875,-0.0476 1.3387917,1.3387917 0 0 1 0.166687,-0.0238 h 0.161396 q 0.08467,0 0.171979,0 l 0.174625,0.0238 0.166688,0.0344 0.148166,0.0423 z"
       id="path440"
       style="fill:#1a181b;fill-opacity:1;stroke-width:0.26458332" />
    <path
       inkscape:connector-curvature="0"
       class="cls-4"
       d="m 48.127705,289.96209 v -1.43669 h 1.455208 v 0.30692 H 48.52458 v 0.23812 h 0.992187 v 0.30692 h -1.002771 v 0.28046 h 1.058334 v 0.30691 z"
       id="path442"
       style="fill:#1a181b;fill-opacity:1;stroke-width:0.26458332" />
    <path
       inkscape:connector-curvature="0"
       class="cls-4"
       d="m 51.167767,289.07309 0.79375,-0.54769 h 0.529167 l -0.968375,0.68792 1.031875,0.74877 h -0.566208 l -0.814917,-0.59796 v 0.59796 h -0.388938 v -1.43669 h 0.388938 z"
       id="path444"
       style="fill:#1a181b;fill-opacity:1;stroke-width:0.26458332" />
    <path
       inkscape:connector-curvature="0"
       class="cls-4"
       d="m 52.771142,289.96209 v -1.43669 h 0.388938 v 1.12183 h 1.058333 v 0.31486 z"
       id="path446"
       style="fill:#1a181b;fill-opacity:1;stroke-width:0.26458332" />
    <path
       inkscape:connector-curvature="0"
       class="cls-4"
       d="m 56.160455,289.68163 a 0.48683333,0.48683333 0 0 1 -0.15875,0.16669 0.873125,0.873125 0 0 1 -0.264584,0.11112 1.7118542,1.7118542 0 0 1 -0.746125,0 0.87047917,0.87047917 0 0 1 -0.264583,-0.11112 0.48683333,0.48683333 0 0 1 -0.15875,-0.16669 0.40745833,0.40745833 0 0 1 -0.05292,-0.20373 v -0.9525 h 0.386292 v 0.81492 a 0.49741667,0.49741667 0 0 0 0.01852,0.13758 0.24341667,0.24341667 0 0 0 0.06879,0.11113 0.3571875,0.3571875 0 0 0 0.142875,0.0767 0.8255,0.8255 0 0 0 0.238125,0.0291 0.81491667,0.81491667 0 0 0 0.235479,-0.0291 0.3571875,0.3571875 0 0 0 0.142875,-0.0767 0.24077083,0.24077083 0 0 0 0.06879,-0.11113 0.508,0.508 0 0 0 0.01852,-0.13758 v -0.81492 h 0.388938 v 0.96573 a 0.40745833,0.40745833 0 0 1 -0.0635,0.1905 z"
       id="path448"
       style="fill:#1a181b;fill-opacity:1;stroke-width:0.26458332" />
    <path
       inkscape:connector-curvature="0"
       class="cls-4"
       d="m 58.292996,289.56786 a 0.43127083,0.43127083 0 0 1 -0.02117,0.14552 0.32279167,0.32279167 0 0 1 -0.06085,0.10583 0.30691667,0.30691667 0 0 1 -0.09525,0.0714 0.56091667,0.56091667 0 0 1 -0.121709,0.045 0.90752083,0.90752083 0 0 1 -0.142875,0.0212 h -0.156104 -1.034521 v -1.43669 h 1.023938 0.124354 a 0.762,0.762 0 0 1 0.119062,0.0185 0.4841875,0.4841875 0 0 1 0.105834,0.0397 0.28839583,0.28839583 0 0 1 0.08467,0.0662 0.29104167,0.29104167 0 0 1 0.05556,0.0979 0.4048125,0.4048125 0 0 1 0.02117,0.13494 0.333375,0.333375 0 0 1 -0.06879,0.22225 0.3571875,0.3571875 0 0 1 -0.216958,0.10848 0.746125,0.746125 0 0 1 0.179916,0.0318 0.33866667,0.33866667 0 0 1 0.121709,0.0661 0.26458333,0.26458333 0 0 1 0.06879,0.10318 0.4206875,0.4206875 0 0 1 0.01323,0.15875 z m -0.484187,-0.6059 a 0.16404167,0.16404167 0 0 0 0,-0.0529 0.09789583,0.09789583 0 0 0 -0.03175,-0.0423 0.16404167,0.16404167 0 0 0 -0.05821,-0.0291 0.3413125,0.3413125 0 0 0 -0.09525,0 h -0.5715 v 0.26459 h 0.5715 a 0.37041667,0.37041667 0 0 0 0.09525,0 0.16139583,0.16139583 0 0 0 0.05821,-0.0291 0.09260417,0.09260417 0 0 0 0.03175,-0.0423 0.16404167,0.16404167 0 0 0 0,-0.0688 z m 0.08996,0.56886 a 0.16139583,0.16139583 0 0 0 -0.01587,-0.0794 0.10847917,0.10847917 0 0 0 -0.05292,-0.045 0.28575,0.28575 0 0 0 -0.0926,-0.0212 h -0.134937 -0.560917 v 0.30427 h 0.560917 0.134937 a 0.26458333,0.26458333 0 0 0 0.0926,-0.0212 0.111125,0.111125 0 0 0 0.05292,-0.0476 0.16139583,0.16139583 0 0 0 0.01587,-0.0979 z"
       id="path450"
       style="fill:#1a181b;fill-opacity:1;stroke-width:0.26458332" />
    <path
       inkscape:connector-curvature="0"
       class="cls-4"
       d="m 58.644892,289.96209 v -1.43669 h 0.396875 v 1.43669 z"
       id="path452"
       style="fill:#1a181b;fill-opacity:1;stroke-width:0.26458332" />
    <path
       inkscape:connector-curvature="0"
       class="cls-4"
       d="m 9.9986025,274.25907 a 6.4320208,6.4320208 0 0 0 0.1349365,1.3626 5.2678542,5.2678542 0 0 0 0.41275,1.19592 6.1330417,6.1330417 0 0 0 0.703792,1.11125 11.395604,11.395604 0 0 0 1.013354,1.11125 l -1.640417,1.76741 a 10.847917,10.847917 0 0 1 -1.3229155,-1.24618 7.6543958,7.6543958 0 0 1 -1.0318747,-1.4605 7.3765833,7.3765833 0 0 1 -0.672042,-1.74361 9.3794792,9.3794792 0 0 1 0,-4.19894 7.3792292,7.3792292 0 0 1 0.645583,-1.7436 7.5512083,7.5512083 0 0 1 1.0318747,-1.45785 11.522604,11.522604 0 0 1 1.3229165,-1.25148 l 1.643062,1.77006 a 11.377083,11.377083 0 0 0 -1.013354,1.11125 6.1330417,6.1330417 0 0 0 -0.703791,1.11125 5.2705,5.2705 0 0 0 -0.41275,1.19592 6.4320208,6.4320208 0 0 0 -0.1111245,1.36525 z"
       id="path454"
       style="fill:#1a181b;fill-opacity:1;stroke-width:0.26458332" />
    <path
       inkscape:connector-curvature="0"
       class="cls-2"
       d="m 15.427852,279.68832 v -10.90877 h 2.947458 v 8.51958 h 7.963958 v 2.38125 z"
       id="path456"
       style="fill:#f0941d;fill-opacity:1;stroke-width:0.26458332" />
    <path
       inkscape:connector-curvature="0"
       class="cls-2"
       d="m 37.459705,277.62457 h -6.085417 l -1.023937,2.06375 h -3.28348 l 5.707063,-10.90877 h 3.286125 l 5.707062,10.90877 h -3.283479 z m -5.027084,-2.11667 h 3.987271 l -1.984375,-4.0296 z"
       id="path458"
       style="fill:#f0941d;fill-opacity:1;stroke-width:0.26458332" />
    <path
       inkscape:connector-curvature="0"
       class="cls-2"
       d="m 55.816496,272.50223 a 4.5667083,4.5667083 0 0 1 -0.238125,1.50548 2.9104167,2.9104167 0 0 1 -0.769937,1.19592 3.6300833,3.6300833 0 0 1 -1.370542,0.77523 6.5854792,6.5854792 0 0 1 -2.047875,0.27781 h -4.886854 v 3.43958 h -2.944812 v -10.9167 h 7.836958 a 6.6701458,6.6701458 0 0 1 2.047875,0.26458 3.5903958,3.5903958 0 0 1 1.370542,0.76994 2.9104167,2.9104167 0 0 1 0.767291,1.18004 4.5349583,4.5349583 0 0 1 0.235479,1.50812 z m -2.976562,0.0476 a 1.793875,1.793875 0 0 0 -0.108479,-0.65617 0.9763125,0.9763125 0 0 0 -0.351896,-0.44979 1.7145,1.7145 0 0 0 -0.642938,-0.26458 4.8471667,4.8471667 0 0 0 -0.976312,-0.082 h -4.257146 v 2.80987 h 4.2545 a 5.9584167,5.9584167 0 0 0 0.976313,-0.0661 1.666875,1.666875 0 0 0 0.642937,-0.23019 0.91545833,0.91545833 0 0 0 0.351896,-0.42598 1.698625,1.698625 0 0 0 0.108479,-0.62706 z"
       id="path460"
       style="fill:#f0941d;fill-opacity:1;stroke-width:0.26458332" />
    <path
       inkscape:connector-curvature="0"
       class="cls-4"
       d="m 60.27208,274.25907 a 6.4399583,6.4399583 0 0 0 -0.134938,-1.36261 5.2916667,5.2916667 0 0 0 -0.41275,-1.19591 6.1542083,6.1542083 0 0 0 -0.703791,-1.11125 11.395604,11.395604 0 0 0 -1.013355,-1.11125 l 0.992188,-1.07157 v -0.0159 l 0.650875,-0.68262 a 8.636,8.636 0 0 1 1.30175,1.21444 8.5195833,8.5195833 0 0 1 0.79375,1.05833 7.08025,7.08025 0 0 1 0.611187,1.18798 7.7496458,7.7496458 0 0 1 0.402167,1.35466 8.6016042,8.6016042 0 0 1 0.164042,1.54782 v 0.19843 a 8.9958333,8.9958333 0 0 1 -0.140229,1.62719 7.8131458,7.8131458 0 0 1 -0.39423,1.41024 6.8209583,6.8209583 0 0 1 -0.619125,1.22237 8.6995,8.6995 0 0 1 -0.817562,1.07686 q -0.264583,0.30162 -0.560917,0.57679 -0.296333,0.27516 -0.592666,0.52916 l -0.07408,0.0476 a 0.4841875,0.4841875 0 0 0 -0.07673,0.0635 l -0.650875,-0.6826 v -0.0159 l -0.992187,-1.07156 a 11.411479,11.411479 0 0 0 1.013354,-1.11125 6.1542083,6.1542083 0 0 0 0.703791,-1.11125 5.2916667,5.2916667 0 0 0 0.41275,-1.19592 6.4399583,6.4399583 0 0 0 0.137584,-1.37583 z"
       id="path462"
       style="fill:#1a181b;fill-opacity:1;stroke-width:0.26458332" />
    <path
       inkscape:connector-curvature="0"
       class="cls-4"
       d="m 66.979267,281.28905 h -2.434166 l 0.650875,-4.46882 h 2.928937 z m -1.778,-6.65428 v -2.8575 h 3.008313 v 2.8575 z"
       id="path464"
       style="fill:#1a181b;fill-opacity:1;stroke-width:0.26458332" />
  </g>
</svg>
