<?xml version="1.0" encoding="utf-8"?>
<!-- Generator: Adobe Illustrator 19.2.1, SVG Export Plug-In . SVG Version: 6.00 Build 0)  -->
<svg version="1.1"
	 id="svg4583" inkscape:version="0.92.2 2405546, 2018-03-11" sodipodi:docname="lap_logo.svg" xmlns:cc="http://creativecommons.org/ns#" xmlns:dc="http://purl.org/dc/elements/1.1/" xmlns:inkscape="http://www.inkscape.org/namespaces/inkscape" xmlns:rdf="http://www.w3.org/1999/02/22-rdf-syntax-ns#" xmlns:sodipodi="http://sodipodi.sourceforge.net/DTD/sodipodi-0.dtd" xmlns:svg="http://www.w3.org/2000/svg"
	 xmlns="http://www.w3.org/2000/svg" xmlns:xlink="http://www.w3.org/1999/xlink" x="0px" y="0px" viewBox="0 0 212.6 106.3"
	 style="enable-background:new 0 0 212.6 106.3;" xml:space="preserve">
<style type="text/css">
	.st0{fill:none;}
	.st1{fill:#1A181B;}
	.st2{fill:#F0941D;}
</style>
<sodipodi:namedview  bordercolor="#666666" borderopacity="1.0" fit-margin-bottom="0" fit-margin-left="0" fit-margin-right="0" fit-margin-top="0" id="base" inkscape:current-layer="layer1" inkscape:cx="172.99649" inkscape:cy="660.68024" inkscape:document-units="mm" inkscape:pageopacity="0.0" inkscape:pageshadow="2" inkscape:window-height="741" inkscape:window-maximized="1" inkscape:window-width="1366" inkscape:window-x="0" inkscape:window-y="27" inkscape:zoom="0.35" pagecolor="#ffffff" showgrid="false">
	</sodipodi:namedview>
<g id="layer1" transform="translate(0,-259.50061)" inkscape:groupmode="layer" inkscape:label="Layer 1">
	<rect id="rect390" y="259.5" class="st0" width="212.6" height="106.3"/>
	<path id="path392" inkscape:connector-curvature="0" class="st1" d="M35.1,336.4v-15.7h4.2V333h11.4v3.4H35.1z"/>
	<path id="path394" inkscape:connector-curvature="0" class="st1" d="M66.7,333.4H58l-1.5,3h-4.7l8.2-15.7h4.7l8.2,15.7h-4.7
		L66.7,333.4z M59.5,330.4h5.7l-2.9-5.8L59.5,330.4z"/>
	<path id="path396" inkscape:connector-curvature="0" class="st1" d="M92.2,326.1c0,0.7-0.1,1.5-0.3,2.2c-0.2,0.6-0.6,1.2-1.1,1.7
		c-0.6,0.5-1.2,0.9-2,1.1c-1,0.3-1.9,0.4-2.9,0.4h-7v4.9h-4.2v-15.7h11.3c1,0,2,0.1,2.9,0.4c0.7,0.2,1.4,0.6,2,1.1
		c0.5,0.5,0.9,1,1.1,1.7C92,324.6,92.2,325.3,92.2,326.1L92.2,326.1z M87.9,326.1c0-0.3,0-0.6-0.2-0.9c-0.1-0.3-0.3-0.5-0.5-0.6
		c-0.3-0.2-0.6-0.3-0.9-0.4c-0.5-0.1-0.9-0.1-1.4-0.1h-6.1v4h6.1c0.5,0,0.9,0,1.4-0.1c0.3,0,0.6-0.2,0.9-0.3
		c0.2-0.1,0.4-0.4,0.5-0.6C87.8,326.8,87.9,326.5,87.9,326.1L87.9,326.1z"/>
	<path id="path398" inkscape:connector-curvature="0" class="st1" d="M95.7,336.4v-15.7h4.2v15.7H95.7z"/>
	<path id="path400" inkscape:connector-curvature="0" class="st1" d="M109,326.7l8.7-6h5.7l-10.6,7.5l11.3,8.2h-6.2l-8.9-6.5v6.5
		h-4.3v-15.7h4.3L109,326.7z"/>
	<path id="path402" inkscape:connector-curvature="0" class="st1" d="M144.5,333.3c-0.4,0.7-1,1.4-1.7,1.8c-0.9,0.6-1.9,1-2.9,1.2
		c-2.7,0.6-5.5,0.6-8.1,0c-1-0.2-2-0.7-2.9-1.2c-0.7-0.5-1.3-1.1-1.7-1.8c-0.4-0.7-0.6-1.5-0.6-2.3v-10.4h4.2v8.9
		c0,0.5,0.1,1,0.2,1.5c0.1,0.5,0.4,0.9,0.8,1.2c0.4,0.4,1,0.7,1.6,0.8c0.8,0.2,1.7,0.3,2.6,0.3c0.9,0,1.7-0.1,2.6-0.3
		c0.6-0.2,1.1-0.4,1.5-0.8c0.4-0.3,0.6-0.8,0.8-1.2c0.1-0.5,0.2-1,0.2-1.5v-8.9h4.2v10.4C145,331.9,144.8,332.6,144.5,333.3
		L144.5,333.3z"/>
	<path id="path404" inkscape:connector-curvature="0" class="st1" d="M168.1,328.5c0,0.9-0.1,1.8-0.3,2.7c-0.2,0.7-0.5,1.4-0.9,2
		c-0.4,0.6-0.9,1.1-1.4,1.5c-0.6,0.4-1.2,0.7-1.9,1c-0.7,0.3-1.5,0.4-2.3,0.5c-0.8,0.1-1.6,0.2-2.5,0.2h-9.9v-15.7h9.9
		c0.8,0,1.7,0.1,2.5,0.2c0.8,0.1,1.5,0.3,2.3,0.5c0.7,0.2,1.3,0.6,1.9,1c0.6,0.4,1.1,0.9,1.4,1.5c0.4,0.6,0.7,1.3,0.9,2
		C168,326.8,168.1,327.7,168.1,328.5L168.1,328.5z M163.8,328.5c0-0.7-0.1-1.3-0.3-2c-0.2-0.5-0.5-1-0.9-1.4
		c-0.5-0.4-1.1-0.7-1.7-0.8c-0.8-0.2-1.7-0.3-2.5-0.3h-5.2v8.9h5.2c0.9,0,1.7-0.1,2.5-0.3c0.6-0.1,1.2-0.4,1.7-0.8
		c0.4-0.4,0.8-0.8,0.9-1.4C163.8,329.9,163.8,329.2,163.8,328.5L163.8,328.5z"/>
	<path id="path412" inkscape:connector-curvature="0" class="st1" d="M47.5,342.7v3.2h-1.1v-3.2h-1.7v-0.9h4.6v0.9H47.5z"/>
	<path id="path414" inkscape:connector-curvature="0" class="st1" d="M53,345.1h-2.3l-0.4,0.8h-1.3l2.1-4.1h1.2l2.1,4.1h-1.2
		L53,345.1z M51.1,344.3h1.5l-0.8-1.5L51.1,344.3z"/>
	<path id="path416" inkscape:connector-curvature="0" class="st1" d="M56.4,345.8h-1.1v-4.1H58c0.3,0,0.5,0,0.8,0.1
		c0.2,0.1,0.4,0.1,0.5,0.3c0.1,0.1,0.2,0.2,0.3,0.4c0.1,0.2,0.1,0.4,0.1,0.5c0,0.2,0,0.3-0.1,0.5c0,0.1-0.1,0.2-0.2,0.3
		c-0.1,0.1-0.2,0.2-0.3,0.2c-0.1,0.1-0.2,0.1-0.3,0.2l1.3,1.6h-1.3l-1.2-1.5h-1.2V345.8z M58.6,343.1c0-0.1,0-0.1,0-0.2
		c0-0.1-0.1-0.1-0.1-0.1c-0.1,0-0.1-0.1-0.2-0.1c-0.1,0-0.2,0-0.3,0h-1.5v0.9h1.5c0.1,0,0.2,0,0.3,0c0.1,0,0.1,0,0.2-0.1
		c0,0,0.1-0.1,0.1-0.1C58.6,343.2,58.6,343.1,58.6,343.1L58.6,343.1z"/>
	<path id="path418" inkscape:connector-curvature="0" class="st1" d="M62,343.3l2.3-1.6h1.5l-2.7,2l2.9,2.1h-1.6l-2.3-1.7v1.7h-1.1
		v-4.1H62L62,343.3z"/>
	<path id="path420" inkscape:connector-curvature="0" class="st1" d="M69.3,345.8H68l-2.1-4.1h1.2l1.5,3.1l1.5-3.1h1.2L69.3,345.8z"
		/>
	<path id="path422" inkscape:connector-curvature="0" class="st1" d="M75.1,345.1h-2.3l-0.4,0.8h-1.2l2.1-4.1h1.2l2.1,4.1h-1.2
		L75.1,345.1z M73.2,344.3h1.5l-0.8-1.5L73.2,344.3z"/>
	<path id="path424" inkscape:connector-curvature="0" class="st1" d="M78.5,345.8h-1.1v-4.1h2.8c0.3,0,0.5,0,0.8,0.1
		c0.2,0.1,0.4,0.1,0.5,0.3c0.1,0.1,0.2,0.2,0.3,0.4c0.1,0.2,0.1,0.4,0.1,0.5c0,0.2,0,0.3-0.1,0.5c0,0.1-0.1,0.2-0.2,0.3
		c-0.1,0.1-0.2,0.2-0.3,0.2c-0.1,0.1-0.2,0.1-0.3,0.2l1.3,1.6h-1.3l-1.2-1.5h-1.2L78.5,345.8z M80.7,343.1c0-0.1,0-0.1,0-0.2
		c0-0.1-0.1-0.1-0.1-0.1c-0.1,0-0.1-0.1-0.2-0.1c-0.1,0-0.2,0-0.3,0h-1.5v0.9H80c0.1,0,0.2,0,0.3,0c0.1,0,0.1,0,0.2-0.1
		c0,0,0.1-0.1,0.1-0.1C80.7,343.2,80.7,343.1,80.7,343.1L80.7,343.1z"/>
	<path id="path426" inkscape:connector-curvature="0" class="st1" d="M86.3,345.1H84l-0.4,0.8h-1.2l2.1-4.1h1.2l2.1,4.1h-1.2
		L86.3,345.1z M84.4,344.3h1.5l-0.8-1.5L84.4,344.3z"/>
	<path id="path428" inkscape:connector-curvature="0" class="st1" d="M91.9,345.1h-2.3l-0.4,0.8H88l2.1-4.1h1.2l2.1,4.1h-1.2
		L91.9,345.1z M90,344.3h1.5l-0.8-1.5L90,344.3z"/>
	<path id="path430" inkscape:connector-curvature="0" class="st1" d="M95.2,345.8h-1.1v-4.1h2.8c0.3,0,0.5,0,0.8,0.1
		c0.2,0.1,0.4,0.1,0.5,0.3c0.1,0.1,0.2,0.2,0.3,0.4c0.1,0.2,0.1,0.4,0.1,0.5c0,0.2,0,0.3-0.1,0.5c0,0.1-0.1,0.2-0.2,0.3
		c-0.1,0.1-0.2,0.2-0.3,0.2c-0.1,0.1-0.2,0.1-0.3,0.2l1.3,1.6h-1.3l-1.2-1.5h-1.2L95.2,345.8z M97.4,343.1c0-0.1,0-0.1,0-0.2
		c0-0.1-0.1-0.1-0.1-0.1c-0.1,0-0.1-0.1-0.2-0.1c-0.1,0-0.2,0-0.3,0h-1.5v0.9h1.5c0.1,0,0.2,0,0.3,0c0.1,0,0.1,0,0.2-0.1
		c0,0,0.1-0.1,0.1-0.1C97.4,343.2,97.4,343.1,97.4,343.1L97.4,343.1z"/>
	<path id="path432" inkscape:connector-curvature="0" class="st1" d="M99.7,345.8v-4.1h4.2v0.9h-3v0.7h2.8v0.9h-2.8v0.8h3v0.9
		L99.7,345.8z"/>
	<path id="path434" inkscape:connector-curvature="0" class="st1" d="M108.8,345.8l-2.7-2.8v2.8h-1.1v-4.1h1.2l2.8,2.8v-2.8h1.1v4.1
		H108.8z"/>
	<path id="path436" inkscape:connector-curvature="0" class="st1" d="M116.2,343.8c0,0.2,0,0.5-0.1,0.7c-0.1,0.2-0.1,0.4-0.2,0.5
		c-0.1,0.1-0.2,0.3-0.4,0.4c-0.1,0.1-0.3,0.2-0.5,0.3c-0.2,0.1-0.4,0.1-0.6,0.1c-0.2,0-0.4,0-0.6,0h-2.6v-4.1h2.6c0.2,0,0.4,0,0.6,0
		c0.2,0,0.4,0.1,0.6,0.1c0.2,0.1,0.3,0.1,0.5,0.2c0.1,0.1,0.3,0.2,0.4,0.4c0.1,0.2,0.2,0.3,0.2,0.5
		C116.2,343.3,116.2,343.6,116.2,343.8L116.2,343.8z M115.1,343.8c0-0.2,0-0.3-0.1-0.5c0-0.1-0.1-0.3-0.2-0.4
		c-0.1-0.1-0.3-0.2-0.4-0.2c-0.2,0-0.4-0.1-0.7-0.1h-1.4v2.3h1.4c0.2,0,0.4,0,0.7-0.1c0.2,0,0.3-0.1,0.4-0.2
		c0.1-0.1,0.2-0.2,0.2-0.4C115.1,344.2,115.1,344,115.1,343.8L115.1,343.8z"/>
	<path id="path438" inkscape:connector-curvature="0" class="st1" d="M121.9,345.1c-0.1,0.2-0.3,0.4-0.4,0.5
		c-0.2,0.1-0.5,0.3-0.8,0.3c-0.7,0.2-1.4,0.2-2.1,0c-0.3-0.1-0.5-0.2-0.8-0.3c-0.2-0.1-0.3-0.3-0.4-0.5c-0.1-0.2-0.2-0.4-0.2-0.6
		v-2.7h1.1v2.3c0,0.1,0,0.3,0.1,0.4c0,0.1,0.1,0.2,0.2,0.3c0.1,0.1,0.3,0.2,0.4,0.2c0.2,0.1,0.4,0.1,0.7,0.1c0.2,0,0.5,0,0.7-0.1
		c0.1,0,0.3-0.1,0.4-0.2c0.1-0.1,0.2-0.2,0.2-0.3c0-0.1,0.1-0.3,0.1-0.4v-2.3h1.1v2.7C122,344.7,122,344.9,121.9,345.1L121.9,345.1z
		"/>
	<path id="path440" inkscape:connector-curvature="0" class="st1" d="M127,342.9l-0.3-0.1c-0.1-0.1-0.3-0.1-0.4-0.1
		c-0.2,0-0.3-0.1-0.5-0.1c-0.2,0-0.4,0-0.6,0h-0.4l-0.3,0l-0.2,0.1l-0.1,0.1c0,0,0,0,0,0.1c0,0,0,0,0,0.1c0,0.1,0,0.1,0.1,0.2
		c0.1,0.1,0.2,0.1,0.2,0.1l0.4,0.1l0.4,0.1l0.5,0.1c0.2,0,0.3,0.1,0.5,0.1c0.1,0,0.3,0.1,0.4,0.2c0.1,0.1,0.3,0.1,0.4,0.2
		c0.1,0.1,0.2,0.2,0.2,0.3c0.1,0.1,0.1,0.3,0.1,0.4c0,0.2,0,0.3-0.1,0.5c-0.1,0.1-0.2,0.3-0.3,0.4c-0.1,0.1-0.3,0.2-0.4,0.2
		c-0.2,0.1-0.3,0.1-0.5,0.1c-0.2,0-0.3,0.1-0.5,0.1h-0.5c-0.4,0-0.7,0-1.1-0.1c-0.3-0.1-0.6-0.1-0.9-0.2v-1c0.3,0.2,0.6,0.3,0.9,0.4
		c0.4,0.1,0.7,0.1,1.1,0.1c0.2,0,0.4,0,0.6,0c0.1,0,0.2-0.1,0.3-0.1c0.1,0,0.1-0.1,0.2-0.1c0,0,0-0.1,0-0.1c0-0.1,0-0.1-0.1-0.2
		c-0.1-0.1-0.2-0.1-0.2-0.1c-0.1,0-0.2-0.1-0.4-0.1l-0.4-0.1l-0.5-0.1c-0.2,0-0.3-0.1-0.5-0.1c-0.1,0-0.3-0.1-0.4-0.2
		c-0.1-0.1-0.3-0.1-0.4-0.2c-0.1-0.1-0.2-0.2-0.2-0.3c-0.1-0.1-0.1-0.3-0.1-0.4c0-0.2,0-0.3,0.1-0.5c0.1-0.1,0.1-0.2,0.3-0.3
		c0.1-0.1,0.2-0.2,0.4-0.2c0.1-0.1,0.3-0.1,0.4-0.1c0.2,0,0.3-0.1,0.5-0.1h0.5c0.2,0,0.3,0,0.5,0l0.5,0.1l0.5,0.1l0.4,0.1L127,342.9
		z"/>
	<path id="path442" inkscape:connector-curvature="0" class="st1" d="M128.4,345.8v-4.1h4.1v0.9h-3v0.7h2.8v0.9h-2.8v0.8h3v0.9
		L128.4,345.8z"/>
	<path id="path444" inkscape:connector-curvature="0" class="st1" d="M137,343.3l2.3-1.6h1.5l-2.7,2l2.9,2.1h-1.6l-2.3-1.7v1.7H136
		v-4.1h1.1L137,343.3z"/>
	<path id="path446" inkscape:connector-curvature="0" class="st1" d="M141.6,345.8v-4.1h1.1v3.2h3v0.9H141.6z"/>
	<path id="path448" inkscape:connector-curvature="0" class="st1" d="M151.2,345.1c-0.1,0.2-0.3,0.4-0.4,0.5
		c-0.2,0.1-0.5,0.3-0.8,0.3c-0.7,0.2-1.4,0.2-2.1,0c-0.3-0.1-0.5-0.2-0.8-0.3c-0.2-0.1-0.3-0.3-0.4-0.5c-0.1-0.2-0.2-0.4-0.2-0.6
		v-2.7h1.1v2.3c0,0.1,0,0.3,0.1,0.4c0,0.1,0.1,0.2,0.2,0.3c0.1,0.1,0.3,0.2,0.4,0.2c0.2,0.1,0.4,0.1,0.7,0.1c0.2,0,0.5,0,0.7-0.1
		c0.1,0,0.3-0.1,0.4-0.2c0.1-0.1,0.2-0.2,0.2-0.3c0-0.1,0.1-0.3,0.1-0.4v-2.3h1.1v2.7C151.4,344.7,151.3,344.9,151.2,345.1
		L151.2,345.1z"/>
	<path id="path450" inkscape:connector-curvature="0" class="st1" d="M157.2,344.7c0,0.1,0,0.3-0.1,0.4c0,0.1-0.1,0.2-0.2,0.3
		c-0.1,0.1-0.2,0.2-0.3,0.2c-0.1,0.1-0.2,0.1-0.3,0.1c-0.1,0-0.3,0.1-0.4,0.1h-0.4h-2.9v-4.1h2.9h0.4c0.1,0,0.2,0,0.3,0.1
		c0.1,0,0.2,0.1,0.3,0.1c0.1,0,0.2,0.1,0.2,0.2c0.1,0.1,0.1,0.2,0.2,0.3c0,0.1,0.1,0.3,0.1,0.4c0,0.2-0.1,0.5-0.2,0.6
		c-0.2,0.2-0.4,0.3-0.6,0.3c0.2,0,0.3,0,0.5,0.1c0.1,0,0.2,0.1,0.3,0.2c0.1,0.1,0.2,0.2,0.2,0.3
		C157.2,344.4,157.3,344.6,157.2,344.7L157.2,344.7z M155.9,343c0,0,0-0.1,0-0.1c0,0,0-0.1-0.1-0.1c0,0-0.1-0.1-0.2-0.1
		c-0.1,0-0.2,0-0.3,0h-1.6v0.8h1.6c0.1,0,0.2,0,0.3,0c0.1,0,0.1,0,0.2-0.1c0,0,0.1-0.1,0.1-0.1C155.9,343.1,155.9,343.1,155.9,343
		L155.9,343z M156.1,344.6c0-0.1,0-0.2,0-0.2c0-0.1-0.1-0.1-0.2-0.1c-0.1,0-0.2-0.1-0.3-0.1h-0.4h-1.6v0.9h1.6h0.4
		c0.1,0,0.2,0,0.3-0.1c0.1,0,0.1-0.1,0.2-0.1C156.1,344.8,156.1,344.7,156.1,344.6L156.1,344.6z"/>
	<path id="path452" inkscape:connector-curvature="0" class="st1" d="M158.2,345.8v-4.1h1.1v4.1H158.2z"/>
	<path id="path454" inkscape:connector-curvature="0" class="st1" d="M28.3,301.3c0,1.3,0.1,2.6,0.4,3.9c0.3,1.2,0.6,2.3,1.2,3.4
		c0.6,1.1,1.2,2.2,2,3.1c0.9,1.1,1.8,2.2,2.9,3.1l-4.6,5c-1.3-1.1-2.6-2.3-3.7-3.5c-1.1-1.3-2.1-2.7-2.9-4.1
		c-0.8-1.6-1.5-3.2-1.9-4.9c-0.9-3.9-0.9-8,0-11.9c0.4-1.7,1-3.4,1.8-4.9c0.8-1.5,1.8-2.9,2.9-4.1c1.2-1.3,2.4-2.5,3.7-3.5l4.7,5
		c-1,1-2,2-2.9,3.1c-0.8,1-1.4,2-2,3.1c-0.5,1.1-0.9,2.2-1.2,3.4C28.4,298.7,28.3,300,28.3,301.3L28.3,301.3z"/>
	<path id="path456" inkscape:connector-curvature="0" class="st2" d="M43.7,316.7v-30.9h8.4V310h22.6v6.8L43.7,316.7z"/>
	<path id="path458" inkscape:connector-curvature="0" class="st2" d="M106.2,310.9H88.9l-2.9,5.9h-9.3l16.2-30.9h9.3l16.2,30.9h-9.3
		L106.2,310.9z M91.9,304.9h11.3l-5.6-11.4L91.9,304.9z"/>
	<path id="path460" inkscape:connector-curvature="0" class="st2" d="M158.2,296.4c0,1.5-0.2,2.9-0.7,4.3c-0.4,1.3-1.2,2.5-2.2,3.4
		c-1.1,1-2.4,1.8-3.9,2.2c-1.9,0.6-3.8,0.8-5.8,0.8h-13.9v9.7h-8.3v-30.9h22.2c2-0.1,3.9,0.2,5.8,0.8c1.4,0.4,2.8,1.2,3.9,2.2
		c1,0.9,1.7,2.1,2.2,3.3C158,293.5,158.2,294.9,158.2,296.4L158.2,296.4z M149.8,296.5c0-0.6-0.1-1.3-0.3-1.9c-0.2-0.5-0.5-1-1-1.3
		c-0.5-0.4-1.2-0.6-1.8-0.8c-0.9-0.2-1.8-0.2-2.8-0.2h-12.1v8h12.1c0.9,0,1.9,0,2.8-0.2c0.6-0.1,1.3-0.3,1.8-0.7
		c0.4-0.3,0.8-0.7,1-1.2C149.7,297.7,149.8,297.1,149.8,296.5L149.8,296.5z"/>
	<path id="path462" inkscape:connector-curvature="0" class="st1" d="M170.8,301.3c0-1.3-0.1-2.6-0.4-3.9c-0.3-1.2-0.6-2.3-1.2-3.4
		c-0.6-1.1-1.2-2.2-2-3.1c-0.9-1.1-1.8-2.2-2.9-3.1l2.8-3v0l1.8-1.9c1.3,1,2.6,2.2,3.7,3.4c0.8,0.9,1.6,1.9,2.3,3
		c0.7,1.1,1.3,2.2,1.7,3.4c0.5,1.2,0.9,2.5,1.1,3.8c0.3,1.4,0.4,2.9,0.5,4.4v0.6c0,1.5-0.1,3.1-0.4,4.6c-0.2,1.4-0.6,2.7-1.1,4
		c-0.5,1.2-1.1,2.4-1.8,3.5c-0.7,1.1-1.5,2.1-2.3,3.1c-0.5,0.6-1,1.1-1.6,1.6s-1.1,1-1.7,1.5l-0.2,0.1c-0.1,0.1-0.2,0.1-0.2,0.2
		l-1.8-1.9v0l-2.8-3c1-1,2-2,2.9-3.1c0.8-1,1.4-2,2-3.1c0.5-1.1,0.9-2.2,1.2-3.4C170.7,304,170.9,302.6,170.8,301.3L170.8,301.3z"/>
	<path id="path464" inkscape:connector-curvature="0" class="st1" d="M189.9,321.3H183l1.8-12.7h8.3L189.9,321.3z M184.8,302.4v-8.1
		h8.5v8.1H184.8z"/>
</g>
</svg>
