<?xml version="1.0" encoding="UTF-8"?> <svg xmlns="http://www.w3.org/2000/svg" width="449" height="122" viewBox="0 0 449 122" fill="none"><rect width="448.6" height="122" fill="white"></rect><path d="M145.028 76.188H150.339V43.376H145.028V76.188Z" fill="#000087"></path><path d="M145.028 32.0714V37.4286H150.339V32.0714H145.028Z" fill="#000087"></path><path fill-rule="evenodd" clip-rule="evenodd" d="M124.271 42.6819C114.038 42.6819 108.338 50.317 108.338 59.6558C108.338 71.2662 114.75 77.0714 126.344 77.0714C129.906 77.0714 135.088 76.0618 138.585 73.0961V68.9946H137.355C133.987 71.3293 129.712 72.5282 126.279 72.5282C120.32 72.5282 116.564 70.1304 114.556 65.7765C113.908 64.3252 113.649 62.6215 113.649 60.6654V60.0975H140.204C139.881 50.317 135.671 42.6819 124.271 42.6819ZM134.44 56.1853H113.973C114.944 50.317 118.118 46.9727 124.336 46.9727C130.359 46.9727 134.116 50.8218 134.44 56.1853Z" fill="#000087"></path><path d="M155.963 73.2854V68.3005H157.711C159.525 70.7614 164.383 73.0961 168.593 73.0961C174.033 73.0961 176.818 71.2662 176.818 67.9219C176.818 64.8977 172.811 63.6302 168.321 62.2099C162.599 60.3999 156.092 58.3417 156.092 52.0838C156.092 46.531 160.432 42.8081 169.5 42.8081C174.616 42.8081 178.308 44.3856 180.251 45.4583V50.6956H178.697C177.466 49.3074 174.357 46.6572 169.5 46.6572C163.865 46.6572 161.274 48.6133 161.274 51.3897C161.274 54.9792 165.498 56.2536 170.133 57.6517C175.764 59.3504 182 61.2316 182 67.6695C182 73.4747 178.049 77.0714 168.528 77.0714C163.541 77.0714 159.136 75.3677 155.963 73.2854Z" fill="#000087"></path><path fill-rule="evenodd" clip-rule="evenodd" d="M110.551 83.1353C109.13 83.1353 108.338 84.2279 108.338 85.5643C108.338 87.2258 109.229 88.0565 110.839 88.0565C111.334 88.0565 112.054 87.912 112.539 87.4876V86.9007H112.369C111.901 87.2348 111.307 87.4063 110.83 87.4063C110.002 87.4063 109.48 87.0632 109.202 86.4402C109.112 86.2325 109.076 85.9887 109.076 85.7088V85.6275H112.764C112.719 84.2279 112.135 83.1353 110.551 83.1353ZM111.964 85.0677H109.121C109.256 84.2279 109.696 83.7493 110.56 83.7493C111.397 83.7493 111.919 84.3001 111.964 85.0677Z" fill="#000087"></path><path d="M113.713 87.9301V83.2346H114.406V84.0563H114.532C114.819 83.4062 115.467 83.1624 116.088 83.1624C117.15 83.1624 117.887 83.6861 117.887 84.9322V87.9301H117.159V84.9954C117.159 84.2189 116.601 83.8125 115.836 83.8125C115.287 83.8125 114.442 84.255 114.442 84.9503V87.9301H113.713Z" fill="#000087"></path><path d="M118.464 83.2346V83.8306H119.201L119.192 86.5666C119.192 87.6321 119.552 87.9301 120.353 87.9301H120.956V87.3612H120.488C120.137 87.3612 119.894 87.2438 119.894 86.6298L119.912 83.8306H121.037V83.2346H119.921L119.93 81.6183H119.21L119.201 83.2346H118.464Z" fill="#000087"></path><path fill-rule="evenodd" clip-rule="evenodd" d="M121.649 85.5643C121.649 84.2279 122.441 83.1353 123.862 83.1353C125.446 83.1353 126.031 84.2279 126.076 85.6275H122.387V85.7088C122.387 85.9887 122.423 86.2325 122.513 86.4402C122.792 87.0632 123.313 87.4063 124.141 87.4063C124.618 87.4063 125.212 87.2348 125.68 86.9007H125.851V87.4876C125.365 87.912 124.645 88.0565 124.15 88.0565C122.54 88.0565 121.649 87.2258 121.649 85.5643ZM122.432 85.0677H125.275C125.23 84.3001 124.708 83.7493 123.871 83.7493C123.008 83.7493 122.567 84.2279 122.432 85.0677Z" fill="#000087"></path><path d="M128.94 83.8487H129.588V83.1985H128.94C128.4 83.1985 128.05 83.4875 127.924 84.0563H127.798V83.2346H127.042V87.9301H127.825V85.2031C127.879 84.4175 128.383 83.8487 128.94 83.8487Z" fill="#000087"></path><path fill-rule="evenodd" clip-rule="evenodd" d="M130.398 89.9166V83.2346H131.154V83.7945H131.244C131.487 83.4062 132.027 83.1353 132.647 83.1353C134.042 83.1353 134.942 84.0744 134.942 85.4921C134.942 87.0181 133.898 88.0023 132.62 88.0023C132.108 88.0023 131.451 87.7585 131.262 87.2619H131.145V89.9166H130.398ZM131.145 86.3679C131.145 86.991 131.802 87.3702 132.494 87.3702C133.385 87.3702 134.177 86.7652 134.177 85.5282C134.177 84.4085 133.448 83.7674 132.539 83.7674C131.838 83.7674 131.145 84.3272 131.145 85.0948V86.3679Z" fill="#000087"></path><path d="M137.823 83.8487H138.471V83.1985H137.823C137.283 83.1985 136.932 83.4875 136.807 84.0563H136.681V83.2346H135.925V87.9301H136.708V85.2031C136.762 84.4175 137.265 83.8487 137.823 83.8487Z" fill="#000087"></path><path d="M140.001 87.9301H139.263V83.2346H140.001V87.9301Z" fill="#000087"></path><path d="M139.263 82.0879V81.1217H140.001V82.0879H139.263Z" fill="#000087"></path><path d="M141.051 86.8014V87.5147C141.492 87.8127 142.104 88.0565 142.797 88.0565C144.119 88.0565 144.668 87.5418 144.668 86.7111C144.668 85.7898 143.802 85.5206 143.02 85.2775C142.376 85.0774 141.789 84.8951 141.789 84.3814C141.789 83.9841 142.149 83.7042 142.932 83.7042C143.606 83.7042 144.038 84.0834 144.209 84.2821H144.425V83.5326C144.155 83.3791 143.642 83.1534 142.932 83.1534C141.672 83.1534 141.069 83.6861 141.069 84.4807C141.069 85.3762 141.973 85.6708 142.768 85.9298C143.392 86.133 143.948 86.3144 143.948 86.7472C143.948 87.2257 143.561 87.4876 142.806 87.4876C142.221 87.4876 141.546 87.1535 141.294 86.8014H141.051Z" fill="#000087"></path><path fill-rule="evenodd" clip-rule="evenodd" d="M147.48 83.1353C149.063 83.1353 149.648 84.2279 149.693 85.6275H146.004V85.7088C146.004 85.9887 146.04 86.2325 146.13 86.4402C146.409 87.0632 146.931 87.4063 147.759 87.4063C148.235 87.4063 148.829 87.2348 149.297 86.9007H149.468V87.4876C148.982 87.912 148.262 88.0565 147.768 88.0565C146.157 88.0565 145.266 87.2258 145.266 85.5643C145.266 84.2279 146.058 83.1353 147.48 83.1353ZM146.049 85.0677H148.892C148.847 84.3001 148.325 83.7493 147.489 83.7493C146.625 83.7493 146.184 84.2279 146.049 85.0677Z" fill="#000087"></path><path fill-rule="evenodd" clip-rule="evenodd" d="M157.126 85.6275C157.081 84.2279 156.496 83.1353 154.913 83.1353C153.491 83.1353 152.7 84.2279 152.7 85.5643C152.7 87.2258 153.59 88.0565 155.201 88.0565C155.696 88.0565 156.415 87.912 156.901 87.4876V86.9007H156.73C156.262 87.2348 155.669 87.4063 155.192 87.4063C154.364 87.4063 153.842 87.0632 153.563 86.4402C153.473 86.2325 153.437 85.9887 153.437 85.7088V85.6275H157.126ZM156.325 85.0677H153.482C153.617 84.2279 154.058 83.7493 154.922 83.7493C155.759 83.7493 156.28 84.3001 156.325 85.0677Z" fill="#000087"></path><path d="M157.886 87.5147V86.8014H158.128C158.38 87.1535 159.055 87.4876 159.64 87.4876C160.396 87.4876 160.783 87.2257 160.783 86.7472C160.783 86.3144 160.226 86.133 159.602 85.9298C158.807 85.6708 157.904 85.3762 157.904 84.4807C157.904 83.6861 158.506 83.1534 159.766 83.1534C160.477 83.1534 160.99 83.3791 161.259 83.5326V84.2821H161.044C160.873 84.0834 160.441 83.7042 159.766 83.7042C158.983 83.7042 158.623 83.9841 158.623 84.3814C158.623 84.8951 159.21 85.0774 159.854 85.2775C160.636 85.5206 161.502 85.7898 161.502 86.7111C161.502 87.5418 160.954 88.0565 159.631 88.0565C158.938 88.0565 158.326 87.8127 157.886 87.5147Z" fill="#000087"></path><path d="M161.982 83.2346V83.8306H162.72L162.711 86.5666C162.711 87.6321 163.07 87.9301 163.871 87.9301H164.474V87.3612H164.006C163.655 87.3612 163.412 87.2438 163.412 86.6298L163.43 83.8306H164.555V83.2346H163.439L163.448 81.6183H162.729L162.72 83.2346H161.982Z" fill="#000087"></path><path fill-rule="evenodd" clip-rule="evenodd" d="M165.167 85.6004C165.167 84.1105 166.121 83.1263 167.533 83.1263C168.955 83.1263 169.918 84.0834 169.918 85.5733C169.918 87.0903 168.991 88.0565 167.533 88.0565C166.103 88.0565 165.167 87.0813 165.167 85.6004ZM165.932 85.6004C165.932 86.7291 166.67 87.4334 167.533 87.4334C168.442 87.4334 169.153 86.7381 169.153 85.6004C169.153 84.3995 168.451 83.7493 167.533 83.7493C166.67 83.7493 165.932 84.3995 165.932 85.6004Z" fill="#000087"></path><path d="M170.876 83.2346V87.9301H171.605V84.9503C171.605 84.255 172.451 83.8125 172.999 83.8125C173.764 83.8125 174.322 84.2189 174.322 84.9954V87.9301H175.051V84.9322C175.051 83.6861 174.313 83.1624 173.251 83.1624C172.63 83.1624 171.983 83.4062 171.695 84.0563H171.569V83.2346H170.876Z" fill="#000087"></path><path d="M176.991 87.9301H176.253V83.2346H176.991V87.9301Z" fill="#000087"></path><path d="M176.253 82.0879V81.1217H176.991V82.0879H176.253Z" fill="#000087"></path><path fill-rule="evenodd" clip-rule="evenodd" d="M179.814 85.0406C178.707 85.3024 177.978 85.6727 177.978 86.6388C177.978 87.4515 178.671 88.0565 179.598 88.0565C180.228 88.0565 180.74 87.8578 181.136 87.3702H181.253V87.9301H181.991C181.991 87.412 181.993 86.9411 181.995 86.4692L181.995 86.4627C181.998 85.9909 182 85.5179 182 84.9954C182 83.8577 181.244 83.1353 180.012 83.1353C179.256 83.1353 178.725 83.4062 178.32 83.7403V84.3995H178.455C178.905 84.0022 179.292 83.7855 179.994 83.7855C180.632 83.7855 181.091 84.1647 181.217 84.6974L181.145 84.8239C180.821 84.869 180.129 84.9774 179.814 85.0406ZM181.262 85.474L181.253 86.4582C181.253 87.0993 180.398 87.4063 179.904 87.4063C179.211 87.4063 178.734 87.1445 178.734 86.6298C178.734 86.1151 179.121 85.8532 180.048 85.6817C180.186 85.6508 180.433 85.611 180.693 85.5692C180.889 85.5377 181.092 85.505 181.262 85.474Z" fill="#000087"></path><path d="M59.038 58.122C58.5537 57.636 57.7686 57.636 57.2844 58.122L55.3216 60.0918C54.8374 60.5778 54.8374 61.3658 55.3216 61.8517L57.2844 63.8216C57.7686 64.3076 58.5537 64.3076 59.038 63.8216L61.0007 61.8517C61.4849 61.3658 61.4849 60.5778 61.0007 60.0918L59.038 58.122Z" fill="#000087"></path><path d="M66.8935 48.5073C67.3777 48.0213 68.1628 48.0213 68.6471 48.5073L70.6098 50.4772C71.094 50.9632 71.094 51.7511 70.6098 52.2371L68.6471 54.2069C68.1628 54.6929 67.3777 54.6929 66.8935 54.2069L64.9307 52.2371C64.4465 51.7511 64.4465 50.9632 64.9307 50.4772L66.8935 48.5073Z" fill="#000087"></path><path d="M78.2552 58.1502C77.7709 57.6642 76.9858 57.6642 76.5016 58.1502L74.5389 60.12C74.0546 60.606 74.0546 61.394 74.5389 61.8799L76.5016 63.8498C76.9858 64.3358 77.7709 64.3358 78.2552 63.8498L80.2179 61.8799C80.7021 61.394 80.7021 60.606 80.2179 60.12L78.2552 58.1502Z" fill="#000087"></path><path d="M68.6471 67.793C68.1628 67.3071 67.3777 67.3071 66.8935 67.793L64.9307 69.7629C64.4465 70.2489 64.4465 71.0368 64.9307 71.5228L66.8935 73.4926C67.3777 73.9786 68.1628 73.9786 68.6471 73.4926L70.6098 71.5228C71.094 71.0368 71.094 70.2489 70.6098 69.7629L68.6471 67.793Z" fill="#000087"></path><path fill-rule="evenodd" clip-rule="evenodd" d="M97.1284 39.5716C99.7973 36.8931 98.5269 32.0714 94.0881 32.0714H67.6766C66.5018 32.0714 65.375 32.5371 64.5443 33.3662L42.3785 55.4854C40.6551 57.2052 40.6477 59.9913 42.3619 61.7202L46.4189 66.3571L44.8314 67.9413C43.1235 69.6456 43.0986 72.4011 44.7754 74.136L54.3186 84.09C56.0149 85.8449 58.8148 85.8979 60.5765 84.2084L62.4324 82.4286L69.3542 88.6453C71.0859 90.3609 73.882 90.3559 75.6075 88.634L97.4323 68.323C99.1622 66.5967 99.1622 63.7978 97.4323 62.0715L85.9189 50.8214L97.1284 39.5716ZM59.038 68.5C59.7335 68.5 60.2973 69.0659 60.2973 69.7639V72.5932C60.2973 73.2913 59.7335 73.8571 59.038 73.8571H56.2188C55.5233 73.8571 54.9595 73.2913 54.9595 72.5932V69.7639C54.9595 69.0659 55.5233 68.5 56.2188 68.5H59.038ZM60.2973 49.4067C60.2973 48.7087 59.7335 48.1428 59.038 48.1428H56.2188C55.5233 48.1428 54.9595 48.7087 54.9595 49.4067V52.2361C54.9595 52.9341 55.5233 53.5 56.2188 53.5H59.038C59.7335 53.5 60.2973 52.9341 60.2973 52.2361V49.4067ZM79.3217 48.1428C80.0173 48.1428 80.5811 48.7087 80.5811 49.4067V52.2361C80.5811 52.9341 80.0173 53.5 79.3217 53.5H76.5026C75.8071 53.5 75.2432 52.9341 75.2432 52.2361V49.4067C75.2432 48.7087 75.8071 48.1428 76.5026 48.1428H79.3217ZM80.5811 69.7639C80.5811 69.0659 80.0173 68.5 79.3217 68.5H76.5026C75.8071 68.5 75.2432 69.0659 75.2432 69.7639V72.5932C75.2432 73.2913 75.8071 73.8571 76.5026 73.8571H79.3217C80.0173 73.8571 80.5811 73.2913 80.5811 72.5932V69.7639ZM49.9413 64.5206L52.7187 61.7651C53.1421 61.345 53.1421 60.655 52.7187 60.2349L49.9413 57.4793C49.2641 56.8075 49.7342 55.6428 50.6825 55.6428H60.2568C60.5339 55.6428 60.8 55.7528 60.998 55.9492L65.3176 60.2349C65.741 60.655 65.741 61.345 65.3176 61.7651L60.998 66.0508C60.8 66.2471 60.5339 66.3571 60.2568 66.3571H50.6825C49.7342 66.3571 49.2641 65.1925 49.9413 64.5206ZM67.008 45.8939L64.2623 43.1065C63.5929 42.4269 62.4324 42.8987 62.4324 43.8504V53.4593C62.4324 53.7375 62.542 54.0045 62.7377 54.2032L67.008 58.5384C67.4265 58.9634 68.114 58.9634 68.5326 58.5384L72.8029 54.2032C72.9985 54.0045 73.1081 53.7375 73.1081 53.4593V43.8504C73.1081 42.8987 71.9476 42.4269 71.2782 43.1065L68.5326 45.8939C68.114 46.3189 67.4265 46.3189 67.008 45.8939ZM85.604 57.4563L82.7869 60.258C82.37 60.6726 82.37 61.3274 82.7869 61.742L85.604 64.5437C86.2888 65.2247 85.7833 66.3571 84.7945 66.3571H75.3369C75.0314 66.3571 74.739 66.2382 74.5274 66.0277L70.2181 61.742C69.8012 61.3274 69.8012 60.6726 70.2181 60.258L74.5274 55.9723C74.739 55.7618 75.0314 55.6428 75.3369 55.6428H84.7945C85.7833 55.6428 86.2888 56.7753 85.604 57.4563ZM68.5096 76.0709L71.3012 78.8982C71.9798 79.5855 73.1081 79.0781 73.1081 78.0858V68.594C73.1081 68.2873 72.9896 67.9939 72.7799 67.7815L68.5096 63.4566C68.0965 63.0382 67.4441 63.0382 67.031 63.4566L62.7607 67.7815C62.551 67.9939 62.4324 68.2873 62.4324 68.594V78.0858C62.4324 79.0781 63.5608 79.5855 64.2393 78.8982L67.031 76.0709C67.4441 75.6525 68.0965 75.6525 68.5096 76.0709Z" fill="#000087"></path><path d="M30.787 47.8004C31.7554 46.8284 33.3256 46.8284 34.2941 47.8004L38.2196 51.7401C39.1881 52.712 39.1881 54.2879 38.2196 55.2599L34.2941 59.1996C33.3256 60.1715 31.7554 60.1715 30.787 59.1996L26.8615 55.2599C25.893 54.2879 25.893 52.712 26.8615 51.7401L30.787 47.8004Z" fill="#000087"></path><path fill-rule="evenodd" clip-rule="evenodd" d="M30.2025 63.0434C31.4937 61.7474 33.5873 61.7474 34.8786 63.0434L40.1126 68.2963C41.4039 69.5923 41.4039 71.6934 40.1126 72.9894L36.7593 76.3548C36.7447 76.3704 36.7299 76.3857 36.7147 76.4009L31.335 81.8001C30.5012 82.6369 29.1493 82.6369 28.3155 81.8001L28.2412 81.7256C27.4074 80.8888 27.4074 79.532 28.2412 78.6951L29.4474 77.4846L24.9685 72.9894C23.6772 71.6934 23.6772 69.5923 24.9685 68.2963L30.2025 63.0434ZM31.6638 67.793C32.148 67.3071 32.9331 67.3071 33.4173 67.793L35.3801 69.7629C35.8643 70.2489 35.8643 71.0368 35.3801 71.5228L33.4173 73.4926C32.9331 73.9786 32.148 73.9786 31.6638 73.4926L29.701 71.5228C29.2168 71.0368 29.2168 70.2489 29.701 69.7629L31.6638 67.793Z" fill="#000087"></path><path d="M233.976 89.5425C233.976 89.7145 234.029 89.8865 234.109 90.032C234.44 89.7013 234.85 89.4632 235.299 89.3309C235.498 88.6429 236.12 88.1534 236.86 88.1534C236.927 88.1534 236.98 88.1534 237.046 88.1534C236.424 88.3254 235.921 88.7885 235.696 89.3838C235.313 89.5161 235.035 89.8733 235.035 90.2966C235.035 90.4951 235.101 90.6803 235.194 90.839C235.524 90.4686 235.961 90.1908 236.464 90.0453C236.609 89.3309 237.204 88.7752 237.945 88.6959C237.297 88.9605 236.847 89.6087 236.847 90.3495C236.847 90.6141 236.9 90.8655 237.006 91.0904C237.125 90.6803 237.496 90.376 237.945 90.376C238.051 90.376 238.17 90.3892 238.263 90.4289C238.395 90.4818 238.554 90.5083 238.699 90.5083C239.414 90.5083 239.996 89.9262 239.996 89.2118C239.996 89.0663 239.969 88.934 239.93 88.8017C240.274 88.9075 240.525 89.2118 240.525 89.5822C240.525 89.7542 240.472 89.913 240.38 90.0453C240.472 90.0585 240.578 90.0717 240.671 90.0717C241.517 90.0717 242.205 89.4367 242.311 88.6165C242.734 88.3916 243.105 88.0741 243.422 87.6904L243.647 88.7885C243.66 88.8678 243.647 88.934 243.647 89.0134C243.621 89.0795 243.594 89.1457 243.541 89.1986L244.467 88.2461C244.467 88.2461 244.56 88.127 244.573 88.0476C244.6 87.9815 244.6 87.9021 244.573 87.8227L244.295 86.4865C244.282 86.4072 244.295 86.3278 244.295 86.2616C244.322 86.1955 244.348 86.1293 244.401 86.0764L245.129 85.3356C245.129 85.3356 245.036 85.4546 245.023 85.5208C244.997 85.5869 244.997 85.6663 245.023 85.7457L245.301 87.0819C245.314 87.1612 245.301 87.2406 245.301 87.3068C245.274 87.3729 245.248 87.4391 245.195 87.492L246.029 86.6321C246.029 86.6321 246.121 86.513 246.134 86.4336C246.161 86.3675 246.161 86.2881 246.134 86.2087L245.857 84.8725C245.843 84.7932 245.857 84.7138 245.857 84.6476C245.883 84.5815 245.909 84.5153 245.962 84.4492L246.69 83.7084C246.69 83.7084 246.597 83.8274 246.584 83.8936C246.571 83.9597 246.558 84.0391 246.584 84.1185L246.862 85.4546C246.875 85.534 246.862 85.6002 246.862 85.6795C246.836 85.7457 246.809 85.8118 246.756 85.8648L247.59 85.0048C247.59 85.0048 247.682 84.8858 247.695 84.8196C247.722 84.7535 247.722 84.6741 247.695 84.5947L247.563 83.9465C247.418 83.2056 248.185 82.359 248.793 82.2663C248.873 82.1208 248.913 81.9753 248.913 81.8165C248.913 81.0625 248.026 80.4539 246.915 80.4539C246.372 80.4539 245.883 80.5994 245.526 80.8376C245.671 81.2609 245.698 81.6975 244.282 81.8959C243.158 82.0547 242.179 82.2796 241.425 82.9146C240.274 83.8936 240.366 85.2033 239.705 85.706C239.996 85.7721 240.366 85.7722 240.763 85.6928C241.015 85.6399 241.253 85.5605 241.451 85.4546C241.332 85.6928 241.041 85.9177 240.671 86.0764C240.552 86.5395 240.141 86.976 239.586 87.1877C239.229 87.32 238.885 87.3332 238.594 87.2406L237.244 86.8437C237.072 86.7908 236.9 86.7644 236.728 86.7644C235.736 86.7644 234.903 87.5317 234.783 88.5239C234.307 88.59 233.95 89.0001 233.95 89.4896M247.325 35.9633C248.106 35.1959 249.005 34.5609 249.997 34.0847C249.971 33.9656 249.958 33.8465 249.958 33.7275C245.817 34.4022 242.099 36.5189 238.739 36.5057C237.8 36.5057 237.059 36.1352 236.94 35.5399C236.913 35.4208 236.913 35.3018 236.94 35.1827C236.993 34.9446 237.191 34.7726 237.443 34.7726C237.734 34.7726 237.959 34.9975 237.959 35.2885C237.959 35.4208 237.906 35.5531 237.813 35.6457C237.906 35.6457 238.011 35.659 238.117 35.659C238.382 35.659 238.633 35.6325 238.858 35.5664C239.215 35.4738 239.493 35.143 239.493 34.7461C239.493 34.2699 239.11 33.8995 238.633 33.8995C238.607 33.8995 238.58 33.8995 238.554 33.8995C238.673 33.8465 238.805 33.8201 238.938 33.8201C239.48 33.8201 239.93 34.2699 239.93 34.8123C239.93 34.8387 239.93 34.8652 239.93 34.8917C241.411 34.8652 243.065 33.5158 243.436 32.9999C242.973 33.1057 242.47 33.1586 241.954 33.1586C241.359 33.1586 240.79 33.0792 240.274 32.9469C239.546 32.7617 238.832 32.6427 238.289 32.6427C236.477 32.6427 235.008 33.8201 235.008 35.2753C235.008 36.4792 236.001 37.5376 237.376 37.8154C240.512 38.4636 244.203 36.5983 247.325 35.95M229.637 40.2364C229.717 39.7998 229.756 39.3632 229.743 38.9531L229.346 39.4161C229.267 39.2309 229.214 39.1119 229.161 39.0325C229.121 38.9531 229.082 38.9002 229.029 38.9002C229.002 38.9134 228.963 38.9399 228.923 38.9399C228.87 38.9399 228.804 38.9399 228.764 38.9399C228.724 38.9399 228.658 38.9399 228.605 38.9399C228.566 38.9399 228.526 38.9134 228.499 38.9002C228.447 38.9002 228.407 38.9663 228.367 39.0325C228.314 39.1251 228.261 39.2309 228.182 39.4161L227.785 38.9531C227.772 39.3632 227.798 39.7998 227.891 40.2364C228.182 40.1702 228.486 40.1438 228.764 40.1438C229.042 40.1438 229.346 40.1702 229.65 40.2364M229.822 41.427C229.862 40.9243 229.293 40.7523 228.764 40.7523C228.235 40.7523 227.666 40.9243 227.706 41.427C227.759 42.0356 228.328 41.7445 228.764 41.7445C229.201 41.7445 229.77 42.0356 229.822 41.427ZM231.344 37.8154C231.238 37.8418 231.185 37.908 231.172 38.0138C231.106 38.6091 230.868 38.8473 230.484 38.9796C230.484 39.5749 230.391 40.0247 230.233 40.5803C230.682 41.5329 230.338 42.1943 229.968 42.3398C229.624 42.4721 229.161 42.2869 228.764 42.2869C228.367 42.2869 227.904 42.4721 227.547 42.3398C227.177 42.1943 226.833 41.5329 227.282 40.5803C227.124 40.0247 227.044 39.5749 227.031 38.9796C226.647 38.8473 226.409 38.6091 226.343 38.0138C226.343 37.908 226.277 37.8418 226.171 37.8154C224.663 37.4053 224.517 35.5267 225.285 34.9975C225.219 35.831 225.139 37.0216 226.859 37.1804C226.833 38.1593 227.256 38.4239 227.692 38.4239C228.05 38.4239 228.261 38.3049 228.341 38.2652C228.658 38.0932 228.447 37.8418 228.354 37.7625C228.129 37.5508 228.023 37.273 228.076 36.9819C228.076 36.929 228.103 36.9025 228.156 36.9025H229.32C229.32 36.9025 229.386 36.929 229.399 36.9819C229.452 37.273 229.346 37.564 229.121 37.7625C229.042 37.8418 228.817 38.0932 229.134 38.2652C229.227 38.3181 229.426 38.4239 229.783 38.4239C230.219 38.4239 230.643 38.1593 230.616 37.1804C232.336 37.0216 232.257 35.8442 232.191 34.9975C232.958 35.5267 232.812 37.4053 231.304 37.8154M231.767 34.5477C231.767 34.9843 231.45 35.4605 231.092 35.4605H230.762C230.841 35.5664 230.894 35.6854 230.894 35.831C230.894 36.1485 230.643 36.413 230.312 36.413C229.981 36.413 229.73 36.1617 229.73 35.831C229.73 35.6987 229.783 35.5664 229.862 35.4605H229.518C229.399 35.4605 229.306 35.5134 229.24 35.6457C229.214 35.4605 229.187 35.2621 229.24 35.143C229.293 34.971 229.439 34.8652 229.571 34.8652H231.079C231.357 34.8652 231.569 34.7726 231.767 34.5477ZM231.569 33.8333H231.04C230.775 33.8333 230.59 33.7275 230.444 33.5555L229.836 32.7749C229.73 32.6559 229.664 32.5633 229.531 32.5104H230.127C230.312 32.5104 230.471 32.5897 230.59 32.7485L231.212 33.5423C231.357 33.7142 231.397 33.8201 231.555 33.8465M228.804 32.55L229.571 33.6349C229.69 33.8068 229.809 33.9127 229.968 33.9788H229.267C228.989 33.9788 228.83 33.8598 228.711 33.6613L228.103 32.7353C227.864 32.3913 227.785 32.2987 227.507 32.2061H228.169C228.42 32.2061 228.671 32.3781 228.791 32.5633M227.044 32.7617L227.666 33.5555C227.812 33.7275 227.851 33.8333 228.01 33.8598H227.481C227.216 33.8598 227.031 33.7539 226.885 33.5819L226.277 32.8014C226.184 32.6823 226.105 32.5897 225.973 32.5368H226.568C226.74 32.5368 226.899 32.6162 227.031 32.7749M226.647 35.5002H226.317C225.959 35.5002 225.642 35.024 225.642 34.5874C225.84 34.8123 226.039 34.9049 226.33 34.9049H227.838C227.97 34.9049 228.103 35.0107 228.169 35.1827C228.208 35.315 228.182 35.5002 228.169 35.6854C228.103 35.5531 228.01 35.5002 227.891 35.5002H227.547C227.626 35.6061 227.679 35.7251 227.679 35.8706C227.679 36.1881 227.415 36.4527 227.11 36.4527C226.806 36.4527 226.528 36.2014 226.528 35.8706C226.528 35.7383 226.581 35.6061 226.661 35.5002M224.795 42.697L224.98 42.3398C225.02 42.2737 225.033 42.1943 225.033 42.1282C225.033 42.062 225.02 41.9827 224.98 41.9165L225.483 42.8161C225.523 42.8823 225.536 42.9616 225.536 43.0278C225.536 43.1072 225.523 43.1733 225.483 43.2394L225.443 43.3321C225.139 43.9274 224.848 45.0519 225.166 45.7001C224.425 45.4223 224.173 44.7741 224.253 44.2317C222.851 42.9087 222.507 41.5593 223.499 40.4348L224.015 39.8395C224.015 39.8395 224.094 39.7072 224.121 39.641C224.134 39.5749 224.134 39.4955 224.121 39.4161L224.385 40.4083C224.398 40.4877 224.412 40.5539 224.385 40.6332C224.372 40.6994 224.332 40.7655 224.279 40.8317L224.121 41.0169C223.605 41.6255 223.737 42.4457 224.557 43.1865C224.636 42.9749 224.703 42.869 224.795 42.697ZM259.112 46.441C259.165 46.3087 259.192 46.1632 259.192 46.0044C259.192 45.3826 258.689 44.8667 258.054 44.8667H256.903C256.824 44.8667 256.758 44.8534 256.691 44.8138C256.625 44.7873 256.572 44.7344 256.533 44.6682L255.964 43.8215C255.964 43.8215 256.07 43.9406 256.123 43.9671C256.189 44.0068 256.255 44.02 256.334 44.02H257.842C257.922 44.02 258.001 44.0464 258.054 44.0729C258.12 44.0994 258.173 44.1523 258.213 44.2184L257.525 43.1998C257.525 43.1998 257.419 43.0807 257.353 43.0542C257.287 43.0146 257.221 43.0013 257.141 43.0013H255.646C255.567 43.0013 255.501 42.9881 255.435 42.9484C255.369 42.9087 255.316 42.869 255.263 42.8029L254.614 41.8371C254.614 41.8371 254.72 41.9562 254.773 41.9827C254.839 42.0223 254.905 42.0356 254.985 42.0356H256.493C256.572 42.0356 256.639 42.0488 256.705 42.0885C256.771 42.1149 256.824 42.1679 256.863 42.234L256.176 41.2153C256.176 41.2153 256.07 41.0963 256.004 41.0698C255.937 41.0301 255.871 41.0169 255.792 41.0169H254.601C254.522 41.0169 254.456 40.9904 254.39 40.964C254.323 40.9243 254.27 40.8846 254.231 40.8185L253.424 39.641C255.051 39.4426 256.361 38.5695 256.612 37.3523C256.956 35.778 255.382 34.2566 253.12 33.9259C252.736 33.873 252.445 33.5423 252.445 33.1454C252.445 32.8146 252.656 32.5236 252.961 32.4045C252.723 32.2987 252.445 32.2458 252.167 32.2458C251.162 32.2458 250.355 32.9602 250.355 33.8465C250.355 34.0053 250.381 34.164 250.434 34.3096C249.309 34.7991 248.291 35.659 247.51 36.585C248.344 36.3601 249.23 36.2411 250.13 36.2411C250.13 36.2014 250.13 36.1617 250.13 36.1088C250.13 35.4341 250.672 34.8784 251.36 34.8784H251.373C250.91 35.0769 250.685 35.5267 250.685 35.8177C250.685 36.1749 250.963 36.4527 251.32 36.4527C251.453 36.4527 251.585 36.4131 251.691 36.3337C251.664 36.2543 251.651 36.1749 251.651 36.0823C251.651 35.5928 252.048 35.2092 252.524 35.2092C252.564 35.2092 252.604 35.2092 252.656 35.2092C252.326 35.3679 252.088 35.7119 252.088 36.0955C252.088 36.638 252.524 37.0745 253.067 37.0745C253.12 37.0745 253.186 37.0745 253.239 37.0745C253.225 37.0216 253.212 36.9555 253.212 36.8893C253.212 36.5057 253.53 36.1881 253.913 36.1881C254.297 36.1881 254.614 36.5057 254.614 36.8893C254.614 37.736 253.675 37.8154 252.987 37.6169C251.029 37.0481 249.204 36.7967 247.431 37.0481C245.155 37.3656 241.438 38.9002 237.482 38.7811C236.596 38.7547 235.63 38.6091 234.664 38.3446C234.783 38.4768 234.863 38.5695 234.916 38.6488C235.299 39.2442 235.432 39.8792 235.088 40.6597C235.088 39.7733 234.373 39.0589 233.765 38.6091C233.513 38.4372 233.421 38.2652 233.461 38.027L233.646 37.0084C233.633 37.0878 233.646 37.1539 233.659 37.2333C233.685 37.2994 233.725 37.3656 233.778 37.4185L234.162 37.7889C234.307 36.757 234.069 35.8045 233.461 34.9181C233.725 34.2037 233.765 33.4232 233.593 32.6956C233.527 33.2512 233.249 33.4893 232.984 33.6481C232.508 33.9524 232.429 34.4551 232.667 34.7991C232.257 34.5874 231.701 33.8333 232.032 33.3967C232.376 32.9205 233.341 33.1454 233.461 32.3252C232.839 32.1267 232.204 32.2722 232.005 32.3252C231.635 31.9018 231.145 31.6901 230.537 31.7034C230.061 31.2668 229.439 31.0816 228.685 31.161C227.931 31.0816 227.322 31.2668 226.833 31.7034C226.224 31.7034 225.735 31.9018 225.364 32.3252C225.166 32.2722 224.531 32.1399 223.909 32.3252C224.028 33.1454 224.98 32.9205 225.338 33.3967C225.668 33.8333 225.1 34.5874 224.703 34.7991C224.954 34.4551 224.875 33.9524 224.385 33.6481C224.134 33.4893 223.856 33.2512 223.777 32.6956C223.591 33.4232 223.631 34.217 223.909 34.9181C223.3 35.8045 223.062 36.7702 223.208 37.7889L223.591 37.4185C223.591 37.4185 223.684 37.2994 223.71 37.2333C223.737 37.1671 223.737 37.0878 223.724 37.0084L223.909 38.027C223.949 38.2519 223.856 38.4239 223.605 38.6091C222.996 39.0589 222.268 39.7733 222.282 40.6597C221.938 39.8792 222.083 39.2177 222.454 38.6488C221.289 38.027 220.416 36.9951 220.244 36.8099C219.9 36.3998 219.94 35.8839 220.258 35.4341C220.866 34.5609 221.012 33.6216 220.258 32.9866C220.258 32.9337 220.258 32.894 220.258 32.8411C220.258 32.259 219.847 31.7695 219.292 31.6637C219.398 31.8224 219.451 32.0076 219.451 32.2061C219.451 32.4442 219.371 32.6559 219.239 32.8279C219.345 32.9734 219.411 33.1454 219.411 33.3438C219.411 33.6084 219.292 33.8333 219.107 33.9921C219.12 33.8995 219.133 33.8068 219.133 33.7142C219.133 33.1189 218.763 32.6162 218.26 32.4839C218.181 32.0473 217.797 31.7166 217.334 31.7166C217.069 31.7166 216.831 31.8224 216.659 32.0076C217.016 32.0341 217.294 32.3119 217.334 32.6691C217.162 32.8014 217.03 32.9734 216.937 33.1718H216.963C217.572 33.1718 218.075 33.6746 218.075 34.2831C218.075 34.3493 218.075 34.4154 218.061 34.4816C218.009 34.2302 217.903 33.9921 217.717 33.8201C217.374 33.4893 216.871 33.41 216.421 33.5952C216.249 33.3835 215.984 33.238 215.693 33.238C215.363 33.238 215.058 33.41 214.9 33.6746C215.244 33.6878 215.535 33.8598 215.72 34.1244C215.244 34.7461 215.23 35.5928 215.72 36.0691C216.051 36.3998 216.527 36.466 216.977 36.3204C217.003 36.3204 217.043 36.3072 217.069 36.3072C217.228 36.3072 217.36 36.4395 217.36 36.5983C217.36 36.757 217.228 36.8893 217.069 36.8893C217.003 36.8893 216.937 36.8629 216.884 36.8232C216.778 36.7306 216.619 36.6776 216.474 36.6776C216.117 36.6776 215.826 36.9687 215.826 37.3259C215.826 37.3523 215.826 37.3788 215.826 37.4053C215.76 37.4185 215.707 37.4317 215.627 37.4317C215.455 37.4317 215.296 37.3656 215.177 37.2465C215.164 37.3127 215.151 37.392 215.151 37.4714C215.151 37.9212 215.508 38.3049 215.958 38.3313C216.156 38.834 216.646 39.178 217.215 39.178C217.506 39.178 217.784 39.0854 217.995 38.9266C218.088 38.8605 218.207 38.8208 218.339 38.8208C218.67 38.8208 218.935 39.0854 218.935 39.4161C218.935 39.694 218.736 39.9321 218.472 39.9982L218.009 40.1041C217.929 40.1173 217.85 40.1173 217.784 40.1041C217.717 40.0908 217.651 40.0512 217.598 39.9982L218.657 41.0037C218.657 41.0037 218.776 41.0963 218.855 41.1095C218.921 41.1227 219.001 41.136 219.08 41.1095L219.953 40.9111C220.033 40.8978 220.099 40.9111 220.178 40.9111C220.244 40.9243 220.31 40.964 220.377 41.0169L221.104 41.7048C221.104 41.7048 220.985 41.6122 220.906 41.599C220.84 41.5858 220.76 41.5725 220.681 41.599L219.808 41.7842C219.728 41.7974 219.649 41.7974 219.583 41.7842C219.517 41.771 219.451 41.7313 219.384 41.6784L220.363 42.6044C220.363 42.6044 220.482 42.697 220.549 42.7103C220.615 42.7367 220.694 42.7367 220.773 42.7103L221.647 42.5251C221.726 42.5118 221.792 42.5118 221.872 42.5251C221.938 42.5383 222.004 42.578 222.07 42.6309L222.798 43.3188C222.798 43.3188 222.679 43.2262 222.599 43.213C222.533 43.1865 222.454 43.1865 222.374 43.213L221.501 43.4114C221.422 43.4247 221.342 43.4114 221.276 43.4114C221.21 43.3982 221.144 43.3585 221.078 43.3056L222.057 44.2317C222.057 44.2317 222.176 44.3243 222.255 44.3375C222.321 44.364 222.401 44.364 222.48 44.3375L223.525 44.1126C222.507 44.6947 221.422 45.3429 220.271 46.0706C219.583 46.5071 218.842 46.5865 217.982 46.2558C217.519 46.0838 217.016 46.0441 216.712 46.1102C216.302 46.1764 215.958 46.4277 215.746 46.7717C215.905 46.7056 216.077 46.6791 216.262 46.6791C216.646 46.6791 216.99 46.8379 217.241 47.076C216.844 46.904 216.355 46.8908 215.865 47.076C215.005 47.3935 214.503 48.2005 214.701 48.9281C214.384 49.0472 214.159 49.3647 214.159 49.7219C214.159 49.96 214.251 50.1849 214.41 50.3304C214.489 49.9468 214.833 49.669 215.23 49.6425C215.402 49.7483 215.601 49.8277 215.799 49.8806C215.865 49.7748 215.945 49.669 216.037 49.5896C216.037 49.5234 216.024 49.4573 216.024 49.3779C216.024 48.5974 216.659 47.9624 217.44 47.9624C217.506 47.9624 217.572 47.9624 217.638 47.9756C217.016 48.1211 216.553 48.69 216.553 49.3515C216.553 49.4308 216.553 49.5234 216.58 49.6028C216.249 49.7351 216.011 50.0526 216.011 50.4363C216.011 50.6612 216.09 50.8596 216.223 51.0051C216.461 50.5289 216.937 50.1981 217.479 50.1452C217.691 50.2114 217.903 50.2378 218.128 50.2378C218.273 50.2378 218.405 50.2378 218.538 50.1981C218.419 50.0262 218.339 49.8013 218.339 49.5764C218.339 48.9678 218.829 48.4783 219.451 48.4783C219.503 48.4783 219.556 48.4783 219.609 48.4783C219.027 48.7297 218.67 49.2324 218.789 49.6954C218.882 50.0262 219.186 50.2511 219.583 50.3172C219.583 50.5686 219.517 50.7935 219.398 50.9919C219.914 50.9522 220.35 50.6479 220.562 50.2114C221.17 49.9732 221.541 49.4573 221.408 48.981C221.369 48.8091 221.263 48.6768 221.117 48.5577C221.117 48.5445 221.117 48.5312 221.117 48.5048C221.117 48.1873 221.382 47.9227 221.7 47.9227C222.017 47.9227 222.282 48.1873 222.282 48.5048C222.282 48.6635 222.229 48.7958 222.123 48.9017H223.353C223.433 48.9017 223.499 48.8884 223.565 48.8487C223.631 48.8223 223.684 48.7694 223.724 48.7032L224.517 47.539C224.517 47.539 224.584 47.4596 224.636 47.4332C224.676 47.4067 224.729 47.3935 224.782 47.3935H225.748C225.748 47.3935 225.642 47.4067 225.602 47.4332C225.563 47.4596 225.523 47.4861 225.496 47.539L224.703 48.7032C224.703 48.7032 224.597 48.8223 224.544 48.8487C224.478 48.8884 224.412 48.9017 224.332 48.9017H225.801C225.88 48.9017 225.946 48.8884 226.012 48.8487C226.078 48.8223 226.131 48.7694 226.171 48.7032L227.057 47.4067C226.449 47.076 226.198 46.4939 226.198 45.6869C226.198 45.1842 226.475 44.6153 226.515 44.2581V44.1126C226.542 44.0332 226.528 43.9671 226.515 43.8877C226.489 43.8348 226.449 43.7554 226.409 43.7025L227.163 44.4698C227.163 44.4698 227.269 44.5889 227.296 44.655C227.322 44.7211 227.335 44.8005 227.322 44.8799L227.296 45.0519C227.256 45.3562 226.872 46.0176 227.587 46.6262C227.626 46.6526 227.706 46.7188 227.798 46.7717L228.314 47.0892V45.2106H229.029V47.3009C229.029 47.3803 229.055 47.4464 229.095 47.5126C229.134 47.5787 229.174 47.6316 229.24 47.6713L229.941 48.1211C230.008 48.1608 230.087 48.1873 230.153 48.1873C230.233 48.1873 230.299 48.1873 230.365 48.1476L231.648 47.5919C231.582 47.6184 231.503 47.6316 231.436 47.6316C231.357 47.6316 231.291 47.6052 231.225 47.5655L229.756 46.6262C230.471 46.0176 230.087 45.3562 230.047 45.0519L230.021 44.8799C230.021 44.8005 230.021 44.7211 230.047 44.655C230.074 44.5889 230.113 44.5227 230.18 44.4698L230.934 43.7025C230.934 43.7025 230.841 43.8348 230.828 43.8877C230.801 43.9538 230.788 44.0332 230.801 44.1126V44.2581C230.881 44.7873 231.41 45.7266 230.96 46.2558L232.31 47.1157C232.376 47.1554 232.455 47.1818 232.521 47.1818C232.601 47.1818 232.667 47.1818 232.746 47.1421L234.096 46.56C234.029 46.5865 233.95 46.5997 233.884 46.5997C233.804 46.5997 233.738 46.5733 233.672 46.5336L232.217 45.6075C232.534 44.9593 232.27 43.9274 231.966 43.3188L231.913 43.2262C231.873 43.1601 231.86 43.0807 231.86 43.0146C231.86 42.9484 231.873 42.869 231.913 42.8029L232.415 41.9033C232.415 41.9033 232.362 42.0488 232.362 42.1149C232.362 42.1943 232.362 42.2605 232.415 42.3266L232.601 42.6838C232.693 42.8558 232.746 42.9616 232.839 43.1733C233.659 42.4325 233.844 41.7181 233.315 41.1095L233.156 40.9243C233.156 40.9243 233.077 40.792 233.064 40.7259C233.05 40.6597 233.05 40.5803 233.064 40.501L233.328 39.5087C233.302 39.5881 233.302 39.6543 233.328 39.7336C233.341 39.7998 233.381 39.8659 233.434 39.9321L233.95 40.5274C234.942 41.6519 234.347 43.1072 233.156 44.2184C233.222 44.4301 233.275 44.827 233.236 45.0387L234.81 46.0441C234.81 46.0441 234.955 46.1102 235.022 46.1102C235.088 46.1102 235.167 46.1102 235.233 46.0706L236.371 45.5678C236.371 45.5678 236.239 45.6075 236.159 45.6075C235.868 45.6075 235.63 45.3694 235.63 45.0783C235.63 44.8402 235.789 44.6418 236.001 44.5756C240.366 43.2527 244.388 39.8262 247.021 39.8262C248.304 39.8262 249.349 40.6068 249.349 41.5725C249.349 41.7313 249.323 41.8768 249.27 42.0223C248.701 43.5966 249.521 45.1048 251.691 45.6869C252.035 45.7795 252.286 46.097 252.286 46.4674C252.286 46.5468 252.286 46.613 252.26 46.6791C252.313 46.6791 252.365 46.6791 252.405 46.6791C253 46.6791 253.53 46.3881 253.847 45.925C254.218 45.925 254.628 45.8986 255.038 45.8589C255.091 45.9647 255.13 46.0706 255.157 46.2028C255.249 46.6526 255.091 47.0628 254.813 47.1554C254.31 47.3141 253.702 47.1289 253.239 47.1289C252.352 47.1289 251.625 47.8565 251.625 48.7561C251.625 48.8223 251.625 48.8884 251.638 48.9678C251.36 49.1398 251.175 49.4441 251.175 49.8013C251.175 49.9732 251.228 50.1452 251.307 50.2907C251.585 49.9732 251.942 49.7219 252.339 49.5764C252.379 48.7958 253.014 48.174 253.807 48.174C253.926 48.174 254.046 48.1873 254.165 48.2137C253.371 48.3196 252.749 48.9943 252.749 49.8277C252.749 49.8806 252.749 49.9468 252.749 49.9997C252.643 50.1188 252.59 50.2775 252.59 50.4363C252.59 50.6479 252.683 50.8332 252.842 50.9655C252.987 50.6347 253.358 50.3304 253.834 50.1717C254.151 50.0658 254.456 50.0394 254.72 50.0923C254.681 49.9732 254.654 49.8409 254.654 49.6954C254.654 48.9943 255.223 48.4122 255.924 48.4122C255.99 48.4122 256.056 48.4122 256.123 48.4254C255.633 48.4915 255.249 48.9149 255.249 49.4176C255.249 49.7616 255.421 50.0526 255.673 50.2378C255.673 50.2511 255.673 50.2775 255.673 50.2907C255.673 50.5686 255.805 50.8199 256.004 50.9787C256.096 50.5156 256.493 50.1717 256.983 50.1717C257.406 50.1717 257.75 50.1188 258.001 50.0394C258.438 49.8939 258.755 49.497 258.755 49.0075C258.755 48.6768 258.596 48.3725 258.358 48.174C258.477 47.6316 258.451 46.7453 258.266 46.0044C258.305 46.0044 258.345 46.0044 258.385 46.0044C258.689 46.0044 258.954 46.1632 259.112 46.4013M236.874 55.5958C236.847 55.4767 236.847 55.3576 236.874 55.2386C236.927 55.0004 237.125 54.8285 237.376 54.8285C237.667 54.8285 237.892 55.0534 237.892 55.3444C237.892 55.4767 237.839 55.609 237.747 55.7016C237.839 55.7016 237.945 55.7148 238.051 55.7148C238.316 55.7148 238.567 55.6751 238.792 55.6222C239.149 55.5296 239.427 55.1989 239.427 54.802C239.427 54.3257 239.043 53.9553 238.567 53.9553C238.541 53.9553 238.514 53.9553 238.488 53.9553C238.607 53.9024 238.739 53.8759 238.871 53.8759C239.414 53.8759 239.864 54.3257 239.864 54.8681C239.864 54.8946 239.864 54.9211 239.864 54.9475C241.345 54.9211 242.999 53.5717 243.369 53.0557C242.906 53.1615 242.404 53.2145 241.888 53.2145C241.292 53.2145 240.724 53.1351 240.208 53.0028C239.48 52.8176 238.766 52.6985 238.223 52.6985C236.411 52.6985 234.942 53.8759 234.942 55.3312C234.942 56.5351 235.934 57.5934 237.31 57.8712C240.446 58.5195 244.137 56.6541 247.259 56.0059C248.039 55.2386 248.939 54.6036 249.931 54.1273C249.905 54.0082 249.892 53.8892 249.892 53.7701C245.751 54.4448 242.033 56.5615 238.673 56.5483C237.734 56.5483 236.993 56.1779 236.874 55.5825M236.781 47.9491C236.781 47.9491 236.9 47.9491 236.966 47.9491C236.345 48.1211 235.842 48.5841 235.617 49.1795C235.233 49.3118 234.955 49.669 234.955 50.0923C234.955 50.2908 235.022 50.476 235.114 50.6347C235.445 50.2643 235.882 49.9865 236.384 49.8409C236.53 49.1266 237.125 48.5709 237.866 48.4915C237.218 48.7561 236.768 49.4044 236.768 50.1452C236.768 50.4098 236.821 50.6612 236.927 50.8861C237.046 50.476 237.416 50.1717 237.866 50.1717C237.972 50.1717 238.091 50.1849 238.183 50.2246C238.316 50.2775 238.474 50.304 238.62 50.304C239.334 50.304 239.917 49.7219 239.917 49.0075C239.917 48.862 239.89 48.7297 239.85 48.5974C240.194 48.69 240.446 49.0075 240.446 49.3779C240.446 49.5499 240.393 49.7087 240.3 49.8409C240.393 49.8542 240.499 49.8674 240.591 49.8674C241.438 49.8674 242.126 49.2324 242.232 48.4122C242.655 48.1873 243.025 47.8698 243.343 47.4861L243.568 48.5842C243.581 48.6635 243.568 48.7429 243.568 48.809C243.541 48.8752 243.515 48.9413 243.462 48.9943L244.388 48.0417C244.388 48.0417 244.481 47.9227 244.494 47.8565C244.52 47.7904 244.52 47.711 244.494 47.6316L244.216 46.2955C244.203 46.2161 244.216 46.1499 244.216 46.0706C244.243 46.0044 244.269 45.9383 244.322 45.8721L245.05 45.1313C245.05 45.1313 244.957 45.2503 244.944 45.3165C244.917 45.3826 244.917 45.462 244.944 45.5414L245.222 46.8776C245.235 46.9569 245.222 47.0231 245.222 47.1024C245.195 47.1686 245.169 47.2347 245.116 47.2877L245.949 46.4277C245.949 46.4277 246.042 46.3087 246.055 46.2293C246.081 46.1632 246.081 46.0838 246.055 46.0044L245.777 44.6682C245.764 44.5889 245.777 44.5095 245.777 44.4433C245.804 44.3772 245.83 44.311 245.883 44.2449L246.611 43.504C246.611 43.504 246.518 43.6231 246.505 43.7025C246.492 43.7686 246.478 43.848 246.505 43.9274L246.783 45.2636C246.796 45.3429 246.783 45.4091 246.783 45.4885C246.756 45.5546 246.73 45.6208 246.677 45.6737L247.51 44.8138C247.51 44.8138 247.603 44.6947 247.616 44.6285C247.643 44.5624 247.643 44.483 247.616 44.4036L247.484 43.7554C247.338 43.0145 248.106 42.1679 248.714 42.0753C248.793 41.9297 248.833 41.7842 248.833 41.6255C248.833 40.8714 247.947 40.2628 246.836 40.2628C246.293 40.2628 245.804 40.4083 245.446 40.6465C245.592 41.0698 245.618 41.5064 244.203 41.7048C243.078 41.8636 242.099 42.0885 241.345 42.7235C240.194 43.7025 240.287 45.0122 239.625 45.5149C239.917 45.5811 240.287 45.5811 240.684 45.5017C240.935 45.4488 241.173 45.3694 241.372 45.2636C241.253 45.5017 240.962 45.7266 240.591 45.8853C240.472 46.3484 240.062 46.7849 239.506 46.9966C239.149 47.1289 238.805 47.1421 238.514 47.0495L237.165 46.6526C236.993 46.5997 236.821 46.5733 236.649 46.5733C235.657 46.5733 234.823 47.3406 234.704 48.3328C234.228 48.3989 233.871 48.809 233.871 49.2985C233.871 49.4838 233.924 49.6425 234.003 49.788C234.334 49.4573 234.744 49.2192 235.194 49.0869C235.392 48.4122 236.014 47.9094 236.755 47.9094M229.558 60.2525C229.637 59.816 229.677 59.3794 229.664 58.9693L229.267 59.4323C229.187 59.2471 229.134 59.128 229.082 59.0487C229.042 58.9693 229.002 58.9164 228.949 58.9164C228.923 58.9296 228.883 58.956 228.843 58.956C228.791 58.956 228.724 58.956 228.685 58.956C228.645 58.956 228.579 58.956 228.526 58.956C228.486 58.956 228.447 58.9296 228.42 58.9164C228.367 58.9164 228.328 58.9825 228.288 59.0487C228.235 59.1413 228.182 59.2603 228.103 59.4323L227.706 58.9693C227.692 59.3794 227.719 59.816 227.812 60.2525C228.103 60.1864 228.407 60.1599 228.685 60.1599C228.963 60.1599 229.267 60.1864 229.571 60.2525M229.743 61.4432C229.783 60.9405 229.214 60.7685 228.685 60.7685C228.156 60.7685 227.587 60.9405 227.626 61.4432C227.679 62.0517 228.248 61.7607 228.685 61.7607C229.121 61.7607 229.69 62.0517 229.743 61.4432ZM231.264 57.8315C231.159 57.858 231.106 57.9241 231.092 58.03C231.026 58.6253 230.788 58.8634 230.405 58.9957C230.405 59.5911 230.312 60.0409 230.153 60.5965C230.603 61.549 230.259 62.2105 229.889 62.356C229.545 62.4883 229.082 62.3031 228.685 62.3031C228.288 62.3031 227.825 62.4883 227.468 62.356C227.097 62.2105 226.753 61.549 227.203 60.5965C227.044 60.0409 226.965 59.5911 226.952 58.9957C226.568 58.8634 226.33 58.6253 226.264 58.03C226.264 57.9241 226.198 57.858 226.092 57.8315C224.584 57.4214 224.438 55.5428 225.205 55.0137C225.139 55.8471 225.06 57.0378 226.78 57.1965C226.753 58.1755 227.177 58.4401 227.613 58.4401C227.97 58.4401 228.182 58.321 228.261 58.2813C228.579 58.1094 228.367 57.858 228.275 57.7786C228.05 57.5802 227.944 57.2759 227.997 56.9981C227.997 56.9452 228.023 56.9187 228.076 56.9187H229.24C229.24 56.9187 229.306 56.9452 229.32 56.9981C229.373 57.2891 229.267 57.5802 229.042 57.7786C228.963 57.858 228.738 58.1094 229.055 58.2813C229.148 58.3343 229.346 58.4401 229.703 58.4401C230.14 58.4401 230.563 58.1755 230.537 57.1965C232.257 57.0378 232.177 55.8603 232.111 55.0137C232.878 55.5428 232.733 57.4214 231.225 57.8315M231.688 54.5639C231.688 54.9872 231.37 55.4767 231.013 55.4767H230.682C230.762 55.5693 230.815 55.7016 230.815 55.8471C230.815 56.1646 230.563 56.4292 230.233 56.4292C229.902 56.4292 229.65 56.1779 229.65 55.8471C229.65 55.7016 229.703 55.5825 229.783 55.4767H229.439C229.32 55.4767 229.227 55.5296 229.161 55.6619C229.134 55.4767 229.108 55.2783 229.161 55.1592C229.214 54.9872 229.359 54.8814 229.492 54.8814H231C231.278 54.8814 231.489 54.7888 231.688 54.5639ZM231.489 53.8495H230.96C230.696 53.8495 230.51 53.7436 230.365 53.5717L229.756 52.7911C229.65 52.672 229.584 52.5794 229.452 52.5265H230.047C230.233 52.5265 230.391 52.6059 230.51 52.7647L231.132 53.5584C231.278 53.7304 231.317 53.8362 231.476 53.8627M228.724 52.5662L229.492 53.651C229.611 53.823 229.73 53.9288 229.889 53.995H229.187C228.91 53.995 228.751 53.8759 228.632 53.6775L228.023 52.7514C227.785 52.4075 227.706 52.3149 227.428 52.2223H228.089C228.341 52.2223 228.592 52.3942 228.711 52.5794M226.965 52.7779L227.587 53.5717C227.732 53.7436 227.772 53.8495 227.931 53.8759H227.401C227.137 53.8759 226.952 53.7701 226.806 53.5981L226.198 52.8176C226.105 52.6985 226.026 52.6059 225.893 52.553H226.489C226.661 52.553 226.819 52.6324 226.952 52.7911M226.568 55.5164H226.237C225.88 55.5164 225.563 55.0401 225.563 54.6036C225.761 54.8152 225.959 54.9211 226.25 54.9211H227.759C227.891 54.9211 228.023 55.0269 228.089 55.1989C228.129 55.3312 228.103 55.5164 228.089 55.7016C228.023 55.5693 227.931 55.5164 227.812 55.5164H227.468C227.547 55.609 227.6 55.7413 227.6 55.8868C227.6 56.2043 227.335 56.4689 227.031 56.4689C226.727 56.4689 226.449 56.2175 226.449 55.8868C226.449 55.7413 226.502 55.6222 226.581 55.5164M224.716 62.7132L224.901 62.356C224.941 62.2899 224.954 62.2105 224.954 62.1443C224.954 62.0782 224.941 61.9988 224.901 61.9327L225.404 62.8323C225.443 62.8984 225.457 62.9778 225.457 63.0439C225.457 63.1101 225.443 63.1895 225.404 63.2556L225.364 63.3482C225.06 63.9435 224.769 65.068 225.086 65.7163C224.345 65.4385 224.094 64.7902 224.173 64.2478C222.771 62.9249 222.427 61.5755 223.419 60.451L223.935 59.8556C223.935 59.8556 224.015 59.7234 224.041 59.6572C224.054 59.5911 224.054 59.5117 224.041 59.4323L224.306 60.4245C224.319 60.5039 224.332 60.57 224.306 60.6494C224.293 60.7156 224.253 60.7817 224.2 60.8479L224.041 61.0331C223.525 61.6416 223.658 62.4618 224.478 63.2027C224.557 62.991 224.623 62.8852 224.716 62.7132ZM259.033 66.4571C259.086 66.3248 259.112 66.1793 259.112 66.0206C259.112 65.3988 258.61 64.8828 257.975 64.8828H256.824C256.744 64.8828 256.678 64.8696 256.612 64.8299C256.546 64.7902 256.493 64.7505 256.453 64.6844L255.884 63.8377C255.884 63.8377 255.99 63.9568 256.043 63.9832C256.109 64.0229 256.176 64.0362 256.255 64.0362H257.763C257.842 64.0362 257.922 64.0494 257.975 64.0891C258.041 64.1155 258.094 64.1684 258.133 64.2346L257.446 63.2159C257.446 63.2159 257.34 63.0969 257.274 63.0704C257.207 63.0307 257.141 63.0175 257.062 63.0175H255.567C255.488 63.0175 255.421 63.0043 255.355 62.9646C255.289 62.9381 255.236 62.8852 255.183 62.819L254.535 61.8533C254.535 61.8533 254.641 61.9724 254.694 61.9988C254.76 62.0385 254.826 62.0517 254.905 62.0517H256.414C256.493 62.0517 256.559 62.065 256.625 62.1047C256.691 62.1311 256.744 62.184 256.784 62.2502L256.096 61.2315C256.096 61.2315 255.99 61.1124 255.924 61.086C255.858 61.0463 255.792 61.0331 255.712 61.0331H254.522C254.442 61.0331 254.376 61.0066 254.31 60.9802C254.244 60.9405 254.191 60.9008 254.151 60.8346L253.344 59.6572C254.972 59.4588 256.281 58.5856 256.533 57.3685C256.877 55.7942 255.302 54.2728 253.04 53.9421C252.656 53.8892 252.365 53.5584 252.365 53.1615C252.365 52.8308 252.577 52.5398 252.881 52.4207C252.643 52.3149 252.365 52.2619 252.088 52.2619C251.082 52.2619 250.275 52.9763 250.275 53.8627C250.275 54.0215 250.302 54.1802 250.355 54.3257C249.23 54.8152 248.211 55.6751 247.431 56.6012C248.264 56.3763 249.151 56.2572 250.05 56.2572C250.05 56.2175 250.05 56.1779 250.05 56.1249C250.05 55.4502 250.593 54.8946 251.281 54.8946H251.294C250.831 55.093 250.606 55.5428 250.606 55.8339C250.606 56.1911 250.884 56.4689 251.241 56.4689C251.373 56.4689 251.506 56.4292 251.611 56.3498C251.585 56.2705 251.572 56.1911 251.572 56.0985C251.572 55.609 251.969 55.2253 252.445 55.2253C252.484 55.2253 252.524 55.2253 252.577 55.2253C252.246 55.3841 252.008 55.7281 252.008 56.1117C252.008 56.6541 252.445 57.0907 252.987 57.0907C253.04 57.0907 253.106 57.0907 253.159 57.0907C253.146 57.0378 253.133 56.9716 253.133 56.9055C253.133 56.5218 253.45 56.2043 253.834 56.2043C254.218 56.2043 254.535 56.5218 254.535 56.9055C254.535 57.7522 253.596 57.8315 252.908 57.6331C250.95 57.0642 249.124 56.8129 247.351 57.0642C245.076 57.3817 241.359 58.9164 237.403 58.7973C236.517 58.7708 235.551 58.6253 234.585 58.3607C234.704 58.493 234.783 58.5856 234.836 58.665C235.22 59.2603 235.352 59.8953 235.008 60.6759C235.008 59.7895 234.294 59.0751 233.685 58.6253C233.434 58.4533 233.341 58.2813 233.381 58.0432L233.566 57.0245C233.553 57.1039 233.566 57.1701 233.58 57.2362C233.606 57.3024 233.646 57.3685 233.699 57.4214L234.082 57.7919C234.228 56.76 233.99 55.8074 233.381 54.9211C233.646 54.2067 233.685 53.4261 233.513 52.6985C233.447 53.2541 233.169 53.4923 232.905 53.651C232.429 53.9553 232.349 54.458 232.587 54.802C232.177 54.5903 231.622 53.8362 231.952 53.3997C232.296 52.9234 233.262 53.1483 233.381 52.3281C232.759 52.1296 232.124 52.2752 231.926 52.3281C231.555 51.9047 231.066 51.6931 230.457 51.7063C229.981 51.2697 229.359 51.0845 228.605 51.1639C227.851 51.0845 227.243 51.2697 226.753 51.7063C226.145 51.7063 225.655 51.9047 225.285 52.3281C225.086 52.2752 224.451 52.1296 223.829 52.3281C223.949 53.1483 224.901 52.9234 225.258 53.3997C225.589 53.8362 225.02 54.5903 224.623 54.802C224.875 54.458 224.795 53.9553 224.306 53.651C224.054 53.4923 223.777 53.2541 223.697 52.6985C223.512 53.4261 223.552 54.2199 223.829 54.9211C223.221 55.8074 222.983 56.76 223.128 57.7919L223.512 57.4214C223.512 57.4214 223.605 57.3024 223.631 57.2362C223.658 57.1701 223.658 57.0907 223.644 57.0245L223.829 58.0432C223.869 58.2681 223.777 58.4401 223.525 58.6253C222.917 59.0751 222.189 59.7895 222.202 60.6759C221.858 59.8953 222.004 59.2339 222.374 58.665C221.21 58.0432 220.337 57.0113 220.165 56.8261C219.821 56.416 219.861 55.9 220.178 55.437C220.787 54.5639 220.932 53.6246 220.178 52.9896C220.178 52.9366 220.178 52.897 220.178 52.844C220.178 52.2619 219.768 51.7724 219.212 51.6666C219.318 51.8254 219.371 52.0106 219.371 52.2223C219.371 52.4472 219.292 52.672 219.159 52.844C219.265 52.9896 219.331 53.1615 219.331 53.36C219.331 53.6246 219.212 53.8495 219.027 54.0082C219.04 53.9156 219.054 53.823 219.054 53.7304C219.054 53.1351 218.683 52.6324 218.181 52.5001C218.101 52.0635 217.717 51.7328 217.254 51.7328C216.99 51.7328 216.752 51.8386 216.58 52.0238C216.937 52.0503 217.215 52.3281 217.254 52.6853C217.082 52.8176 216.95 52.9896 216.858 53.188H216.884C217.493 53.188 217.995 53.6907 217.995 54.2993C217.995 54.3654 217.995 54.4316 217.982 54.4977C217.929 54.2464 217.823 54.0082 217.638 53.8362C217.294 53.5055 216.791 53.4261 216.342 53.6113C216.17 53.3997 215.905 53.2541 215.614 53.2541C215.283 53.2541 214.979 53.4261 214.82 53.6907C215.164 53.7039 215.455 53.8759 215.64 54.1405C215.164 54.7623 215.151 55.609 215.64 56.0853C215.971 56.416 216.447 56.4821 216.897 56.3366C216.924 56.3366 216.963 56.3234 216.99 56.3234C217.149 56.3234 217.281 56.4557 217.281 56.6144C217.281 56.7732 217.149 56.9055 216.99 56.9055C216.924 56.9055 216.858 56.879 216.805 56.8393C216.699 56.7467 216.54 56.6938 216.395 56.6938C216.037 56.6938 215.746 56.9849 215.746 57.342C215.746 57.3685 215.746 57.395 215.746 57.4214C215.68 57.4479 215.627 57.4479 215.548 57.4479C215.376 57.4479 215.217 57.3817 215.098 57.2627C215.085 57.3288 215.072 57.4082 215.072 57.4876C215.072 57.9506 215.429 58.321 215.879 58.3475C216.077 58.8502 216.567 59.1942 217.135 59.1942C217.426 59.1942 217.704 59.1016 217.916 58.9428C218.009 58.8767 218.128 58.837 218.26 58.837C218.591 58.837 218.855 59.1016 218.855 59.4323C218.855 59.7233 218.657 59.9483 218.392 60.0144L217.929 60.1202C217.85 60.1335 217.77 60.1335 217.704 60.1202C217.638 60.107 217.572 60.0673 217.519 60.0144L218.577 61.0198C218.577 61.0198 218.696 61.1124 218.776 61.1257C218.842 61.1389 218.921 61.1521 219.001 61.1257L219.874 60.9272C219.953 60.914 220.019 60.914 220.099 60.9272C220.165 60.9405 220.231 60.9802 220.297 61.0331L221.025 61.721C221.025 61.721 220.906 61.6284 220.826 61.6152C220.76 61.6019 220.681 61.5887 220.601 61.6152L219.728 61.8136C219.649 61.8268 219.57 61.8136 219.503 61.8136C219.437 61.8004 219.371 61.7607 219.305 61.7078L220.284 62.6338C220.284 62.6338 220.403 62.7264 220.469 62.7397C220.535 62.7661 220.615 62.7661 220.694 62.7397L221.567 62.5545C221.647 62.5412 221.713 62.5545 221.792 62.5545C221.858 62.5677 221.924 62.6074 221.991 62.6603L222.718 63.3482C222.718 63.3482 222.599 63.2556 222.52 63.2424C222.454 63.2159 222.374 63.2159 222.295 63.2424L221.422 63.4408C221.342 63.4541 221.263 63.4408 221.197 63.4408C221.131 63.4276 221.065 63.3879 220.998 63.335L221.977 64.2611C221.977 64.2611 222.096 64.3537 222.176 64.3669C222.242 64.3933 222.321 64.3933 222.401 64.3669L223.446 64.142C222.427 64.7241 221.342 65.3723 220.191 66.0999C219.503 66.5365 218.763 66.6159 217.903 66.2852C217.44 66.1132 216.937 66.0867 216.633 66.1396C216.223 66.2058 215.879 66.4571 215.667 66.8011C215.826 66.735 215.998 66.6953 216.183 66.6953C216.567 66.6953 216.91 66.854 217.162 67.0922C216.765 66.9202 216.275 66.9069 215.786 67.0922C214.926 67.4097 214.423 68.2167 214.622 68.9443C214.304 69.0633 214.079 69.3809 214.079 69.738C214.079 69.9762 214.172 70.1878 214.331 70.3466C214.41 69.9629 214.754 69.6851 215.151 69.6587C215.323 69.7645 215.521 69.8439 215.72 69.8836C215.786 69.7777 215.865 69.6719 215.958 69.5925C215.958 69.5264 215.945 69.447 215.945 69.3809C215.945 68.6003 216.58 67.9653 217.36 67.9653C217.426 67.9653 217.493 67.9653 217.559 67.9653C216.937 68.1108 216.474 68.6797 216.474 69.3412C216.474 69.4205 216.474 69.5131 216.5 69.5925C216.17 69.7248 215.932 70.0423 215.932 70.426C215.932 70.6377 216.011 70.8493 216.143 70.9948C216.381 70.5186 216.858 70.1878 217.4 70.1349C217.612 70.2011 217.823 70.2275 218.048 70.2275C218.194 70.2275 218.326 70.2143 218.458 70.1879C218.339 70.0159 218.26 69.791 218.26 69.5661C218.26 68.9575 218.749 68.4548 219.371 68.4548C219.424 68.4548 219.477 68.4548 219.53 68.4548C218.948 68.7061 218.591 69.2089 218.71 69.6719C218.802 70.0026 219.107 70.2275 219.503 70.2937C219.503 70.545 219.437 70.7699 219.318 70.9684C219.834 70.9287 220.271 70.6244 220.482 70.1879C221.091 69.9497 221.461 69.4338 221.329 68.9575C221.289 68.7855 221.184 68.6532 221.038 68.5342C221.038 68.5209 221.038 68.5077 221.038 68.4812C221.038 68.1637 221.303 67.8992 221.62 67.8992C221.938 67.8992 222.202 68.1637 222.202 68.4812C222.202 68.64 222.149 68.7723 222.044 68.8781H223.274C223.353 68.8781 223.419 68.8517 223.486 68.8252C223.552 68.7855 223.605 68.7458 223.644 68.6797L224.438 67.5155C224.438 67.5155 224.504 67.4361 224.557 67.4097C224.597 67.3832 224.65 67.37 224.703 67.37H225.668C225.668 67.37 225.563 67.3832 225.523 67.4097C225.483 67.4361 225.443 67.4626 225.417 67.5155L224.623 68.6797C224.623 68.6797 224.517 68.7988 224.465 68.8252C224.398 68.8649 224.332 68.8781 224.253 68.8781H225.721C225.801 68.8781 225.867 68.8517 225.933 68.8252C225.999 68.7855 226.052 68.7458 226.092 68.6797L226.978 67.37C226.37 67.0392 226.118 66.4571 226.118 65.6501C226.118 65.1474 226.396 64.5786 226.436 64.2214V64.0758C226.462 63.9965 226.449 63.9303 226.436 63.8642C226.409 63.8113 226.37 63.7319 226.33 63.679L227.084 64.4463C227.084 64.4463 227.19 64.5653 227.216 64.6315C227.243 64.6976 227.256 64.777 227.243 64.8564L227.216 65.0284C227.177 65.3326 226.793 65.9941 227.507 66.6027C227.547 66.6291 227.626 66.6953 227.719 66.7482L228.235 67.0657V65.1871H228.949V67.2774C228.949 67.3567 228.976 67.4229 229.015 67.489C229.055 67.5552 229.095 67.6081 229.161 67.6478L229.862 68.0844C229.928 68.1241 230.008 68.1505 230.074 68.1505C230.153 68.1505 230.219 68.1505 230.285 68.1108L231.569 67.5552C231.503 67.5816 231.423 67.5949 231.357 67.5949C231.278 67.5949 231.212 67.5684 231.145 67.5287L229.677 66.5894C230.391 65.9809 230.008 65.3194 229.968 65.0151L229.941 64.8431C229.941 64.7638 229.941 64.6844 229.968 64.6183C229.994 64.5521 230.034 64.486 230.1 64.433L230.854 63.6657C230.854 63.6657 230.762 63.798 230.748 63.8509C230.722 63.9171 230.709 63.9965 230.722 64.0626V64.2081C230.801 64.7373 231.331 65.6766 230.881 66.2058L232.23 67.0657C232.296 67.1054 232.376 67.1318 232.442 67.1318C232.521 67.1318 232.587 67.1318 232.667 67.0922L234.016 66.5101C233.95 66.5365 233.871 66.5497 233.804 66.5497C233.725 66.5497 233.659 66.5233 233.593 66.4836L232.138 65.5575C232.455 64.9093 232.191 63.8774 231.886 63.2821L231.833 63.1895C231.794 63.1233 231.78 63.0439 231.78 62.9778C231.78 62.8984 231.794 62.8323 231.833 62.7661L232.336 61.8665C232.336 61.8665 232.283 62.012 232.283 62.0782C232.283 62.1443 232.283 62.2237 232.336 62.2899L232.521 62.6471C232.614 62.819 232.667 62.9249 232.759 63.1366C233.58 62.3957 233.765 61.6813 233.236 61.0728L233.077 60.8875C233.077 60.8875 232.997 60.7552 232.984 60.6891C232.971 60.623 232.971 60.5436 232.984 60.4642L233.249 59.472C233.222 59.5514 233.222 59.6175 233.249 59.6969C233.262 59.763 233.302 59.8292 233.355 59.8953L233.871 60.4907C234.863 61.6152 234.268 63.0704 233.077 64.1817C233.143 64.3933 233.196 64.7902 233.156 65.0019L234.731 66.0073C234.731 66.0073 234.876 66.0735 234.942 66.0735C235.008 66.0735 235.088 66.0735 235.154 66.0338L236.292 65.5311C236.292 65.5311 236.159 65.5708 236.08 65.5708C235.789 65.5708 235.551 65.3326 235.551 65.0416C235.551 64.8035 235.71 64.5918 235.921 64.5389C240.287 63.2159 244.309 59.7895 246.941 59.7895C248.225 59.7895 249.27 60.57 249.27 61.5358C249.27 61.6945 249.243 61.8401 249.19 61.9856C248.621 63.5599 249.442 65.0681 251.611 65.6501C251.955 65.7428 252.207 66.0603 252.207 66.4307C252.207 66.5101 252.207 66.5762 252.18 66.6424C252.233 66.6424 252.286 66.6424 252.326 66.6424C252.921 66.6424 253.45 66.3513 253.768 65.8883C254.138 65.8883 254.548 65.8618 254.958 65.8221C255.011 65.928 255.051 66.0338 255.077 66.1661C255.17 66.6159 255.011 67.026 254.733 67.1186C254.231 67.2774 253.622 67.0922 253.159 67.0922C252.273 67.0922 251.545 67.8198 251.545 68.7194C251.545 68.7855 251.545 68.8649 251.558 68.9311C251.281 69.103 251.095 69.4205 251.095 69.7645C251.095 69.9365 251.148 70.1085 251.228 70.254C251.506 69.9365 251.863 69.6851 252.26 69.5396C252.299 68.7591 252.934 68.1373 253.728 68.1373C253.847 68.1373 253.966 68.1505 254.085 68.177C253.291 68.2828 252.67 68.9575 252.67 69.791C252.67 69.8439 252.67 69.91 252.67 69.9762C252.564 70.0952 252.511 70.254 252.511 70.4128C252.511 70.6244 252.604 70.8096 252.762 70.9419C252.908 70.6112 253.278 70.3069 253.755 70.1482C254.072 70.0423 254.376 70.0159 254.641 70.0688C254.601 69.9497 254.575 69.8174 254.575 69.6719C254.575 68.9707 255.144 68.3886 255.845 68.3886C255.911 68.3886 255.977 68.3886 256.043 68.4019C255.554 68.468 255.17 68.8914 255.17 69.3941C255.17 69.7381 255.342 70.0291 255.593 70.2143C255.593 70.2275 255.593 70.254 255.593 70.2672C255.593 70.545 255.726 70.7964 255.924 70.9552C256.017 70.4921 256.414 70.1482 256.903 70.1482C257.326 70.1482 257.67 70.0952 257.922 70.0159C258.358 69.8703 258.676 69.4735 258.676 68.984C258.676 68.6532 258.517 68.349 258.279 68.1505C258.398 67.6081 258.372 66.7217 258.186 65.9809C258.226 65.9809 258.266 65.9809 258.305 65.9809C258.61 65.9809 258.874 66.1396 259.033 66.3778M236.794 75.5722C236.768 75.4532 236.768 75.3341 236.794 75.215C236.847 74.9769 237.046 74.8049 237.297 74.8049C237.588 74.8049 237.813 75.0298 237.813 75.3209C237.813 75.4532 237.76 75.5855 237.667 75.6781C237.76 75.6781 237.866 75.6913 237.972 75.6913C238.236 75.6913 238.488 75.6648 238.713 75.5987C239.07 75.5061 239.348 75.1621 239.348 74.7785C239.348 74.3022 238.964 73.9318 238.488 73.9318C238.461 73.9318 238.435 73.9318 238.408 73.9318C238.527 73.8789 238.66 73.8524 238.792 73.8524C239.334 73.8524 239.784 74.289 239.784 74.8446C239.784 74.8711 239.784 74.8975 239.784 74.924C241.266 74.8975 242.92 73.5481 243.29 73.0322C242.827 73.138 242.324 73.1909 241.808 73.1909C241.213 73.1909 240.644 73.1248 240.128 72.9793C239.401 72.7941 238.686 72.675 238.144 72.675C236.331 72.675 234.863 73.8524 234.863 75.3209C234.863 76.5248 235.855 77.5699 237.231 77.8609C240.366 78.4959 244.057 76.6438 247.179 75.9956C247.96 75.2283 248.86 74.5933 249.852 74.117C249.825 73.9979 249.812 73.8789 249.812 73.7598C245.671 74.4345 241.954 76.5512 238.594 76.538C237.654 76.538 236.913 76.1676 236.794 75.5722ZM236.702 67.9388C236.702 67.9388 236.821 67.9388 236.887 67.9388C236.265 68.1108 235.762 68.5739 235.538 69.1692C235.154 69.3015 234.876 69.6587 234.876 70.082C234.876 70.2805 234.942 70.4657 235.035 70.6244C235.366 70.254 235.802 69.9762 236.305 69.8307C236.45 69.1163 237.046 68.5606 237.787 68.4812C237.138 68.7458 236.689 69.3941 236.689 70.1349C236.689 70.3995 236.741 70.6509 236.847 70.8758C236.966 70.4657 237.337 70.1614 237.787 70.1614C237.892 70.1614 238.011 70.1746 238.104 70.2143C238.236 70.2672 238.395 70.2937 238.541 70.2937C239.255 70.2937 239.837 69.7116 239.837 68.9972C239.837 68.8517 239.811 68.7194 239.771 68.5871C240.115 68.6929 240.366 68.9972 240.366 69.3676C240.366 69.5396 240.313 69.6984 240.221 69.8307C240.313 69.8439 240.419 69.8571 240.512 69.8571C241.359 69.8571 242.046 69.2221 242.152 68.4019C242.576 68.177 242.946 67.8595 243.264 67.4758L243.488 68.5739C243.502 68.6532 243.488 68.7194 243.488 68.7988C243.462 68.8649 243.436 68.9311 243.383 68.984L244.309 68.0314C244.309 68.0314 244.401 67.9124 244.415 67.833C244.441 67.7669 244.441 67.6875 244.415 67.6081L244.137 66.2719C244.123 66.1926 244.137 66.1132 244.137 66.047C244.163 65.9809 244.19 65.9147 244.243 65.8618L244.97 65.121C244.97 65.121 244.878 65.24 244.864 65.3194C244.838 65.3856 244.838 65.4649 244.864 65.5443L245.142 66.8805C245.155 66.9599 245.142 67.026 245.142 67.1054C245.116 67.1715 245.089 67.2377 245.036 67.2906L245.87 66.4307C245.87 66.4307 245.962 66.3116 245.976 66.2455C246.002 66.1793 246.002 66.0999 245.976 66.0206L245.698 64.6844C245.685 64.605 245.698 64.5256 245.698 64.4595C245.724 64.3934 245.751 64.3272 245.804 64.2611L246.531 63.5202C246.531 63.5202 246.439 63.6393 246.425 63.7054C246.412 63.7716 246.399 63.8509 246.425 63.9303L246.703 65.2665C246.716 65.3459 246.703 65.412 246.703 65.4914C246.677 65.5575 246.65 65.6237 246.597 65.6766L247.431 64.8167C247.431 64.8167 247.523 64.6976 247.537 64.6183C247.563 64.5521 247.563 64.4727 247.537 64.3933L247.404 63.7451C247.259 63.0043 248.026 62.1576 248.635 62.065C248.714 61.9194 248.754 61.7739 248.754 61.6152C248.754 60.8611 247.867 60.2525 246.756 60.2525C246.214 60.2525 245.724 60.3981 245.367 60.6362C245.513 61.0595 245.539 61.4961 244.123 61.6945C242.999 61.8533 242.02 62.0782 241.266 62.7132C240.115 63.6922 240.208 65.0019 239.546 65.5046C239.837 65.5708 240.208 65.5708 240.604 65.4914C240.856 65.4385 241.094 65.3591 241.292 65.2533C241.173 65.4914 240.882 65.7163 240.512 65.875C240.393 66.3381 239.983 66.7747 239.427 66.9863C239.07 67.1186 238.726 67.1318 238.435 67.0525L237.085 66.6556C236.913 66.6027 236.741 66.5894 236.569 66.5894C235.577 66.5894 234.744 67.3567 234.625 68.349C234.148 68.4151 233.791 68.8252 233.791 69.3147C233.791 69.4999 233.844 69.6587 233.924 69.8042C234.254 69.4735 234.664 69.2353 235.114 69.103C235.313 68.4283 235.934 67.9256 236.675 67.9256M229.478 80.2687C229.558 79.8321 229.598 79.3956 229.584 78.9854L229.187 79.4485C229.108 79.2633 229.055 79.1442 229.002 79.0648C228.963 78.9854 228.923 78.9325 228.87 78.9325C228.843 78.9325 228.804 78.9722 228.764 78.9722C228.711 78.9722 228.645 78.9722 228.605 78.9722C228.566 78.9722 228.499 78.9722 228.447 78.9722C228.407 78.9722 228.367 78.9458 228.341 78.9325C228.288 78.9325 228.248 78.9987 228.208 79.0648C228.156 79.1574 228.103 79.2633 228.023 79.4485L227.626 78.9854C227.613 79.3956 227.64 79.8321 227.732 80.2687C228.023 80.2025 228.328 80.1761 228.605 80.1761C228.883 80.1761 229.187 80.2025 229.492 80.2687M229.664 81.4593C229.703 80.9566 229.134 80.7846 228.605 80.7846C228.076 80.7846 227.507 80.9566 227.547 81.4593C227.6 82.0679 228.169 81.7769 228.605 81.7769C229.042 81.7769 229.611 82.0679 229.664 81.4593ZM231.185 77.8477C231.079 77.8742 231.026 77.9403 231.013 78.0461C230.947 78.6415 230.709 78.8796 230.325 79.0119C230.325 79.6072 230.233 80.057 230.074 80.6127C230.524 81.5652 230.18 82.2267 229.809 82.3722C229.465 82.5045 229.002 82.3193 228.605 82.3193C228.208 82.3193 227.745 82.5045 227.388 82.3722C227.018 82.2267 226.674 81.5652 227.124 80.6127C226.965 80.057 226.885 79.6072 226.872 79.0119C226.489 78.8796 226.25 78.6415 226.184 78.0461C226.184 77.9403 226.118 77.8742 226.012 77.8477C224.504 77.4376 224.359 75.559 225.126 75.0298C225.06 75.8633 224.98 77.0539 226.7 77.2127C226.674 78.1917 227.097 78.4563 227.534 78.4563C227.891 78.4563 228.103 78.3372 228.182 78.2975C228.499 78.1255 228.288 77.8742 228.195 77.7948C227.97 77.5831 227.864 77.2921 227.917 77.0142C227.917 76.9613 227.944 76.9349 227.997 76.9349H229.161C229.161 76.9349 229.227 76.9613 229.24 77.0142C229.293 77.3053 229.187 77.5963 228.963 77.7948C228.883 77.8742 228.658 78.1255 228.976 78.2975C229.068 78.3504 229.267 78.4563 229.624 78.4563C230.061 78.4563 230.484 78.1917 230.457 77.2127C232.177 77.0539 232.098 75.8765 232.032 75.0298C232.799 75.559 232.654 77.4376 231.145 77.8477M231.608 74.58C231.608 75.0166 231.291 75.4929 230.934 75.4929H230.603C230.682 75.5987 230.735 75.7178 230.735 75.8633C230.735 76.1808 230.484 76.4322 230.153 76.4322C229.822 76.4322 229.571 76.1676 229.571 75.8633C229.571 75.7178 229.624 75.5987 229.703 75.4929H229.359C229.24 75.4929 229.148 75.5458 229.082 75.6781C229.055 75.4929 229.029 75.3077 229.082 75.1754C229.134 75.0034 229.28 74.8975 229.412 74.8975H230.92C231.198 74.8975 231.41 74.8049 231.608 74.58ZM231.41 73.8656H230.881C230.616 73.8656 230.431 73.7598 230.285 73.5878L229.677 72.8073C229.571 72.6882 229.505 72.5956 229.373 72.5427H229.968C230.153 72.5427 230.312 72.6221 230.431 72.7808L231.053 73.5746C231.198 73.7466 231.238 73.8524 231.397 73.8789M228.645 72.5824L229.412 73.6672C229.531 73.8392 229.65 73.945 229.809 74.0112H229.108C228.83 74.0112 228.671 73.8921 228.552 73.6937L227.944 72.7676C227.706 72.4236 227.626 72.331 227.349 72.2384H228.01C228.261 72.2384 228.513 72.4104 228.632 72.5956M226.885 72.7941L227.507 73.5878C227.653 73.7598 227.692 73.8656 227.851 73.8921H227.322C227.057 73.8921 226.872 73.7863 226.727 73.6143L226.118 72.8337C226.026 72.7147 225.946 72.6221 225.814 72.5692H226.409C226.581 72.5692 226.74 72.6485 226.872 72.8073M226.489 75.5326H226.158C225.801 75.5326 225.483 75.0563 225.483 74.6197C225.682 74.8446 225.88 74.9372 226.171 74.9372H227.679C227.812 74.9372 227.944 75.0431 228.01 75.215C228.05 75.3473 228.023 75.5326 228.01 75.7178C227.944 75.5855 227.851 75.5326 227.732 75.5326H227.388C227.468 75.6384 227.521 75.7575 227.521 75.903C227.521 76.2205 227.256 76.4718 226.952 76.4718C226.647 76.4718 226.37 76.2073 226.37 75.903C226.37 75.7575 226.422 75.6384 226.502 75.5326M224.636 82.7294L224.822 82.3722C224.861 82.306 224.875 82.2267 224.875 82.1605C224.875 82.0944 224.861 82.015 224.822 81.9488L225.324 82.8484C225.364 82.9146 225.377 82.994 225.377 83.0601C225.377 83.1395 225.364 83.2056 225.324 83.2718L225.285 83.3644C224.98 83.9597 224.689 85.0842 225.007 85.7325C224.266 85.4546 224.015 84.8064 224.094 84.264C222.692 82.941 222.348 81.5916 223.34 80.4671L223.856 79.8718C223.856 79.8718 223.935 79.7395 223.962 79.6734C223.975 79.6072 223.975 79.5278 223.962 79.4485L224.226 80.4407C224.24 80.5201 224.253 80.5862 224.226 80.6656C224.213 80.7317 224.173 80.8111 224.121 80.864L223.962 81.0492C223.446 81.6578 223.578 82.478 224.398 83.2189C224.478 83.0072 224.544 82.9014 224.636 82.7294ZM258.954 86.4733C259.007 86.341 259.033 86.1955 259.033 86.0367C259.033 85.415 258.53 84.899 257.895 84.899H256.744C256.665 84.899 256.599 84.8858 256.533 84.8461C256.467 84.8064 256.414 84.7667 256.374 84.7006L255.805 83.8539C255.805 83.8539 255.911 83.9729 255.964 83.9994C256.03 84.0391 256.096 84.0523 256.176 84.0523H257.684C257.763 84.0523 257.842 84.0656 257.895 84.1052C257.961 84.1449 258.014 84.1846 258.054 84.2508L257.366 83.2321C257.366 83.2321 257.26 83.113 257.194 83.0866C257.128 83.0469 257.062 83.0337 256.983 83.0337H255.488C255.408 83.0337 255.342 83.0204 255.276 82.9807C255.21 82.941 255.157 82.9014 255.104 82.8352L254.456 81.8827C254.456 81.8827 254.562 82.0018 254.614 82.0282C254.681 82.0679 254.747 82.0811 254.826 82.0811H256.334C256.414 82.0811 256.48 82.0944 256.546 82.134C256.612 82.1605 256.665 82.2134 256.705 82.2796L256.017 81.2609C256.017 81.2609 255.911 81.1418 255.845 81.1154C255.779 81.0757 255.712 81.0625 255.633 81.0625H254.442C254.363 81.0625 254.297 81.0492 254.231 81.0095C254.165 80.9831 254.112 80.9302 254.072 80.864L253.265 79.6866C254.892 79.4882 256.202 78.615 256.453 77.3979C256.797 75.8236 255.223 74.3022 252.961 73.9715C252.577 73.9186 252.286 73.5878 252.286 73.1909C252.286 72.8602 252.498 72.5692 252.802 72.4501C252.564 72.3443 252.286 72.2913 252.008 72.2913C251.003 72.2913 250.196 73.0057 250.196 73.8921C250.196 74.0509 250.222 74.2096 250.275 74.3551C249.151 74.8446 248.132 75.6913 247.351 76.6306C248.185 76.4057 249.071 76.2866 249.971 76.2866C249.971 76.2469 249.971 76.2073 249.971 76.1543C249.971 75.4796 250.513 74.924 251.201 74.924H251.214C250.751 75.1224 250.527 75.5722 250.527 75.8633C250.527 76.2073 250.804 76.4983 251.162 76.4983C251.294 76.4983 251.426 76.4586 251.532 76.3792C251.506 76.2999 251.492 76.2205 251.492 76.1279C251.492 75.6384 251.889 75.2547 252.365 75.2547C252.405 75.2547 252.445 75.2547 252.498 75.2547C252.167 75.4135 251.929 75.7575 251.929 76.1411C251.929 76.6835 252.365 77.1201 252.908 77.1201C252.961 77.1201 253.027 77.1201 253.08 77.1069C253.067 77.0539 253.053 76.9878 253.053 76.9349C253.053 76.5512 253.371 76.2337 253.755 76.2337C254.138 76.2337 254.456 76.5512 254.456 76.9349C254.456 77.7816 253.516 77.8609 252.828 77.6625C250.87 77.0936 249.045 76.8423 247.272 77.0936C244.997 77.4111 241.279 78.9457 237.324 78.8267C236.437 78.8002 235.471 78.6547 234.506 78.3901C234.625 78.5224 234.704 78.615 234.757 78.6812C235.141 79.2765 235.273 79.9115 234.929 80.692C234.929 79.8057 234.215 79.0913 233.606 78.6415C233.355 78.4563 233.262 78.2975 233.302 78.0594L233.487 77.0407C233.474 77.1201 233.487 77.1862 233.5 77.2524C233.527 77.3185 233.566 77.3847 233.619 77.4376L234.003 77.808C234.148 76.7761 233.91 75.8236 233.302 74.9372C233.566 74.2228 233.606 73.4423 233.434 72.7147C233.368 73.2703 233.09 73.5084 232.826 73.6672C232.349 73.9715 232.27 74.4742 232.508 74.8182C232.098 74.6065 231.542 73.8524 231.873 73.4158C232.217 72.9396 233.183 73.1645 233.302 72.3443C232.68 72.1458 232.045 72.2913 231.847 72.3443C231.476 71.9209 230.987 71.7092 230.378 71.7225C229.902 71.2859 229.28 71.1007 228.526 71.1801C227.772 71.1007 227.163 71.2859 226.674 71.7225C226.065 71.7225 225.576 71.9341 225.205 72.3443C225.007 72.2913 224.372 72.1458 223.75 72.3443C223.869 73.1645 224.822 72.9396 225.179 73.4158C225.51 73.8524 224.941 74.6065 224.544 74.8182C224.795 74.4742 224.716 73.9715 224.226 73.6672C223.975 73.5084 223.697 73.2703 223.618 72.7147C223.433 73.4555 223.472 74.2361 223.75 74.9372C223.142 75.8236 222.903 76.7761 223.049 77.808L223.433 77.4376C223.433 77.4376 223.525 77.3185 223.552 77.2524C223.578 77.1862 223.578 77.1069 223.565 77.0407L223.75 78.0594C223.79 78.2843 223.697 78.4563 223.446 78.6415C222.837 79.0913 222.11 79.8057 222.123 80.692C221.779 79.9115 221.924 79.25 222.295 78.6812C221.131 78.0594 220.258 77.0275 220.086 76.8423C219.742 76.4322 219.781 75.9162 220.099 75.4664C220.707 74.5933 220.853 73.654 220.099 73.019C220.099 72.9793 220.099 72.9263 220.099 72.8734C220.099 72.2913 219.689 71.8151 219.133 71.696C219.239 71.8548 219.292 72.04 219.292 72.2384C219.292 72.4765 219.212 72.6882 219.08 72.8602C219.186 73.0057 219.252 73.1777 219.252 73.3761C219.252 73.6407 219.133 73.8656 218.948 74.0244C218.961 73.9318 218.974 73.8392 218.974 73.7466C218.974 73.1512 218.604 72.6485 218.101 72.5162C218.022 72.0797 217.638 71.7489 217.175 71.7489C216.91 71.7489 216.672 71.8548 216.5 72.04C216.858 72.0664 217.135 72.3443 217.175 72.7014C217.003 72.8337 216.871 73.0057 216.778 73.2042H216.805C217.413 73.2042 217.916 73.7069 217.916 74.3154C217.916 74.3816 217.916 74.4477 217.903 74.5139C217.85 74.2625 217.744 74.0244 217.559 73.8524C217.215 73.5217 216.712 73.4423 216.262 73.6275C216.09 73.4158 215.826 73.2703 215.535 73.2703C215.204 73.2703 214.9 73.4423 214.741 73.7069C215.085 73.7201 215.376 73.8921 215.561 74.1435C215.085 74.7652 215.072 75.6119 215.561 76.0882C215.892 76.4189 216.368 76.4851 216.818 76.3395C216.844 76.3395 216.884 76.3263 216.91 76.3263C217.069 76.3263 217.202 76.4586 217.202 76.6174C217.202 76.7761 217.069 76.9084 216.91 76.9084C216.844 76.9084 216.778 76.882 216.725 76.8423C216.619 76.7497 216.461 76.6967 216.315 76.6967C215.958 76.6967 215.667 76.9878 215.667 77.345C215.667 77.3714 215.667 77.3979 215.667 77.4244C215.601 77.4376 215.548 77.4508 215.468 77.4508C215.296 77.4508 215.138 77.3847 215.019 77.2656C215.005 77.3318 214.992 77.4111 214.992 77.4905C214.992 77.9403 215.349 78.324 215.799 78.3504C215.998 78.8531 216.487 79.1971 217.056 79.1971C217.347 79.1971 217.625 79.1045 217.837 78.9457C217.929 78.8796 218.048 78.8399 218.181 78.8399C218.511 78.8399 218.776 79.1045 218.776 79.4352C218.776 79.7131 218.577 79.9512 218.313 80.0173L217.85 80.1232C217.77 80.1364 217.691 80.1232 217.625 80.1232C217.559 80.1099 217.493 80.0703 217.44 80.0173L218.498 81.0228C218.498 81.0228 218.617 81.1154 218.696 81.1286C218.763 81.1418 218.842 81.1551 218.921 81.1286L219.795 80.9302C219.874 80.9169 219.94 80.9302 220.019 80.9302C220.086 80.9434 220.152 80.9831 220.218 81.036L220.945 81.7239C220.945 81.7239 220.826 81.6313 220.747 81.6181C220.681 81.6049 220.601 81.5916 220.522 81.6181L219.649 81.8033C219.57 81.8165 219.49 81.8165 219.424 81.8033C219.358 81.7901 219.292 81.7504 219.226 81.6975L220.205 82.6235C220.205 82.6235 220.324 82.7161 220.39 82.7294C220.456 82.7426 220.535 82.7558 220.615 82.7294L221.488 82.5442C221.567 82.5309 221.633 82.5442 221.713 82.5442C221.779 82.5574 221.845 82.5971 221.911 82.65L222.639 83.3379C222.639 83.3379 222.52 83.2453 222.44 83.2321C222.374 83.2189 222.295 83.2056 222.215 83.2321L221.342 83.4305C221.263 83.4438 221.184 83.4305 221.117 83.4305C221.051 83.4173 220.985 83.3776 220.919 83.3247L221.898 84.2508C221.898 84.2508 222.017 84.3434 222.096 84.3566C222.163 84.3831 222.242 84.3831 222.321 84.3566L223.366 84.1317C222.348 84.7138 221.263 85.362 220.112 86.0897C219.424 86.5262 218.683 86.6056 217.823 86.2749C217.36 86.1029 216.858 86.0764 216.553 86.1293C216.143 86.1955 215.799 86.4469 215.588 86.7908C215.746 86.7247 215.918 86.685 216.103 86.685C216.487 86.685 216.831 86.8437 217.082 87.0819C216.686 86.9099 216.196 86.8967 215.707 87.0819C214.847 87.3994 214.344 88.2064 214.542 88.934C214.225 89.0531 214 89.3706 214 89.7278C214 89.9659 214.093 90.1776 214.251 90.3363C214.331 89.9527 214.675 89.6748 215.072 89.6484C215.244 89.7542 215.442 89.8336 215.64 89.8733C215.707 89.7674 215.786 89.6616 215.879 89.5822C215.879 89.5161 215.865 89.4367 215.865 89.3706C215.865 88.59 216.5 87.955 217.281 87.955C217.347 87.955 217.413 87.955 217.479 87.955C216.858 88.1005 216.395 88.6694 216.395 89.3309C216.395 89.4102 216.395 89.5029 216.421 89.5822C216.09 89.7145 215.852 90.032 215.852 90.4157C215.852 90.6274 215.932 90.839 216.064 90.9846C216.302 90.5083 216.778 90.1776 217.321 90.1246C217.532 90.1908 217.744 90.2173 217.969 90.2173C218.114 90.2173 218.247 90.2172 218.379 90.1776C218.26 90.0056 218.181 89.7807 218.181 89.5558C218.181 88.9472 218.67 88.4577 219.292 88.4577C219.345 88.4577 219.398 88.4577 219.451 88.4577C218.868 88.7091 218.511 89.2118 218.63 89.6748C218.723 90.0056 219.027 90.2305 219.424 90.2966C219.424 90.548 219.358 90.7729 219.239 90.9713C219.755 90.9316 220.191 90.6274 220.403 90.1908C221.012 89.9527 221.382 89.4367 221.25 88.9604C221.21 88.7885 221.104 88.6562 220.959 88.5371C220.959 88.5239 220.959 88.5106 220.959 88.4842C220.959 88.1667 221.223 87.9021 221.541 87.9021C221.858 87.9021 222.123 88.1667 222.123 88.4842C222.123 88.6429 222.07 88.7752 221.964 88.8811H223.194C223.274 88.8811 223.34 88.8546 223.406 88.8282C223.472 88.7885 223.525 88.7488 223.565 88.6826L224.359 87.5184C224.359 87.5184 224.425 87.4391 224.478 87.4126C224.517 87.3861 224.57 87.3729 224.623 87.3729H225.589C225.589 87.3729 225.483 87.3729 225.443 87.4126C225.404 87.4391 225.364 87.4655 225.338 87.5184L224.544 88.6826C224.544 88.6826 224.438 88.8017 224.385 88.8282C224.319 88.8678 224.253 88.8811 224.173 88.8811H225.642C225.721 88.8811 225.787 88.8546 225.854 88.8282C225.92 88.7885 225.973 88.7488 226.012 88.6826L226.899 87.3729C226.29 87.0422 226.039 86.4601 226.039 85.6531C226.039 85.1504 226.317 84.5815 226.356 84.2243V84.0788C226.383 83.9994 226.37 83.92 226.356 83.8539C226.33 83.801 226.29 83.7216 226.25 83.6687L227.005 84.436C227.005 84.436 227.11 84.555 227.137 84.6212C227.163 84.6873 227.177 84.7667 227.163 84.8461L227.137 85.0181C227.097 85.3223 226.714 85.9838 227.428 86.5924C227.468 86.6188 227.547 86.685 227.64 86.7379L228.156 87.0554V85.1768H228.87V87.2671C228.87 87.3465 228.896 87.4126 228.936 87.4788C228.976 87.5449 229.015 87.5978 229.082 87.6375L229.783 88.0873C229.849 88.127 229.928 88.1534 229.994 88.1534C230.074 88.1534 230.14 88.1535 230.206 88.1138L231.489 87.5581C231.423 87.5846 231.344 87.5978 231.278 87.5978C231.198 87.5978 231.132 87.5714 231.066 87.5317L229.598 86.5924C230.312 85.9838 229.928 85.3223 229.889 85.0181L229.862 84.8461C229.862 84.7667 229.862 84.7006 229.889 84.6212C229.915 84.555 229.955 84.4889 230.021 84.436L230.775 83.6687C230.775 83.6687 230.682 83.801 230.669 83.8539C230.643 83.92 230.629 83.9994 230.643 84.0788V84.2243C230.722 84.7535 231.251 85.6928 230.801 86.2219L232.151 87.0819C232.217 87.1216 232.296 87.148 232.362 87.148C232.442 87.148 232.508 87.148 232.587 87.1083L233.937 86.5262C233.871 86.5527 233.791 86.5659 233.725 86.5659C233.646 86.5659 233.58 86.5395 233.513 86.4998L232.058 85.5737C232.376 84.9255 232.111 83.8936 231.807 83.2982L231.754 83.2056C231.714 83.1395 231.701 83.0601 231.701 82.994C231.701 82.9278 231.714 82.8484 231.754 82.7823L232.257 81.8827C232.217 81.9488 232.204 82.0282 232.204 82.0944C232.204 82.1605 232.204 82.2399 232.257 82.306L232.442 82.6632C232.534 82.8352 232.587 82.941 232.68 83.1527C233.5 82.4119 233.685 81.6975 233.156 81.0889L232.997 80.9037C232.997 80.9037 232.918 80.7714 232.905 80.7053C232.892 80.6391 232.892 80.5597 232.905 80.4804L233.169 79.4882C233.143 79.5675 233.143 79.6337 233.169 79.7131C233.183 79.7792 233.222 79.8586 233.275 79.9115L233.791 80.5068C234.783 81.6313 234.188 83.0866 232.997 84.1978C233.064 84.4095 233.117 84.8064 233.077 85.0181L234.651 86.0235C234.651 86.0235 234.797 86.0897 234.863 86.0897C234.929 86.0897 235.008 86.0897 235.075 86.05L236.212 85.5472C236.212 85.5472 236.08 85.5869 236.001 85.5869C235.71 85.5869 235.471 85.3488 235.471 85.0578C235.471 84.8196 235.63 84.6212 235.842 84.555C240.208 83.2321 244.229 79.8057 246.862 79.8057C248.145 79.8057 249.19 80.5862 249.19 81.552C249.19 81.7107 249.164 81.8562 249.111 82.0018C248.542 83.5761 249.362 85.0842 251.532 85.6663C251.876 85.7589 252.127 86.0764 252.127 86.4468C252.127 86.5262 252.127 86.5924 252.101 86.6585C252.154 86.6585 252.207 86.6585 252.246 86.6585C252.842 86.6585 253.371 86.3675 253.688 85.9044C254.059 85.9044 254.469 85.878 254.879 85.8383C254.932 85.9441 254.972 86.05 254.998 86.1823C255.091 86.6321 254.932 87.0422 254.654 87.1348C254.151 87.2935 253.543 87.1083 253.08 87.1083C252.193 87.1083 251.466 87.8359 251.466 88.7355C251.466 88.8017 251.466 88.8678 251.479 88.9472C251.201 89.1192 251.016 89.4367 251.016 89.7807C251.016 89.9527 251.069 90.1246 251.148 90.2702C251.426 89.9527 251.783 89.7013 252.18 89.5558C252.22 88.7752 252.855 88.1534 253.649 88.1534C253.768 88.1534 253.887 88.1667 254.006 88.1931C253.212 88.299 252.59 88.9737 252.59 89.8071C252.59 89.86 252.59 89.9262 252.59 89.9923C252.484 90.1114 252.432 90.2702 252.432 90.4289C252.432 90.6406 252.524 90.8258 252.683 90.9581C252.828 90.6274 253.199 90.3231 253.675 90.1643C253.993 90.0585 254.297 90.032 254.562 90.0849C254.522 89.9659 254.495 89.8336 254.495 89.6881C254.495 88.9869 255.064 88.418 255.765 88.418C255.832 88.418 255.898 88.418 255.964 88.4313C255.474 88.4974 255.091 88.9208 255.091 89.4235C255.091 89.7674 255.263 90.0585 255.514 90.2437C255.514 90.2569 255.514 90.2834 255.514 90.2966C255.514 90.5744 255.646 90.8258 255.845 90.9846C255.937 90.5215 256.334 90.1776 256.824 90.1776C257.247 90.1776 257.591 90.1246 257.842 90.0453C258.279 89.8997 258.596 89.5029 258.596 89.0134C258.596 88.6826 258.438 88.3784 258.2 88.1799C258.319 87.6375 258.292 86.7511 258.107 86.0103C258.147 86.0103 258.186 86.0103 258.226 86.0103C258.53 86.0103 258.795 86.169 258.954 86.4072M274.789 16H273.294V106H274.789V16Z" fill="#003087"></path><path d="M386.605 57.5802H384.938V67.1583H386.605V57.5802ZM372.674 75.5722V85.1504H374.341V78.8267H374.394L376.458 85.1504H377.582L379.633 78.8664H379.686V85.1504H381.353V75.5722H379.262L377.04 83.0998H376.987L374.778 75.5722H372.674ZM364.855 75.5722H363.189V81.8562C363.189 82.941 363.519 83.7745 364.168 84.3831C364.816 84.9916 365.676 85.2959 366.734 85.2959C367.792 85.2959 368.652 84.9916 369.301 84.3831C369.949 83.7745 370.28 82.941 370.28 81.8562V75.5722H368.613V81.843C368.613 82.5309 368.441 83.0733 368.11 83.457C367.779 83.8406 367.316 84.0391 366.734 84.0391C366.152 84.0391 365.702 83.8406 365.358 83.457C365.014 83.0733 364.855 82.5442 364.855 81.843V75.5722ZM360.82 75.5722H359.154V85.1504H360.82V75.5722ZM351.745 76.8423H353.28C353.756 76.8423 354.126 76.9878 354.365 77.2788C354.603 77.5699 354.722 77.9668 354.722 78.4563C354.722 78.9458 354.603 79.3426 354.365 79.6072C354.126 79.8718 353.756 80.0041 353.28 80.0041H351.745V76.8423ZM353.28 75.5722H350.078V85.1504H351.745V81.2741H353.425C353.862 81.2741 354.206 81.4197 354.444 81.6975C354.682 81.9753 354.801 82.3722 354.801 82.8749V83.7348C354.801 84.0126 354.801 84.3037 354.814 84.5683C354.828 84.8461 354.867 85.0313 354.92 85.1504H356.64V85.0181C356.574 84.899 356.521 84.727 356.494 84.4757C356.468 84.2243 356.455 83.9862 356.455 83.748V82.8617C356.455 82.2796 356.336 81.8033 356.111 81.4064C355.886 81.0095 355.502 80.745 355 80.5862C355.463 80.3745 355.807 80.0835 356.058 79.7131C356.296 79.3426 356.415 78.9061 356.415 78.3901C356.415 77.5037 356.137 76.8158 355.595 76.3263C355.039 75.8368 354.285 75.5855 353.306 75.5855M350.502 57.5934H348.835V67.1715H350.502V57.5934ZM347.842 75.5855H342.048V85.1636H347.842V83.8936H343.715V80.8111H347.247V79.5411H343.715V76.8423H347.842V75.5722V75.5855ZM339.786 75.5855H333.991V85.1636H339.786V83.8936H335.658V80.8111H339.19V79.5411H335.658V76.8423H339.786V75.5722V75.5855ZM332.404 75.5855H325.842V76.8555H328.263V85.1636H329.916V76.8555H332.39V75.5855H332.404ZM318.354 82.3325L318.327 82.3854C318.301 83.3644 318.592 84.1052 319.227 84.5815C319.849 85.071 320.669 85.3091 321.688 85.3091C322.706 85.3091 323.513 85.071 324.109 84.5947C324.704 84.1185 325.008 83.4702 325.008 82.65C325.008 81.8298 324.77 81.2344 324.294 80.8111C323.818 80.3878 323.077 80.0306 322.071 79.7395C321.331 79.5146 320.841 79.2897 320.59 79.0516C320.352 78.8267 320.233 78.5092 320.233 78.0991C320.233 77.689 320.352 77.3714 320.603 77.1201C320.841 76.8555 321.225 76.7364 321.727 76.7364C322.23 76.7364 322.601 76.8952 322.865 77.1995C323.117 77.5037 323.249 77.9139 323.249 78.4298H324.85V78.3769C324.889 77.464 324.625 76.7497 324.069 76.2469C323.513 75.731 322.733 75.4796 321.741 75.4796C320.748 75.4796 320.008 75.731 319.439 76.2073C318.87 76.6967 318.592 77.3318 318.592 78.1255C318.592 78.9193 318.83 79.5543 319.306 79.9644C319.783 80.3745 320.537 80.7317 321.582 81.0095C322.257 81.2344 322.733 81.4726 322.984 81.7107C323.236 81.9488 323.368 82.2663 323.368 82.6632C323.368 83.0601 323.236 83.4041 322.945 83.6554C322.667 83.92 322.257 84.0391 321.701 84.0391C321.198 84.0391 320.775 83.9068 320.444 83.6422C320.113 83.3776 319.955 82.941 319.955 82.3325H318.354ZM306.315 75.5855H304.661V85.1636H306.315V78.5489H306.368L310.046 85.1636H311.713V75.5855H310.046V82.2002H309.993L306.315 75.5855ZM302.174 75.5855H300.507V85.1636H302.174V75.5855ZM299.899 61.3638C299.899 60.5436 300.058 59.8953 300.388 59.4323C300.719 58.956 301.182 58.7311 301.764 58.7311C302.346 58.7311 302.809 58.9693 303.153 59.4323C303.484 59.9086 303.656 60.5436 303.656 61.3638V63.3615C303.656 64.1949 303.497 64.8564 303.153 65.3326C302.823 65.8089 302.36 66.047 301.777 66.047C301.195 66.047 300.719 65.8089 300.388 65.3326C300.058 64.8564 299.886 64.2081 299.886 63.3615V61.3638H299.899ZM299.211 58.5459C298.563 59.2736 298.232 60.2128 298.232 61.377V63.3747C298.232 64.5521 298.563 65.5046 299.211 66.219C299.872 66.9334 300.719 67.3038 301.777 67.3038C302.836 67.3038 303.669 66.9466 304.331 66.219C304.979 65.5046 305.31 64.5521 305.31 63.3747V61.377C305.31 60.2128 304.979 59.2603 304.317 58.5459C303.656 57.8183 302.809 57.4611 301.764 57.4611C300.719 57.4611 299.859 57.8183 299.211 58.5459ZM291.406 75.5855H289.302V85.1636H290.969V78.8399H291.022L293.086 85.1636H294.21L296.261 78.8796H296.314V85.1636H297.981V75.5855H295.89L293.668 83.113H293.615L291.406 75.5855ZM289.315 55.1989V67.1715H290.982V61.8004H292.12L295.374 67.1715H297.412L293.364 60.8875L297.134 55.1989H295.149L291.988 60.4642H290.995V55.1989H289.315ZM297.61 49.1795H299.264V37.2068H297.107L294.303 46.9702H294.25L291.458 37.2068H289.315V49.1795H290.969V44.5889L290.81 39.9982H290.863L293.734 49.1927H294.832L297.716 39.985H297.769L297.623 44.6021V49.1927L297.61 49.1795ZM306.262 45.753H303.802L305.005 41.943H305.058L306.262 45.753ZM307.347 49.1795H309.093L305.905 39.6013H304.185L300.984 49.1795H302.73L303.418 47.0231H306.672L307.36 49.1795H307.347ZM315.232 48.4783C315.774 47.9227 316.052 47.1686 316.052 46.2293V39.6013H314.385V46.2161C314.385 46.7717 314.266 47.2215 314.028 47.5523C313.79 47.883 313.486 48.055 313.115 48.055C312.692 48.055 312.348 47.9094 312.096 47.6316C311.845 47.3538 311.726 46.9305 311.726 46.3616H310.125V46.4145C310.086 47.367 310.337 48.0814 310.893 48.5709C311.435 49.0604 312.176 49.3118 313.128 49.3118C313.988 49.3118 314.689 49.034 315.232 48.4783ZM314.504 67.1715H316.171V57.5934H314.081L311.858 65.121H311.805L309.596 57.5934H307.493V67.1715H309.159V60.8479H309.212L311.276 67.1715H312.401L314.451 60.8875H314.504V67.1715ZM314.57 85.1636H316.237V75.5855H314.57V85.1636ZM322.984 45.753H320.524L321.727 41.943H321.78L322.984 45.753ZM324.069 49.1795H325.815L322.627 39.6013H320.907L317.706 49.1795H319.452L320.14 47.0231H323.394L324.082 49.1795H324.069ZM325.696 67.1715H327.363V57.5934H325.273L323.05 65.121H322.997L320.788 57.5934H318.685V67.1715H320.352V60.8479H320.405L322.468 67.1715H323.593L325.643 60.8875H325.696V67.1715ZM332.853 49.1795H334.52V39.6013H332.853V46.2161H332.801L329.123 39.6013H327.469V49.1795H329.123V42.5647H329.176L332.853 49.1795ZM335.883 66.4042C336.531 65.7957 336.862 64.9622 336.862 63.8774V57.5934H335.195V63.8642C335.195 64.5521 335.023 65.0945 334.692 65.4782C334.362 65.8618 333.899 66.0603 333.316 66.0603C332.734 66.0603 332.285 65.8618 331.941 65.4782C331.597 65.0945 331.425 64.5653 331.425 63.8642V57.5934H329.771V63.8774C329.771 64.9622 330.102 65.7957 330.75 66.4042C331.398 67.0128 332.258 67.3171 333.316 67.3171C334.375 67.3171 335.235 67.0128 335.883 66.4042ZM341.969 45.2503C341.969 46.0176 341.797 46.6526 341.439 47.1686C341.082 47.6713 340.632 47.9227 340.103 47.9227H338.727V40.8714H340.103C340.646 40.8714 341.082 41.1227 341.439 41.6255C341.797 42.1282 341.969 42.7632 341.969 43.5173V45.2503ZM342.617 48.0814C343.291 47.3538 343.622 46.4145 343.622 45.2636V43.5305C343.622 42.3795 343.291 41.4402 342.617 40.6994C341.942 39.9585 341.109 39.6013 340.09 39.6013H337.047V49.1795H340.09C341.095 49.1795 341.942 48.8091 342.617 48.0814ZM344.628 57.5934V64.2081H344.575L340.897 57.5934H339.23V67.1715H340.897V60.5568H340.95L344.628 67.1715H346.295V57.5934H344.628ZM351.838 48.4122C352.486 47.8036 352.817 46.9702 352.817 45.8853V39.6013H351.15V45.8721C351.15 46.56 350.978 47.1024 350.647 47.4861C350.316 47.8698 349.853 48.0682 349.271 48.0682C348.689 48.0682 348.239 47.8698 347.895 47.4861C347.551 47.1024 347.379 46.5733 347.379 45.8721V39.6013H345.726V45.8853C345.726 46.9702 346.056 47.8036 346.705 48.4122C347.353 49.0207 348.213 49.325 349.271 49.325C350.33 49.325 351.189 49.0207 351.838 48.4122ZM355.264 61.7078H354.629V57.5934H352.962V67.1715H354.629V63.0836H355.357L357.619 67.1715H359.749L356.653 62.0782L359.564 57.5934H357.487L355.264 61.7078ZM357.077 43.0675C356.838 42.8426 356.719 42.5118 356.719 42.1149C356.719 41.7181 356.838 41.3873 357.09 41.136C357.328 40.8714 357.712 40.7523 358.214 40.7523C358.717 40.7523 359.087 40.9111 359.339 41.2153C359.59 41.5196 359.722 41.9297 359.722 42.4457H361.323V42.3928C361.363 41.4799 361.098 40.7655 360.543 40.2628C359.987 39.7469 359.207 39.4955 358.214 39.4955C357.222 39.4955 356.481 39.7469 355.912 40.2231C355.344 40.7126 355.066 41.3476 355.066 42.1414C355.066 42.9352 355.304 43.5702 355.78 43.9803C356.256 44.3904 357.01 44.7344 358.056 45.0254C358.73 45.2503 359.207 45.4885 359.458 45.7266C359.709 45.9647 359.842 46.2822 359.842 46.6791C359.842 47.076 359.696 47.42 359.418 47.6845C359.14 47.9359 358.717 48.0682 358.175 48.0682C357.672 48.0682 357.249 47.9359 356.918 47.6713C356.587 47.4067 356.428 46.9702 356.428 46.3616H354.841L354.814 46.4145C354.788 47.3935 355.092 48.1343 355.714 48.6106C356.336 49.0869 357.156 49.3382 358.188 49.3382C359.22 49.3382 360.014 49.1001 360.609 48.6238C361.204 48.1476 361.508 47.4993 361.508 46.6791C361.508 45.8589 361.27 45.2636 360.794 44.8402C360.318 44.4169 359.577 44.0597 358.571 43.7686C357.831 43.5437 357.341 43.3056 357.09 43.0807M363.122 44.7344H366.787V43.4643H363.122V44.7344ZM365.557 63.7583H363.096L364.3 59.9482H364.353L365.557 63.7583ZM366.641 67.1848H368.388L365.199 57.6066H363.48L360.278 67.1848H362.024L362.712 65.0284H365.954L366.641 67.1848ZM375.016 57.6066H368.454V58.8767H370.875V67.1848H372.542V58.8767H375.016V57.6066ZM377.331 48.4915C377.873 47.9359 378.151 47.1818 378.151 46.2425V39.6146H376.497V46.2293C376.497 46.7849 376.378 47.2347 376.14 47.5655C375.902 47.8962 375.598 48.0682 375.227 48.0682C374.804 48.0682 374.46 47.9227 374.209 47.6449C373.957 47.367 373.838 46.9437 373.838 46.3748H372.238V46.4277C372.198 47.3803 372.449 48.0947 373.005 48.5842C373.547 49.0736 374.288 49.325 375.241 49.325C376.101 49.325 376.802 49.0472 377.344 48.4915M381.961 58.2417C381.406 57.7257 380.625 57.4743 379.633 57.4743C378.641 57.4743 377.9 57.7125 377.331 58.202C376.762 58.6915 376.484 59.3265 376.484 60.1202C376.484 60.914 376.722 61.549 377.199 61.9591C377.675 62.3692 378.429 62.7264 379.474 63.0043C380.149 63.2292 380.625 63.4673 380.876 63.7054C381.128 63.9435 381.26 64.2611 381.26 64.6579C381.26 65.0548 381.114 65.3988 380.837 65.6634C380.559 65.9147 380.149 66.047 379.593 66.047C379.09 66.047 378.667 65.9147 378.336 65.6501C378.006 65.3856 377.847 64.949 377.847 64.3404H376.246L376.22 64.3933C376.193 65.3723 376.484 66.1132 377.119 66.5894C377.741 67.0789 378.561 67.3171 379.58 67.3171C380.599 67.3171 381.406 67.0789 382.001 66.6027C382.596 66.1264 382.9 65.4782 382.9 64.6579C382.9 63.8377 382.662 63.2424 382.186 62.819C381.71 62.3957 380.969 62.0385 379.964 61.7475C379.223 61.5226 378.72 61.2977 378.482 61.0595C378.244 60.8346 378.125 60.5039 378.125 60.107C378.125 59.7101 378.244 59.3794 378.495 59.128C378.733 58.8634 379.117 58.7444 379.62 58.7444C380.122 58.7444 380.493 58.9031 380.744 59.2074C380.995 59.5117 381.128 59.9218 381.128 60.4377H382.728V60.3848C382.768 59.472 382.504 58.7576 381.948 58.2549M385.07 45.7795H382.609L383.813 41.9694H383.866L385.07 45.7795ZM386.155 49.2059H387.901L384.713 39.6278H382.993L379.792 49.2059H381.538L382.226 47.0495H385.48L386.168 49.2059H386.155ZM394.265 63.4011C394.265 64.2346 394.106 64.8961 393.762 65.3723C393.431 65.8486 392.968 66.0867 392.386 66.0867C391.804 66.0867 391.328 65.8486 390.997 65.3723C390.666 64.8961 390.494 64.2478 390.494 63.4011V61.4035C390.494 60.5833 390.653 59.935 390.984 59.472C391.314 58.9957 391.777 58.7708 392.36 58.7708C392.942 58.7708 393.405 59.009 393.735 59.472C394.066 59.9483 394.238 60.5833 394.238 61.4035V63.4011H394.265ZM394.952 66.2587C395.601 65.5443 395.931 64.5918 395.931 63.4144V61.4167C395.931 60.2525 395.601 59.3 394.939 58.5856C394.278 57.858 393.431 57.5008 392.386 57.5008C391.341 57.5008 390.481 57.858 389.833 58.5856C389.184 59.3132 388.854 60.2525 388.854 61.4167V63.4144C388.854 64.5918 389.184 65.5443 389.833 66.2587C390.494 66.9731 391.341 67.3435 392.399 67.3435C393.458 67.3435 394.291 66.9863 394.952 66.2587ZM403.261 63.4011C403.261 64.2346 403.102 64.8961 402.758 65.3723C402.427 65.8486 401.964 66.0867 401.382 66.0867C400.8 66.0867 400.324 65.8486 399.993 65.3723C399.662 64.8961 399.49 64.2478 399.49 63.4011V61.4035C399.49 60.5833 399.649 59.935 399.98 59.472C400.31 58.9957 400.773 58.7708 401.356 58.7708C401.938 58.7708 402.401 59.009 402.731 59.472C403.062 59.9483 403.234 60.5833 403.234 61.4035V63.4011H403.261ZM403.949 66.2587C404.597 65.5443 404.928 64.5918 404.928 63.4144V61.4167C404.928 60.2525 404.597 59.3 403.935 58.5856C403.274 57.858 402.427 57.5008 401.382 57.5008C400.337 57.5008 399.477 57.858 398.829 58.5856C398.18 59.3132 397.85 60.2525 397.85 61.4167V63.4144C397.85 64.5918 398.18 65.5443 398.829 66.2587C399.49 66.9731 400.337 67.3435 401.395 67.3435C402.454 67.3435 403.287 66.9863 403.949 66.2587ZM412.495 67.198H414.162V57.6199H412.495V64.2346H412.442L408.764 57.6199H407.097V67.198H408.764V60.5833H408.817L412.495 67.198ZM416.702 67.198H418.369V57.6199H416.702V67.198ZM424.057 61.4696H420.393V62.7397H424.057V61.4696Z" fill="#003087"></path></svg> 