<?xml version="1.0" standalone="no"?>
<!DOCTYPE svg PUBLIC "-//W3C//DTD SVG 1.1//EN" "http://www.w3.org/Graphics/SVG/1.1/DTD/svg11.dtd">
<svg xmlns="http://www.w3.org/2000/svg" xmlns:xlink="http://www.w3.org/1999/xlink" width="1282" height="564" viewBox="0 0 1282 564" version="1.1">
    <!-- Generator: Sketch 52.6 (67491) - http://www.bohemiancoding.com/sketch -->
    <title>Group</title>
    <desc>Created with Sketch.</desc>
    <g id="Page-1" stroke="none" stroke-width="1" fill="none" fill-rule="evenodd">
        <g id="Logo-ENG" transform="translate(-15.000000, -9.000000)">
            <g id="Group" transform="translate(15.000000, 9.000000)">
                <text id="Tallinna-Tehnikaülik" font-family="Merge-Light, Merge" font-size="70" font-weight="300" fill="#000000">
                    <tspan x="540" y="219">Tallinna Tehnikaülikooli</tspan>
                </text>
                <text id="TalTech-Robotics-Clu" font-family="Merge-Light, Merge" font-size="74" font-weight="300" fill="#808080">
                    <tspan x="537" y="420">TalTech Robotics Club</tspan>
                </text>
                <text id="Robotiklubi" font-family="Merge-Light, Merge" font-size="146" font-weight="300" fill="#000000">
                    <tspan x="532" y="342">Robotiklubi</tspan>
                </text>
                <g id="Logo" fill="#00AEEF">
                    <path d="M178.380982,43.5796917 C177.248048,36.2998871 174.214455,31.7788601 169.594132,26.1599363 C166.952171,22.9457809 162.625572,18.6571214 163.791143,14.0409642 C165.590784,6.91399177 174.506625,7.72493831 179.935077,8.67000292 C193.093596,10.9593674 224.209677,19.8844578 207.296466,38.5689778 C205.260602,40.817795 202.755402,42.4272119 200.13209,43.8931537 C194.714516,46.9186081 188.812065,49.1315564 183.043266,51.3772545 C205.339861,60.7655202 236.1933,27.0550966 212.424978,10.8299278 C202.854864,4.28465359 178.878293,-2.34639384 167.502321,0.811619103 C150.719653,5.47300216 154.654621,23.3060284 164.394131,32.3979866 C168.762691,36.4901476 173.479368,40.4606666 178.380982,43.5796917" id="Fill-2"/>
                    <path d="M167,7 L168.555556,9 L167,7 Z M179.444444,7 L181,9 L179.444444,7 Z" id="Fill-3"/>
                    <polyline id="Fill-5" points="232 9 234 11 232 9"/>
                    <path d="M199,59.0250839 C210.627889,65.8862893 224.82392,56.3857965 229.083046,44.8944551 C230.981444,40.4040553 230.493782,35.4740359 231.123943,30.7638263 C231.788936,26.0536167 233.156923,16.0868132 240.166273,16.9095298 C246.170216,17.6003605 250.400842,24.7253376 253.307814,29.1937565 C261.453986,41.7543154 268.268587,62.733589 254.245138,74.0443723 C241.736925,84.1462018 226.627319,70.733095 213.249864,71.5856429 C217.999818,76.7087809 223.992678,80.1189726 230.666364,82.576132 C234.651576,83.789796 239.09595,84.8935551 243.332909,84.9893294 C278.08516,85.7743643 271.582472,43.0386326 258.469431,24.4835469 C253.149482,16.9550618 244.843395,5.64270843 233.833,9.94941008 C222.749773,14.5952468 226.190323,32.531725 222.515442,41.7543154 C217.999818,52.4245102 208.271911,54.3839574 199,59.0250839" id="Fill-6"/>
                    <polyline id="Fill-7" points="155 11 157 13 155 11"/>
                    <polyline id="Fill-8" points="195 11 197 13 195 11"/>
                    <polyline id="Fill-9" points="199 12 201 14 199 12"/>
                    <polyline id="Fill-10" points="248 12 250 14 248 12"/>
                    <path d="M161.666,14.334 C161.556,14.444 161.444,16.556 162.334,15.666 C162.444,15.556 162.556,13.444 161.666,14.334" id="Fill-11"/>
                    <polyline id="Fill-12" points="218 15 220 17 218 15"/>
                    <polyline id="Fill-13" points="155 20 157 22 155 20"/>
                    <path d="M424.928703,71.7779091 C428.050982,33.4718589 480.300764,23.1761182 507.645686,43.2267086 C527.570511,57.8683901 527.395663,91.1370999 520.15822,112.540702 C514.188422,131.354298 495.179986,158.006893 473.324031,144.707248 C458.810116,136.089053 448.795405,119.964233 439.515991,106.269503 C434.295541,98.6719453 430.252189,90.0318011 421.806424,85.8881065 C423.102169,98.5982588 431.533885,110.004002 438.465344,120.3797 C444.876945,129.97777 451.939541,139.193297 460.834914,146.521192 C481.991478,164.278092 505.271193,155.581507 518.59708,132.922098 C536.493985,103.312632 543.575314,48.2640491 504.546824,31.7441436 C483.941342,23.1761182 456.015676,23.6260767 437.41782,36.9555098 C428.820624,43.1185305 411.509147,62.3711109 424.928703,71.7779091" id="Fill-14"/>
                    <polyline id="Fill-15" points="488 27 490 29 488 27"/>
                    <path d="M224,28 L225.544402,29.5 L224,28 Z M230.177606,28 L230.177606,34 C231.274131,31.36 231.274131,30.6385 230.177606,28 Z" id="Fill-16"/>
                    <path d="M450.429379,30 L452,31.5 L450.429379,30 Z M174,31.5 L175.570621,33 L174,31.5 Z" id="Fill-17"/>
                    <polyline id="Fill-18" points="220 33 222 35 220 33"/>
                    <polyline id="Fill-20" points="169 35 171 37 169 35"/>
                    <polyline id="Fill-21" points="437 35 439 37 437 35"/>
                    <polyline id="Fill-22" points="171 37 173 39 171 37"/>
                    <path d="M177,37 L178.567961,39 L177,37 Z M498.432039,37 L500,39 L498.432039,37 Z" id="Fill-23"/>
                    <path d="M272.43698,94 C283.409529,83.4822806 275.013962,54.9181055 291.247063,49.0433152 C295.842994,47.4190716 300.247688,50.7629185 303.787119,53.3548297 C312.268899,59.1076846 320.684844,65.1575619 328.86723,71.4513102 C347.492347,85.7787327 367.164559,90.2762771 390,83.0570695 C378.851891,76.3959515 363.241089,80.7543643 350.812327,75.429847 C331.553937,67.4243118 317.794361,46.0512053 297.517091,40.5609808 C289.220277,38.3145535 282.248006,43.0716017 278.449937,50.2517273 C272.43698,61.4666678 268.834849,81.8220817 272.43698,94" id="Fill-24"/>
                    <path d="M429.5,42 L431,43.5 L429.5,42 Z M428,43.5 L429.5,45 L428,43.5 Z" id="Fill-25"/>
                    <polyline id="Fill-26" points="522 45 524 47 522 45"/>
                    <polyline id="Fill-27" points="208 47 210 49 208 47"/>
                    <polyline id="Fill-28" points="260 47 262 49 260 47"/>
                    <polyline id="Fill-29" points="434 47 436 49 434 47"/>
                    <polyline id="Fill-30" points="512 47 514 49 512 47"/>
                    <polyline id="Fill-31" points="514 48 516 50 514 48"/>
                    <polyline id="Fill-32" points="268 50 270 52 268 50"/>
                    <polyline id="Fill-33" points="424 50 426 52 424 50"/>
                    <polyline id="Fill-34" points="316 51 318 53 316 51"/>
                    <polyline id="Fill-35" points="284 53 286 55 284 53"/>
                    <polyline id="Fill-36" points="208 54 210 56 208 54"/>
                    <polyline id="Fill-37" points="221 54 223 56 221 54"/>
                    <polyline id="Fill-38" points="528 56 530 58 528 56"/>
                    <polyline id="Fill-39" points="282 58 284 60 282 58"/>
                    <path d="M274.428571,59 L276,60.5 L274.428571,59 Z M210,60.5 L211.571429,62 L210,60.5 Z" id="Fill-40"/>
                    <polyline id="Fill-41" points="530 60 532 62 530 60"/>
                    <polyline id="Fill-42" points="268 62 270 64 268 62"/>
                    <path d="M267,68 L268.564706,70 L267,68 Z M531.435294,68 L533,70 L531.435294,68 Z" id="Fill-43"/>
                    <path d="M42.6905425,159.721984 C15.5220184,159.721984 7.98852611,129.218425 7.98852611,106.492616 C7.98852611,95.9939054 13.3626066,79.4442685 26.9105892,80.4055283 C36.381085,81.0943789 38.4710928,90.8713615 37.9584493,98.6647673 C37.0861668,112.754894 29.6078823,143.100331 49,147.197427 C46.6071382,142.65884 43.8341317,138.250196 43.0280985,133.1073 C40.8103241,119.017173 47.3279938,104.931743 45.5534588,90.8369189 C42.6905425,69.6046632 16.6940001,65.3651005 5.80072171,83.0325542 C-5.46165996,101.302752 1.36990517,133.1073 11.8988124,150.328566 C18.5300523,161.287554 32.1505937,171.567084 42.6905425,159.721984" id="Fill-44"/>
                    <polyline id="Fill-45" points="25 70 27 72 25 70"/>
                    <polyline id="Fill-46" points="216 70 218 72 216 70"/>
                    <polyline id="Fill-47" points="257 70 259 72 257 70"/>
                    <polyline id="Fill-48" points="221 72 223 74 221 72"/>
                    <polyline id="Fill-49" points="265 72 267 74 265 72"/>
                    <polyline id="Fill-50" points="226 74 228 76 226 74"/>
                    <path d="M279,74 L280.574468,76 L279,74 Z M351.425532,74 L353,76 L351.425532,74 Z" id="Fill-51"/>
                    <polyline id="Fill-52" points="235 76 237 78 235 76"/>
                    <polyline id="Fill-53" points="221 78 223 80 221 78"/>
                    <polyline id="Fill-54" points="260 78 262 80 260 78"/>
                    <polyline id="Fill-55" points="224 80 226 82 224 80"/>
                    <path d="M395.505292,80 C404.628823,106.753631 425.194788,129.017011 442.933853,150.453733 C452.55754,162.084862 463.42456,173.265087 467.982405,188.029058 C475.069251,210.979753 462.842874,227.577087 444.109768,240.210224 C416.657647,258.722334 378.258543,269.501755 345.33293,271.0079 C331.221954,271.56057 316.76761,266.943502 303,271.0079 C316.935374,281.375558 348.128472,280.433044 364.147566,275.704815 C365.549257,283.558058 369.791957,290.161921 372.460499,297.623755 C375.083573,304.958771 376.314364,312.556815 379.826429,319.542694 C389.144378,305.92477 375.737382,286.293229 371.986998,272.573538 C391.282975,271.0079 414.228991,265.128927 431.566678,256.494431 C442.093466,251.251107 451.196614,243.908263 461.356518,238.129491 C451.9492,255.796156 446.825347,271.784456 443.15179,291.3612 C441.800272,298.563138 441.317363,313.507157 435.386049,318.529726 C430.575773,322.673971 423.651987,317.245902 419.023587,315.396883 C406.480497,310.480778 386.097975,311.714501 384.530088,327.370887 C391.555787,323.153056 397.861826,318.518766 406.480497,320.377179 C416.425599,322.673971 427.201682,332.927338 437.769236,327.370887 C447.033876,322.673971 448.47006,308.583224 450.37661,299.189393 C453.517086,283.954165 456.456873,268.120862 462.729986,253.785876 C466.62148,244.889918 473.2897,237.626921 477.035381,228.73566 L467.628063,231.866937 C471.180893,227.170021 474.409171,222.011242 476.30161,216.210551 C489.435793,175.968944 451.532142,147.804673 429.158404,120.706602 C419.023587,108.435127 409.243112,88.0661697 395.505292,80" id="Fill-56"/>
                    <path d="M524.666,81.334 C524.556,81.444 524.444,83.556 525.334,82.666 C525.444,82.556 525.556,80.444 524.666,81.334" id="Fill-57"/>
                    <polyline id="Fill-58" points="33 81 35 83 33 81"/>
                    <polyline id="Fill-59" points="252 82 254 84 252 82"/>
                    <polyline id="Fill-60" points="246 84 248 86 246 84"/>
                    <polyline id="Fill-61" points="383 84 385 86 383 84"/>
                    <polyline id="Fill-63" points="420 86 422 88 420 86"/>
                    <polyline id="Fill-64" points="403 88 405 90 403 88"/>
                    <path d="M524.418343,90.1737634 C524.332053,90.26133 524.244194,91.9426096 524.942357,91.2341158 C525.028647,91.1465492 525.116506,89.4652696 524.418343,90.1737634 Z M38.0576428,91.7658842 C37.971353,91.8534508 37.8834943,93.5347304 38.5816573,92.8262366 C38.6679471,92.73867 38.7558058,91.0573904 38.0576428,91.7658842 Z" id="Fill-65"/>
                    <polyline id="Fill-66" points="275 92 277 94 275 92"/>
                    <polyline id="Fill-67" points="406 92 408 94 406 92"/>
                    <polyline id="Fill-68" points="524 92 526 94 524 92"/>
                    <polyline id="Fill-69" points="0 97 2 99 0 97"/>
                    <polyline id="Fill-70" points="433 97 435 99 433 97"/>
                    <polyline id="Fill-71" points="531 97 533 99 531 97"/>
                    <path d="M371.399876,99 C343.470967,126.283692 303.836271,146.04274 281.838818,178.932692 C263.813476,206.186606 268.588495,242.740923 295.980037,262 C291.930935,251.028846 284.145408,241.940029 280.267571,230.653846 C272.786866,207.633231 284.660776,184.509173 300.960889,168.227981 C318.370302,150.837135 340.564161,138.704606 358.823618,122.236904 C364.979762,116.6855 374.484233,107.975971 371.399876,99 Z M272.411338,103.701923 C278.163672,108.460269 284.981311,111.538462 291.266297,115.865798 C300.263256,122.540962 307.789527,131.118837 314.834997,139.75 C321.119984,133.178279 315.592338,128.018702 310.113401,122.515885 C299.122531,111.549433 288.123804,103.833577 272.411338,103.701923 Z M154.567839,183.634615 C136.399514,183.634615 124.714153,176.490827 109.001687,168.365904 C101.145453,164.449202 93.669462,160.128135 85.4329871,157.68 C79.8676314,156.024923 73.3438154,156.205163 68.149274,153.576788 C48.9580675,143.861048 50.815281,120.246423 71.2917673,114.342375 C92.5067394,108.403846 117.701679,116.651019 137.284126,124.396654 C146.081536,127.876077 155.776128,131.913462 161.319486,139.77351 C172.261648,155.766317 166.721432,177.951558 157.710333,193.038462 C178.579631,185.806904 178.887595,151.034615 168.500083,135.071587 C152.595925,110.632558 107.370733,105.631279 80.7192471,105.29901 C68.0440004,105.269231 53.3308469,110.029144 47.7230676,122.515885 C42.7092196,134.286365 49.2943142,149.755692 59.0109035,157.303846 C66.2716342,163.259615 75.4131472,162.902269 83.8617404,165.641923 C95.3601233,169.528846 105.859193,175.51126 116.85792,180.887125 C129.385469,187.134413 143.569113,197.348558 154.567839,183.634615 Z" id="Fill-72"/>
                    <polyline id="Fill-73" points="89 105 91 107 89 105"/>
                    <polyline id="Fill-74" points="275 105 277 107 275 105"/>
                    <polyline id="Fill-75" points="363 106 365 108 363 106"/>
                    <polyline id="Fill-76" points="0 108 2 110 0 108"/>
                    <polyline id="Fill-77" points="120 109 122 111 120 109"/>
                    <polyline id="Fill-78" points="369 109 371 111 369 109"/>
                    <polyline id="Fill-79" points="442 111 444 113 442 111"/>
                    <polyline id="Fill-80" points="520 111 522 113 520 111"/>
                    <polyline id="Fill-81" points="528 111 530 113 528 111"/>
                    <polyline id="Fill-82" points="72 113 74 115 72 113"/>
                    <polyline id="Fill-83" points="134 113 136 115 134 113"/>
                    <path d="M8,115 L9.56521739,117 L8,115 Z M42.4347826,115 L44,117 L42.4347826,115 Z" id="Fill-84"/>
                    <path d="M294,115 L295.552632,117 L294,115 Z M351.447368,115 L353,117 L351.447368,115 Z" id="Fill-85"/>
                    <polyline id="Fill-86" points="50 117 52 119 50 117"/>
                    <polyline id="Fill-87" points="122 117 124 119 122 117"/>
                    <polyline id="Fill-88" points="308 119 310 121 308 119"/>
                    <polyline id="Fill-89" points="437 119 439 121 437 119"/>
                    <path d="M309,121 L310.571429,123 L309,121 Z M428.428571,121 L430,123 L428.428571,121 Z" id="Fill-90"/>
                    <polyline id="Fill-91" points="310 121 312 123 310 121"/>
                    <polyline id="Fill-92" points="343 121 345 123 343 121"/>
                    <polyline id="Fill-93" points="1 123 3 125 1 123"/>
                    <polyline id="Fill-94" points="160 125 162 127 160 125"/>
                    <polyline id="Fill-95" points="522 125 524 127 522 125"/>
                    <polyline id="Fill-96" points="337 127 339 129 337 127"/>
                    <polyline id="Fill-97" points="520 128 522 130 520 128"/>
                    <polyline id="Fill-98" points="46 129 48 131 46 129"/>
                    <polyline id="Fill-99" points="347 129 349 131 347 129"/>
                    <polyline id="Fill-100" points="310 133 312 135 310 133"/>
                    <polyline id="Fill-101" points="36 135 38 137 36 135"/>
                    <path d="M178.682182,135 C181.396765,149.083242 183.697578,163.186826 180.004993,177.249726 C176.52086,190.517705 166.143692,205.41621 168.289341,219.499452 C172.013273,247.342021 220.165778,266.177575 242.941946,252.36035 C237.067663,249.898912 230.403455,251.088163 224.13421,250.108596 C208.461097,247.67376 182.948404,239.134621 176.970678,222.629061 C172.412937,210.303095 184.338609,196.32 187.758482,185.073749 C192.717455,168.76379 190.10318,155.5052 184.951428,139.694414 C205.045926,159.384351 236.271469,177.742639 245.908866,205.41621 C251.046513,220.172318 245.794452,234.73752 249.211191,249.23074 C272.720861,227.592621 248.831902,184.654382 230.397186,168.308432 C224.875548,163.412158 219.067093,158.79129 213.163031,154.364458 C204.795156,148.089591 194.355295,138.40658 183.384116,139.694414 C181.815238,136.68373 181.696122,136.564805 178.682182,135" id="Fill-102"/>
                    <polyline id="Fill-103" points="320 135 322 137 320 135"/>
                    <polyline id="Fill-104" points="183 136 185 138 183 136"/>
                    <polyline id="Fill-105" points="13 137 15 139 13 137"/>
                    <polyline id="Fill-106" points="47 137 49 139 47 137"/>
                    <polyline id="Fill-107" points="179 137 181 139 179 137"/>
                    <polyline id="Fill-108" points="183 137 185 139 183 137"/>
                    <polyline id="Fill-109" points="6 139 8 141 6 139"/>
                    <polyline id="Fill-110" points="38 139 40 141 38 139"/>
                    <polyline id="Fill-111" points="191 139 193 141 191 139"/>
                    <polyline id="Fill-112" points="322 139 324 141 322 139"/>
                    <path d="M320.433333,141 L322,142.5 L320.433333,141 Z M40,142.5 L41.5666667,144 L40,142.5 Z" id="Fill-113"/>
                    <polyline id="Fill-114" points="331 142 333 144 331 142"/>
                    <polyline id="Fill-115" points="42 145 44 147 42 145"/>
                    <polyline id="Fill-116" points="181 145 183 147 181 145"/>
                    <polyline id="Fill-117" points="187 145 189 147 187 145"/>
                    <polyline id="Fill-118" points="439 145 441 147 439 145"/>
                    <polyline id="Fill-119" points="52 147 54 149 52 147"/>
                    <polyline id="Fill-120" points="204 147 206 149 204 147"/>
                    <polyline id="Fill-121" points="478 147 480 149 478 147"/>
                    <polyline id="Fill-122" points="196 148 198 150 196 148"/>
                    <polyline id="Fill-123" points="20 152 22 154 20 152"/>
                    <polyline id="Fill-124" points="55 152 57 154 55 152"/>
                    <polyline id="Fill-125" points="469 152 471 154 469 152"/>
                    <polyline id="Fill-126" points="498 152 500 154 498 152"/>
                    <polyline id="Fill-127" points="457 153 459 155 457 153"/>
                    <path d="M24,155 L25.5698925,157 L24,155 Z M314.430108,155 L316,157 L314.430108,155 Z" id="Fill-128"/>
                    <path d="M447.431452,155 L449,156.5 L447.431452,155 Z M60,156.5 L61.5685484,158 L60,156.5 Z" id="Fill-129"/>
                    <polyline id="Fill-131" points="481 156 483 158 481 156"/>
                    <polyline id="Fill-132" points="208 160 210 162 208 160"/>
                    <path d="M69,161 L70.5714286,162.5 L69,161 Z M78.4285714,162.5 L80,164 L78.4285714,162.5 Z" id="Fill-133"/>
                    <polyline id="Fill-134" points="100 162 102 164 100 162"/>
                    <polyline id="Fill-135" points="212 162 214 164 212 162"/>
                    <polyline id="Fill-136" points="85 164 87 166 85 164"/>
                    <polyline id="Fill-137" points="103 164 105 166 103 164"/>
                    <polyline id="Fill-138" points="302 164 304 166 302 164"/>
                    <path d="M301.432836,166 L303,167.5 L301.432836,166 Z M93,167.5 L94.5671642,169 L93,167.5 Z M299.865672,167.5 L301.432836,169 L299.865672,167.5 Z" id="Fill-139"/>
                    <polyline id="Fill-140" points="298 169 300 171 298 169"/>
                    <polyline id="Fill-141" points="459 170 461 172 459 170"/>
                    <path d="M181,172 L182.564103,173.6 L181,172 Z M240.435897,178.4 L242,180 L240.435897,178.4 Z" id="Fill-142"/>
                    <polyline id="Fill-143" points="290 178 292 180 290 178"/>
                    <polyline id="Fill-144" points="134 180 136 182 134 180"/>
                    <path d="M187.454545,180 L189,181.5 L187.454545,180 Z M138,181.5 L139.545455,183 L138,181.5 Z" id="Fill-145"/>
                    <path d="M242.428571,183 L244,184.5 L242.428571,183 Z M167,184.5 L168.571429,186 L167,184.5 Z" id="Fill-146"/>
                    <polyline id="Fill-147" points="234 184 236 186 234 184"/>
                    <polyline id="Fill-148" points="235 186 237 188 235 186"/>
                    <polyline id="Fill-149" points="175 188 177 190 175 188"/>
                    <path d="M157,193 L158.563636,194.333333 L157,193 Z M241.436364,195.666667 L243,197 L241.436364,195.666667 Z" id="Fill-150"/>
                    <polyline id="Fill-151" points="181 199 183 201 181 199"/>
                    <path d="M252.444444,200 L254,201.6 L252.444444,200 Z M170,204.8 L171.555556,206.4 L170,204.8 Z M246.222222,206.4 L247.777778,208 L246.222222,206.4 Z" id="Fill-152"/>
                    <path d="M256,208 L257.570423,209.5 L256,208 Z M277.985915,209.5 L279.556338,211 L277.985915,209.5 Z M477.429577,209.5 L479,211 L477.429577,209.5 Z" id="Fill-153"/>
                    <polyline id="Fill-154" points="248 216 250 218 248 216"/>
                    <polyline id="Fill-155" points="257 216 259 218 257 216"/>
                    <polyline id="Fill-156" points="465 217 467 219 465 217"/>
                    <polyline id="Fill-157" points="257 227 259 229 257 227"/>
                    <path d="M465,232 L461,238 C463.341333,235.9345 464.386667,235.159 465,232" id="Fill-158"/>
                    <path d="M248.666,234.334 C248.556,234.444 248.444,236.556 249.334,235.666 C249.444,235.556 249.556,233.444 248.666,234.334" id="Fill-159"/>
                    <path d="M283.444444,240 L285,241.333333 L283.444444,240 Z M201,242.666667 L202.555556,244 L201,242.666667 Z" id="Fill-160"/>
                    <polyline id="Fill-161" points="285 243 287 245 285 243"/>
                    <polyline id="Fill-162" points="188 244 190 246 188 244"/>
                    <polyline id="Fill-163" points="436 244 438 246 436 244"/>
                    <polyline id="Fill-164" points="465 244 467 246 465 244"/>
                    <polyline id="Fill-165" points="208 246 210 248 208 246"/>
                    <polyline id="Fill-166" points="248 246 250 248 248 246"/>
                    <path d="M427,249 L428.541667,250.5 L427,249 Z M462.458333,250.5 L464,252 L462.458333,250.5 Z" id="Fill-167"/>
                    <polyline id="Fill-168" points="208 254 210 256 208 254"/>
                    <path d="M239,254 L240.566434,256 L239,254 Z M461.433566,254 L463,256 L461.433566,254 Z" id="Fill-169"/>
                    <polyline id="Fill-170" points="408 257 410 259 408 257"/>
                    <polyline id="Fill-171" points="403 258 405 260 403 258"/>
                    <path d="M296,260 L297.580645,261.5 L296,260 Z M392.419355,261.5 L394,263 L392.419355,261.5 Z" id="Fill-172"/>
                    <polyline id="Fill-173" points="302 270 304 272 302 270"/>
                    <path d="M329.334,270.666 C328.444,271.556 330.556,271.444 330.666,271.334 C331.556,270.444 329.444,270.556 329.334,270.666" id="Fill-174"/>
                    <polyline id="Fill-175" points="351 270 353 272 351 270"/>
                    <path d="M263,270 C274.655263,279.624687 290.445294,283.61722 302.589888,292.926291 C324.700048,309.87483 333.055098,327.061658 338.379146,353.638039 C340.59618,365.737149 342.770456,378.014582 339.012584,389.933792 C333.02976,384.620409 328.19821,381.328542 320.009438,382.043411 C324.760225,387.385199 338.258793,401.881407 345.063502,391.128395 C347.291621,387.607707 346.908391,382.860854 346.928978,378.887258 C346.930562,369.418801 347.449981,359.950344 345.655767,350.481887 C337.761544,309.451905 308.279746,271.967861 263,270" id="Fill-176"/>
                    <polyline id="Fill-177" points="252 272 254 274 252 272"/>
                    <path d="M254.313931,273 C248.045325,277.701493 241.776718,282.699179 239.665764,290.238806 C233.940959,307.717388 244.15252,330.079254 252.427081,345.089552 C255.642876,350.924104 259.802097,357.012537 265.283993,360.76903 C279.736267,370.331866 300.958635,371.811269 317,378 C308.222383,359.388358 283.002211,365.672687 268.418297,353.425299 C255.346684,342.185597 244.911021,313.804254 246.790036,296.507463 C247.600253,288.134104 254.08356,281.003507 254.313931,273" id="Fill-178"/>
                    <polyline id="Fill-179" points="254 274 256 276 254 274"/>
                    <polyline id="Fill-180" points="271 276 273 278 271 276"/>
                    <path d="M332,277 C333.664,278.37 334.064,278.498 336,279 C334.336,277.63 333.936,277.502 332,277" id="Fill-181"/>
                    <path d="M342.278689,277 C344.242754,278.0275 344.714885,278.1235 347,278.5 C345.035934,277.4725 344.563803,277.3765 342.278689,277 Z M251,278.5 L252.57377,280 L251,278.5 Z" id="Fill-182"/>
                    <polyline id="Fill-183" points="309 288 311 290 309 288"/>
                    <path d="M377,288 L378.55814,289.5 L377,288 Z M442.44186,289.5 L444,291 L442.44186,289.5 Z" id="Fill-184"/>
                    <polyline id="Fill-185" points="302 293 304 295 302 293"/>
                    <polyline id="Fill-186" points="316 293 318 295 316 293"/>
                    <polyline id="Fill-188" points="441 297 443 299 441 297"/>
                    <polyline id="Fill-189" points="324 302 326 304 324 302"/>
                    <polyline id="Fill-190" points="439 305 441 307 439 305"/>
                    <polyline id="Fill-191" points="329 309 331 311 329 309"/>
                    <polyline id="Fill-192" points="447 309 449 311 447 309"/>
                    <polyline id="Fill-193" points="394 313 396 315 394 313"/>
                    <polyline id="Fill-194" points="326 317 328 319 326 317"/>
                    <polyline id="Fill-195" points="387 317 389 319 387 317"/>
                    <polyline id="Fill-196" points="378 317 380 319 378 317"/>
                    <polyline id="Fill-197" points="436 317 438 319 436 317"/>
                    <path d="M395.428571,319 L397,320.6 L395.428571,319 Z M331,325.4 L332.571429,327 L331,325.4 Z" id="Fill-198"/>
                    <path d="M388.00336,373.848046 C393.682376,361.980454 388.00336,342.662676 401.975789,335.15168 C415.628404,328.111582 429.251522,348.257332 434.154292,358.255361 C436.099565,362.2237 438.911128,367.610972 437.195624,372.288778 C433.803429,381.016004 423.234063,372.850115 417.50071,371.555922 C403.365269,368.367218 393.37964,377.127188 392.660837,391 C398.082139,386.322194 403.383899,377.615239 411.290742,377.524802 C420.444235,377.420331 433.326814,389.440731 441.40443,379.589273 C446.106929,373.983703 443.394725,364.492435 441.255391,358.255361 C437.234437,346.805653 429.751425,335.558649 419.053202,329.46035 C407.6517,322.961319 394.213329,325.510723 388.566915,338.00826 C386.450868,342.333671 385.612523,347.340482 385.163852,352.018287 C384.455916,359.460676 386.160552,366.694122 388.00336,373.848046" id="Fill-199"/>
                    <polyline id="Fill-200" points="244 329 246 331 244 329"/>
                    <polyline id="Fill-201" points="394 329 396 331 394 329"/>
                    <polyline id="Fill-202" points="254 332 256 334 254 332"/>
                    <polyline id="Fill-203" points="340 332 342 334 340 332"/>
                    <polyline id="Fill-204" points="410 333 412 335 410 333"/>
                    <polyline id="Fill-205" points="334 337 336 339 334 337"/>
                    <polyline id="Fill-206" points="387 337 389 339 387 337"/>
                    <polyline id="Fill-207" points="342 338 344 340 342 338"/>
                    <polyline id="Fill-208" points="431 341 433 343 431 341"/>
                    <path d="M343,344 L344.592593,345.666667 L343,344 Z M384.407407,347.333333 L386,349 L384.407407,347.333333 Z M344.592593,352.333333 L346.185185,354 L344.592593,352.333333 Z" id="Fill-209"/>
                    <polyline id="Fill-210" points="259 354 261 356 259 354"/>
                    <polyline id="Fill-211" points="277 358 279 360 277 358"/>
                    <polyline id="Fill-212" points="339 360 341 362 339 360"/>
                    <polyline id="Fill-213" points="290 362 292 364 290 362"/>
                    <polyline id="Fill-214" points="442 364 444 366 442 364"/>
                    <polyline id="Fill-215" points="284 366 286 368 284 366"/>
                    <polyline id="Fill-216" points="389 366 391 368 389 366"/>
                    <polyline id="Fill-219" points="269 376 271 378 269 376"/>
                    <path d="M269,380.767941 C296.323628,380.843311 326.543071,399.757953 336.323838,426.303773 C341.465389,440.435583 340.466939,456.137594 336.308286,470.269403 C331.815261,485.574154 324.563279,509.543273 306.325235,513.044822 C296.813521,514.870966 290.665744,501.987466 281.441745,500.103224 C285.010971,506.427994 289.217836,513.73257 295.438708,517.780548 C313.455911,529.514661 330.003432,506.449977 335.855717,492.252219 C350.334798,457.131531 352.650518,416.956366 320.322199,391.239612 C309.976888,383.010188 297.847741,377.117223 284.552181,376.198656 C278.331309,375.780982 272.664094,375.53132 269,380.767941" id="Fill-220"/>
                    <polyline id="Fill-221" points="289 376 291 378 289 376"/>
                    <polyline id="Fill-222" points="340 376 342 378 340 376"/>
                    <polyline id="Fill-223" points="404 378 406 380 404 378"/>
                    <polyline id="Fill-224" points="431 378 433 380 431 378"/>
                    <path d="M262.069668,380 C257.874463,397.307833 266.862361,407.614375 274.418841,422.375 C280.45444,434.233722 284.890877,448.187653 283.694301,461.611111 C282.826823,471.355792 277.404689,487.459861 287.6307,493 C289.228264,471.895681 292.423393,449.403972 286.847893,428.652778 C283.552118,416.805042 275.275136,407.722667 269.207586,397.263889 C266.010859,391.755139 265.068296,385.500903 262.069668,380" id="Fill-225"/>
                    <polyline id="Fill-226" points="324 380 326 382 324 380"/>
                    <polyline id="Fill-227" points="422 380 424 382 422 380"/>
                    <polyline id="Fill-228" points="322 384 324 386 322 384"/>
                    <polyline id="Fill-229" points="410 384 412 386 410 384"/>
                    <path d="M392,408.602696 C397.650584,404.266867 401.41764,397.793834 407.696066,394.023411 C414.735752,389.703331 421.822526,392.949297 424.36058,400.735836 C427.132506,409.889428 424.96174,423.164657 422.577507,432.226902 C421.533719,436.134346 419.09298,442.925518 413.974493,442.925518 C410.788192,442.925518 409.044359,439.470084 407.696066,436.951743 C404.432854,429.491219 403.396914,423.355225 396.70882,418.052379 C397.421421,423.367825 398.648854,428.576175 399.848033,433.801849 C402.467707,444.976099 415.314937,459.435688 424.822045,444.826479 C431.535252,434.21921 434.184748,411.294281 432.513117,399.153014 C430.66569,385.731315 417.557905,380.253649 406.12646,386.695182 C397.758887,391.492471 393.390671,399.335708 392,408.602696" id="Fill-230"/>
                    <polyline id="Fill-231" points="263 385 265 387 263 385"/>
                    <polyline id="Fill-232" points="395 387 397 389 395 387"/>
                    <polyline id="Fill-233" points="426 387 428 389 426 387"/>
                    <polyline id="Fill-234" points="318 390 320 392 318 390"/>
                    <polyline id="Fill-235" points="328 390 330 392 328 390"/>
                    <polyline id="Fill-236" points="400 390 402 392 400 390"/>
                    <polyline id="Fill-237" points="265 392 267 394 265 392"/>
                    <polyline id="Fill-238" points="398 392 400 394 398 392"/>
                    <polyline id="Fill-239" points="418 392 420 394 418 392"/>
                    <polyline id="Fill-240" points="260 398 262 400 260 398"/>
                    <polyline id="Fill-241" points="268 398 270 400 268 398"/>
                    <polyline id="Fill-242" points="316 399 318 401 316 399"/>
                    <polyline id="Fill-243" points="392 403 394 405 392 403"/>
                    <path d="M425.666,406.334 C425.556,406.444 425.444,408.556 426.334,407.666 C426.444,407.556 426.556,405.444 425.666,406.334" id="Fill-244"/>
                    <polyline id="Fill-245" points="277 412 279 414 277 412"/>
                    <polyline id="Fill-246" points="430 421 432 423 430 421"/>
                    <polyline id="Fill-247" points="398 429 400 431 398 429"/>
                    <polyline id="Fill-248" points="337 431 339 433 337 431"/>
                    <polyline id="Fill-249" points="422 432 424 434 422 432"/>
                    <path d="M279,435 L280.666667,437 L279,435 Z M287.333333,435 L289,437 L287.333333,435 Z" id="Fill-250"/>
                    <polyline id="Fill-251" points="426 439 428 441 426 439"/>
                    <polyline id="Fill-253" points="281 442 283 444 281 442"/>
                    <polyline id="Fill-254" points="410 443 412 445 410 443"/>
                    <polyline id="Fill-256" points="406 448 408 450 406 448"/>
                    <path d="M343.333333,460 L345,461.578947 L343.333333,460 Z M335,488.421053 L336.666667,490 L335,488.421053 Z" id="Fill-260"/>
                    <polyline id="Fill-261" points="282 492 284 494 282 492"/>
                    <path d="M286,493 L287.541667,494.666667 L286,493 Z M321.458333,501.333333 L323,503 L321.458333,501.333333 Z" id="Fill-262"/>
                    <polyline id="Fill-263" points="328 505 330 507 328 505"/>
                    <path d="M338.891458,562.596314 C329.164407,538.29722 303.619928,557.94666 285.618302,556.396775 C270.58117,554.932134 265.694141,539.348042 270.706519,526.948963 C272.796707,521.868441 276.217157,517.649654 279.350872,513 C273.880972,514.562284 268.271622,516.615881 264.481394,521.07955 C254.281151,533.148503 258.981724,555.012728 273.083442,561.70823 C284.897547,567.35911 297.31646,561.046429 309.121165,558.901389 C319.940316,556.974882 328.802463,558.7526 338.891458,562.596314 Z M280.917729,516.09977 C285.389541,540.508906 313.64625,529.135851 331.057171,530.21767 C339.793968,530.76013 351.08631,538.610297 349.536688,548.647351 C348.853538,552.875437 345.064877,556.824543 343.592031,561.046429 C360.827464,558.389927 358.419204,536.485405 346.656804,527.961038 C333.416858,518.364151 316.190826,524.988359 301.286877,523.849194 C293.45259,523.043254 288.104905,518.015427 280.917729,516.09977 Z" id="Fill-264"/>
                    <polyline id="Fill-265" points="316 515 318 517 316 515"/>
                    <polyline id="Fill-266" points="287 517 289 519 287 517"/>
                    <polyline id="Fill-267" points="310 519 312 521 310 519"/>
                    <polyline id="Fill-268" points="290 520 292 522 290 520"/>
                    <polyline id="Fill-270" points="332 521 334 523 332 521"/>
                    <polyline id="Fill-271" points="340 523 342 525 340 523"/>
                    <polyline id="Fill-272" points="260 525 262 527 260 525"/>
                    <polyline id="Fill-273" points="268 544 270 546 268 544"/>
                    <path d="M349.666,547.334 C349.556,547.444 349.444,549.556 350.334,548.666 C350.444,548.556 350.556,546.444 349.666,547.334" id="Fill-274"/>
                    <polyline id="Fill-275" points="353 556 355 558 353 556"/>
                    <polyline id="Fill-276" points="309 558 311 560 309 558"/>
                    <path d="M351.454545,558 L353,559.333333 L351.454545,558 Z M302,559.333333 L303.545455,560.666667 L302,559.333333 Z M336,560.666667 L337.545455,562 L336,560.666667 Z" id="Fill-277"/>
                    <polyline id="Fill-278" points="276 562 278 564 276 562"/>
                    <polyline id="Fill-279" points="290 562 292 564 290 562"/>
                </g>
            </g>
        </g>
    </g>
</svg>